#amk 2

(!1)[$F4 $09]
(!2)[$ED $7C $17]
(!3)[$ED $80 $00]

#path "amnf-s04"

#samples
{
	#optimized
	"sample_00.brr"
	"sample_01.brr"
}

#instruments
{
	"sample_00.brr"	$F6 $E0 $B8 $0A $CB	; @30
	"sample_01.brr"	$FF $E0 $B8 $01 $0D	; @31
}

#2 w255 t2 $F0 @30 (!1,-1) (!2,3) v189 y11 o2 c=1200

#3 $F1 $00 $00 $01 r192 @30 (!1,-1) (!3,3) v189 y9 o1 $EE $32 g+=1200

#4 w255 t14 $F0 @31 v210 y10 o5 e=31 v0 [r16]199 / @0 v0

#5 $F1 $00 $00 $01 r192 @30 v140 y10 o5 e=31 v0 [r16]199 / @0 v0 

