#amk 2

(!1)[$F4 $09]
(!2)[$ED $7C $17]
(!3)[$ED $80 $00]

#path "amnf-s04"

#samples
{
	#optimized
	"sample_00.brr"
}

#instruments
{
	"sample_00.brr"	$F6 $E0 $B8 $0A $CB	; @30
}

#3 w255 t2 $F0 @30 (!1,-1) (!2,3) v189 y11 o2 c=60 r=23


#4 $F1 $00 $00 $01 r192 @30 (!1,-1) (!3,3) v189 y9 o1 $EE $32 g+=60 r16..


