#amk 2

#spc
{
    #title   "Bonus Stage"
    #game    "Bonk's Revenge"
    #author  "Hirohiko Takayama"
    #comment "Poorly ported by KobaBeach"
}

$EF$07$20$20
$F1$03$20$01

#0 w255 t25
@5 v130 o3
g192 (1)[e12^64 e12^64 e12^64 e12^48] (2)[e12^64 e12^64 e12^64 e12^64 f12^48]
f12^64 f12^64 g12^64 g12^48 g12^64 g12^64 e12^64 e12^64 e12^48 e12^64 
f12^64 f12^64 f12^64 f12^48 f12^64 f12^64 f12^64 f12^64 b12^48 b4^32. 
(3)[e12^64 e12^48 e12^64 e12^64 e12^64 e12^64 e12^48 e12^64 
f12^64 f12^64 f12^64 f12^48 g12^64 g12^64 g12^64 g12^64 e12^48 e12^64
e12^64 e12^64 f12^64 f12^48 f12^64 f12^64 f12^64 f12^64 f12^48 f12^64]
g8...^6 (2) f12^64 
(1) [e12^64]2 [f12^64]2 f12^48 f12^64 
[g12^64]3 g12^48 e12^64 e4^32. e12^48 e4^32. 
(3)
b12^64 b8..^12 e12^64 e12^64 e12^64 e12^64 e12^48 e12^64 
e12^64 e12^64 f12^64 f12^48 f12^64 f12^64 g12^64 g12^64 g12^64 g12^64 

#1
@6 v150 o5
r1^1^1^1^1....^24
g192 g192 g+192 g+96 
a192 a16. g192 g32. e32. d192 d32. c192 c16. < a192 a16. b192 b32. > c192 c16. < g192 g8^48 a192 a16. b192 b48 g192 g192 g+192 g+96 a12^64 
g192 g24 e192 e32. d192 d32. < g6^32 > g192 g16. e192 e16. c192 c12^64 c12^64 < b192 b16. > c192 c16. < b192 b6^32 
> d6^32 c192 c4^32. d64 e192 e96 f192 f96 g192 g96 a192 a64 b64 > c192 c1.^8.. 
g192 g192 g+192 g+96 a192 a16. g192 g32. a32. g192 g2.....^4.^96 
d192 d96 d+96 e192 e16. d192 d32. c192 c24 d192 d2.....^4.^96 
g192 g96 g+192 g+192 a192 a16. g192 g32. a192 a32. g2.....^4.^96 

#2
@5 v130 o3
g12^64 g12^64 g12^64 g12^48 a12^64 a12^64 a12^64 a12^64 a12^48 a12^64 
a12^64 a12^64 b12^64 b12^48 b12^64 b12^64 g12^64 g12^64 g12^48 g12^64 
a12^64 a12^64 a12^64 a12^48 a12^64 a12^64 a12^64 a12^64 > d12^48 d4^32. 
< g12^64 g12^48 g12^64 g12^64 a12^64 a12^64 a12^48 a12^64 
a12^64 a12^64 a12^64 a12^48 b12^64 b12^64 b12^64 b12^64 g12^48 g12^64 
g12^64 g12^64 a12^64 a12^48 a12^64 a12^64 a12^64 a12^64 a12^48 a12^64 
b8...^6 g12^64 g12^64 g12^64 g12^64 a12^48 a12^64 
a12^64 a12^64 g12^64 g12^48 g12^64 g12^64 a12^64 a12^64 a12^48 a12^64 
b12^64 b12^64 b12^64 b12^48 g12^64 g4^32. g12^48 g4^32. 
g12^64 g12^48 g12^64 g12^64 a12^64 a12^64 a12^48 a12^64 
a12^64 a12^64 a12^64 a12^48 b12^64 b12^64 b12^64 b12^64 g12^48 g12^64 
g12^64 g12^64 a12^64 a12^48 a12^64 a12^64 a12^64 a12^64 a12^48 a12^64 
> d12^64 d8..^12 < g12^64 g12^64 g12^64 g12^64 a12^48 a12^64 
a12^64 a12^64 a12^64 a12^48 a12^64 a12^64 b12^64 b12^64 b12^64 b12^64

#3
@8 v95 o3
g32. < g24^96 > g24^96 < g32. > g24^96 < g32. > g24^96 < c24^96 > c32. < c24^96 > c32. < c24^96 > c24^96 < c32. > c24^96 < f32. > f24^96 < f24^96 > f32. < f24^96 
> f32. < f24^96 > f24^96 < g32. > g24^96 < g32. > g24^96 < g24^96 > g32. < g24^96 > g32. < c24^96 > c24^96 < c32. > c24^96 < c32. > c24^96 < c24^96 > c32. < f24^96 
> f32. < f24^96 > f24^96 < f32. > f24^96 < f32. > f24^96 < d24^96 > d32. < d24^96 > d32. < d24^96 > d24^96 < d32. > d24^96 < g32. > g24^96 < g24^96 > g32. < g24^96 
> g32. < g24^96 > g24^96 < c32. > c24^96 < c32. > c24^96 < c24^96 > c32. < c24^96 > c32. < a24^96 > a24^96 < a32. > a24^96 < a32. > a24^96 < a24^96 > a32. < f24^96 
> f32. < f24^96 > f24^96 < f32. > f24^96 < f32. > f24^96 < g24^96 > g32. < g24^96 > g32. < g24^96 > g24^96 < g32. > g24^96 < c32. > c24^96 < c24^96 > c32. < c24^96 
> c32. < c24^96 > c24^96 < f32. > f24^96 < f32. > f24^96 < f24^96 > f32. < f24^96 > f32. < d24^96 > d24^96 < d32. > d24^96 < d32. > d24^96 < d24^96 > d32. < g24^96 
> g32. < g24^96 > g24^96 < g32. > g24^96 < g32. > g24^96 < c24^96 > c32. < c24^96 > c32. < c24^96 > c24^96 < c32. > c24^96 < f32. > f24^96 < f24^96 > f32. < f24^96 
> f32. < f24^96 > f24^96 < c32. > c24^96 < c32. > c24^96 < c24^96 > c32. < c24^96 > c32. < f24^96 > f24^96 < f32. > f24^96 < f32. > f24^96 < f24^96 > f32. < g24^96 
> g32. < g24^96 > g24^96 < g32. > g24^96 < g32. > g24^96 < c24^96 > c32. < c24^96 > c32. < c24^96 > c24^96 < c32. > c24^96 < c32. > c24^96 < c24^96 > c32. < c24^96 
> c32. < c24^96 > c24^96 < c32. > c24^96 < c32. > c24^96 < c24^96 > c32. < c24^96 > c32. < a24^96 > a24^96 < a32. > a24^96 < a32. > a24^96 < a24^96 > a32. < f24^96 
> f32. < f24^96 > f24^96 < f32. > f24^96 < f32. > f24^96 < g24^96 > g32. < g24^96 > g32. < g24^96 > g24^96 < g32. > g24^96 < c32. > c24^96 < c24^96 > c32. < c24^96 
> c32. < c24^96 > c24^96 < f32. > f24^96 < f32. > f24^96 < f24^96 > f32. < f24^96 > f32. < d24^96 > d24^96 < d32. > d24^96 < d32. > d24^96 < d24^96 > d32. < g24^96 
> g32. < g24^96 > g24^96 < g32. > g24^96 < g32. > g24^96 < c24^96 > c32. < c24^96 > c32. < c24^96 > c24^96 < c32. > c24^96 < a32. > a24^96 < a24^96 > a32. < a24^96 
> a32. < a24^96 > a24^96 < f32. > f24^96 < f32. > f24^96 < f24^96 > f32. < f24^96 > f32. < g24^96 > g24^96 < g32. > g24^96 < g32. > g24^96 < g24^96 r32. c24^96

#4
v100 o3
[@21d+24^96 < @21g+64^96 > @21d+16^64 << @21c48 >> @21d+16^64 < @21g+64^96 > @21d+16^96 << @21c64^96 >> @21d+16^96 < @21g+64^96 >
@21d+16^96 << @21c64^96 >> @21d+16^64 < @21g+48 > @21d+16^64 << @21c64^96 >> @21d+16^96 < @21g+64^96 > @21d+16^96 << @21c64^96 >>]2
@21d+16^96 < @21g+64^96 > @21d+16^64 << @21c48 >> @21d+16^64 < @21g+64^96 > @21d+16^96 << @21c64^96 >> @21d+16^96 < @21g+64^96 >
@21d+16^96 << @21c64^96 >> @21d+16^64 < @21g+48 > @21d+16^64 << @21c64^96 >> @21d+16^96 < @21g+64^96 > @21d+16^96 << @21c64^96 >
@21f+64^96 
g+64^96 g+48 g+64^96 g+64^96 g+64^96 g+64^96 < c48 >> d+16^64 < g+64^96 > d+16^96 << c64^96 >> d+16^96 < g+64^96 > d+16^96 << c64^96 >> d+16^64 < g+48 > d+16^64 << c64^96 >> d+16^96 < g+64^96 > d+16^96 << c64^96 >> d+16^96 
< g+64^96 > d+16^64 << c48 >> d+16^64 < g+64^96 > d+16^96 << c64^96 >> d+16^96 < g+64^96 > d+16^96 << c64^96 >> d+16^64 < g+48 > d+16^64 << c64^96 >> d+16^96 < g+64^96 > d+16^96 << c64^96 >> d+16^96 
< g+64^96 > d+16^64 << c48 >> d+16^64 < g+64^96 > d+16^96 << c64^96 >> d+16^96 < g+64^96 > d+16^96 << c64^96 >> d+16^64 < g+48 > d+16^64 << c64^96 >> d+16^96 < g+64^96 > d+16^96 << c64^96 > f+64^96 
g+64^96 g+48 > d+24^96 < g+64^96 > d+64^96 << c48 > f+64^96 g+64^96 g+64^96 > d+32. < g+64^96 > d+64^96 << c64^96 >> d+16^96 < g+64^96 > d+16^96 << c64^96 >> d+16^64 < g+48 > d+16^64 << c64^96 >> d+16^96 < g+64^96 > d+16^96 << c64^96 >> d+16^96 
< g+64^96 > d+16^64 << c48 >> d+16^64 < g+64^96 > d+16^96 << c64^96 >> d+16^96 < g+64^96 > d+16^96 << c64^96 >> d+16^64 < g+48 > d+16^64 << c64^96 >> d+16^96 < g+64^96 > d+16^96 << c64^96 >> d+16^96 
< g+64^96 > d+16^64 << c48 >> d+16^64 < g+64^96 > d+16^96 << c64^96 >> d+16^96 < g+64^96 > d+16^96 << c64^96 >> d+16^64 < g+48 > d+16^64 << c64^96 >> d+16^96 < g+64^96 > d+16^96 << c64^96 > f+64^96 
g+64^96 > d+48 < g+64^96 > d+64^96 < g+64^96 > f64^96 << c48 >> d+16^64 < g+64^96 > d+16^96 << c64^96 >> d+16^96 < g+64^96 > d+16^96 << c64^96 >> d+16^64 < g+48 > d+16^64 << c64^96 >> d+16^96 < g+64^96 > d+16^96 << c64^96 >> d+16^96 
< g+64^96 > d+16^64 << c48 >> d+16^64 < g+64^96 > d+16^96 << c64^96 >> d+16^96 < g+64^96 > d+16^96 << c64^96 >> d+16^64 < g+48 > d+16^64 << c64^96 >> d+16^96 < g+64^96 > d+16^96 << c64^96 >> d+16^96 
< g+64^96 > d+16^64 << c48 >> d+16^64 < g+64^96 > d+16^96 << c64^96 >> d+16^96 < g+64^96 > d+16^96 << c64^96 >> d+16^64 < g+48 > d+16^64 << c64^96 >> d+16^96 < g+64^96 > d+16^96 << c64^96 >> d+16^96 
< g+64^96 > d+16^64 << c48 > f+64^96 g+64^96 g+64^96 g+64^96 g+48 g+64^96 g+64^96 < c64^96 >> d+16^96 < g+64^96 > d+16^96 << c64^96 >> d+16^64 < g+48 > d+16^64 << c64^96 >> d+16^96 < g+64^96 > d+16^96 << c64^96 >> d+16^96 
< g+64^96 > d+16^64 << c48 >> d+16^64 < g+64^96 > d+16^96 << c64^96 >> d+16^96 < g+64^96 > d+16^96 << c64^96 >> d+16^64 < g+48 > d+16^64 << c64^96 >> d+16^96 < g+64^96 > d+16^96 << c64^96 >> d+16^96 