#amk 2

#0 w255 t57 @30 (!1,-1) (!2,3) v94 y7 o4 $EE $DC d8 r=51
(!3,3) $EE $D8 b=23
r=53
> c8 r=52
(!4,3) < b=23
r=53
$EF $FE $DC $DC @31 (!0,0) v123 y10 > $EE $00 f+=25 r=51
@30 (!1,-1) (!3,3) v94 y7 < $EE $D8 b=23
r=52
(!5,3) > c8 r=53

(!3,3) < b=23 r=52
@32 (!0,0) v89 y10 < $EE $00 g=65
r=11
d=65
r16 g=65

r=11 $EF $7F $DC $DC a+3
r=11 g=65

r16 $EF $BF $DC $DC d=65
r16
g3
r32.. $EF $FA $DC $DC @31 v123 >> f+=25
r=52
$EF $75 $DC $DC @32 v89 << g=65
r16 $EF $C7 $DC $DC (!1,-1) (!6,3) d=51
@30 (!0,0) (!1,-1) (!7,3) v94 y7 > $EE $D8 b8
r96 $EF $C9 $DC $DC @32 (!0,0) v89 y10 < $EE $00 g3
r16
a+3
r24 $EF $63 $DC $DC @33 (!1,-1) (!8,3) v94 y15 >> $EE $37 a=13 r=38
$EF $55 $DC $DC (!9,3) v84 $EE $3A g=26
r=27 $EF $C5 $DC $DC @32 (!0,0) (!1,-1) (!6,3) v89 y10 << $EE $00 f=52
@30 (!0,0) (!1,-1) (!3,3) v94 y7 >> $EE $D8 c=23
$EF $14 $DC $DC @34 (!0,0) (!1,-1) (!6,3) v84 y10 $EE $00 f+=128


$EF $9F $DC $DC @30 (!0,0) (!1,-1) (!6,3) v94 y7 < $EE $DC d=7 $EF $BF $DC $DC @33 (!0,0) (!1,-1) (!3,3) v96 y16 >> $EE $33 d=65
r=29
$EF $DF $DC $DC @32 (!0,0) (!1,-1) (!6,3) v89 y10 <<< $EE $00 f=44
@35 (!0,0) (!1,-1) (!10,3) v81 y7 >> $EE $C1 a=13 r=19 $EF $6A $DC $DC @34 (!0,0) (!1,-1) (!6,3) v84 y10 $EE $00 f+=52
@30 (!0,0) (!1,-1) (!11,3) v94 y7 < $EE $DC d=23
$EF $7E $DC $DC @34 (!0,0) (!1,-1) (!6,3) v84 y10 > $EE $00 f+=52
@30 (!0,0) (!1,-1) (!3,3) v94 y7 < $EE $D8 a=23 r8
@33 (!0,0) (!1,-1) (!12,3) v96 y16 > $EE $3A g8...
r=34 $EF $83 $DC $DC @32 (!0,0) v89 y10 << $EE $00 g3

r=11 $EF $CE $DC $DC @34 (!1,-1) (!6,3) v84 >> f+=103

$EF $3E $DC $DC f+=76

@30 (!0,0) (!1,-1) (!13,3) v94 y7 $EE $DC e=23 r=27
$EF $79 $DC $DC @32 (!0,0) (!1,-1) (!6,3) v89 y10 < $EE $00 c=26 @30 (!0,0) (!1,-1) (!3,3) v94 y7 > $EE $DA f=23
r16.. @33 (!0,0) (!1,-1) (!14,3) v102 y15 $EE $3A g2^=40


r=19 (!15,3) v87 g=31
r16...
@34 (!0,0) (!16,-1) (!6,3) v84 y10 $EE $00 f+=27 @30 (!0,0) (!1,-1) (!3,3) v94 y7 $EE $DC e=23
r96 @35 (!0,0) (!1,-1) (!10,3) v81 $EE $C0 g6 r16.
$EF $3F $DC $DC v86 y6 $EE $C3 f8 r=25
@33 (!0,0) (!1,-1) (!17,3) v94 y15 > $EE $32 f=25 r12..
(!3,3) v111 f=54
r16.. $EF $AF $DC $DC @32 (!0,0) (!1,-1) (!6,3) v89 y10 <<< $EE $00 d=51
@30 (!0,0) (!1,-1) (!18,3) v94 y7 > $EE $DC d=23
r96 $EF $E9 $DC $DC @32 (!0,0) v89 y10 < $EE $00 g3
r16
a+=65
r=11 $EF $97 $DC $DC g3
r16
$EF $B3 $DC $DC d3
r16 $EF $31 $DC $DC g=65

r16 $EF $48 $DC $DC @31 v123 >> f+8 $EF $2E $DC $DC @34 (!1,-1) (!6,3) v84 f+=58

@33 (!0,0) (!1,-1) (!19,3) v109 y15 $EE $39 g+=83^32.. $DD $00 $B9 $BF ^2^4... $DD $00 $0A $BD




r=19
@35 (!0,0) (!16,-1) (!10,3) v101 y7 $EE $C1 a=51
r=25 @31 (!0,0) $ED $80 $7F v123 y10 $EE $00 f+8
$EF $EA $DC $DC @34 (!16,-1) (!6,3) v84 f+=51
@30 (!0,0) (!1,-1) (!20,3) v94 y7 < $EE $D8 g=23 r=27
$EF $C6 $DC $DC @34 (!0,0) (!1,-1) (!6,3) v84 y10 > $EE $00 f+=78

@30 (!0,0) (!1,-1) (!3,3) v94 y7 $EE $DC e8 @32 (!0,0) v89 y10 << $EE $00 g3
r24
@35 (!1,-1) (!10,3) v101 y7 >>> $EE $BC c=50
r=27 v98 y6 $EE $BA d+=40
r8.
$EF $FD $DC $DC @33 (!0,0) (!1,-1) (!3,3) v92 y15 < $EE $42 c=29 r=25
$EF $76 $DC $DC @34 (!0,0) (!16,-1) (!16,3) v84 y10 $EE $00 f+96 r=23 $EF $77 $DC $DC @30 (!0,0) (!1,-1) (!6,3) v104 y7 < $EE $D8 a=7
@35 (!0,0) (!1,-1) (!10,3) v101 >> $EE $BA d+=26 r=43
$EF $7F $DC $DC @30 (!0,0) (!1,-1) (!3,3) v110 << $EE $D8 g+4
r=104

$EF $3A $DC $DC @36 (!0,0) v101 y10 > $EE $00 f+=29
r16... $EF $6F $DC $DC @32 (!1,-1) (!6,3) v89 << a+=27
@30 (!0,0) (!1,-1) (!3,3) v110 y7 > $EE $DC d=23 $EF $58 $DC $DC @34 (!0,0) (!1,-1) (!6,3) v84 y10 > $EE $00 f+=52
@30 (!0,0) (!1,-1) (!3,3) v110 y7 < $EE $D8 b=23
$EF $1F $DC $DC @32 (!0,0) (!1,-1) (!6,3) v89 y10 < $EE $00 f=52
@30 (!0,0) (!1,-1) (!21,3) v110 y7 > $EE $DC d=23 r12..
(!22,3) d8
r96 $EF $6A $DC $DC @31 (!0,0) v123 y10 > $EE $00 f+8 @34 (!1,-1) (!6,3) v84 f+=52
@30 (!0,0) (!1,-1) (!3,3) v110 y7 < $EE $D8 a=23
$EF $F2 $DC $DC @34 (!0,0) (!1,-1) (!6,3) v84 y10 > $EE $00 f+=51
(!0,0) $ED $80 $00 f+=5 @37 v144 y7 a=50
r8 $EF $D9 $DC $DC @32 v89 y10 << g3

r16 @36 v110 >> f+=29
r16.. @30 (!1,-1) (!23,3) y7 < $EE $DC d8 @33 (!0,0) (!1,-1) (!24,3) v96 y16 $EE $3D g12..
r16..
@37 (!0,0) v144 y7 > $EE $FF b=52
$EF $6F $DC $DC @32 (!1,-1) (!6,3) v89 y10 << $EE $00 f=53
$EF $26 $DC $DC @34 (!0,0) (!1,-1) (!6,3) v84 >> f+=76
@30 (!0,0) (!1,-1) (!25,3) v110 y7 < $EE $DC d=23
r96 (!26,3) > $EE $D8 c8 (!27,3) < $EE $DC d8
r96 @35 (!0,0) (!1,-1) (!10,3) v98 y6 > $EE $C4 e=33
r16. @37 (!0,0) (!1,-1) (!6,3) v118 y7 $EE $06 g=25 v147 $EE $FF b=52

v133 $EE $06 g=53
r=11 $EF $53 $DC $DC v127 $EE $FF b8.
@30 (!0,0) (!1,-1) (!3,3) v110 < $EE $D8 b=23 r96 @34 (!0,0) (!1,-1) (!6,3) v84 y10 > $EE $00 f+=51
@31 (!0,0) v123 f+8
@34 (!1,-1) (!6,3) v84 f+=51
@30 (!0,0) (!1,-1) (!28,3) v110 y7 < $EE $D8 g=23 r96 $EF $E7 $DC $DC @32 (!0,0) (!1,-1) (!6,3) v89 y10 < $EE $00 a+=52
$EF $16 $DC $DC @34 (!0,0) (!1,-1) (!6,3) v84 >> f+=77

@30 (!0,0) (!1,-1) (!3,3) v110 y7 < $EE $D8 g=23 @34 (!0,0) (!1,-1) (!6,3) v84 y10 > $EE $00 f+=51
@30 (!0,0) (!1,-1) (!29,3) v110 y7 < $EE $D8 g=23
r96 @34 (!0,0) (!1,-1) (!6,3) v84 y10 > $EE $00 f+=52
@36 (!0,0) (!1,-1) (!6,3) v101 f+=5 @37 (!0,0) (!1,-1) (!6,3) v137 y7 > $EE $FE c+4
$EF $6B $DC $DC v133 $EE $FC d+=25
@30 (!0,0) (!1,-1) (!1,3) v110 < $EE $DA f96 r16.. $EF $B0 $DC $DC @34 (!0,0) (!1,-1) (!6,3) v84 y10 $EE $00 f+=52
@30 (!0,0) (!1,-1) (!30,3) v110 y7 $EE $DC e=23
(!31,3) $EE $DA f8 r96 (!32,3) < $EE $D8 g8
r96 $EF $E5 $DC $DC @37 (!0,0) v144 > $EE $00 a=52
$EF $0F $DC $DC $EE $06 g=51
r=20 g=52
$EF $16 $DC $DC @34 (!16,-1) (!6,3) v84 y10 $EE $00 f+=52

@30 (!0,0) (!1,-1) (!3,3) v110 y7 < $EE $D8 b=23 r96 $EF $5E $DC $DC @34 (!0,0) (!1,-1) (!6,3) v84 y10 > $EE $00 f+=52
@30 (!0,0) (!1,-1) (!3,3) v110 y7 < $EE $DC d=23
$EF $76 $DC $DC @34 (!0,0) (!1,-1) (!6,3) v84 y10 > $EE $00 f+=51
f+=77
@30 (!0,0) (!1,-1) (!3,3) v110 y7 < $EE $DC d=23
r96 @37 (!0,0) v125 $EE $05 a=52
@36 $ED $80 $7F v110 y10 > $EE $00 f+12...
r=20 $EF $5E $DC $DC @34 (!16,-1) (!6,3) v84 f+=27
$EF $73 $DC $DC @37 (!0,0) v144 y7 $EE $06 g=52
r8 $EF $CE $DC $DC @31 $ED $80 $7F v123 y10 $EE $00 f+8
$EF $C7 $DC $DC @32 (!1,-1) (!6,3) v89 < c=52
@30 (!0,0) (!1,-1) (!33,3) v118 y7 $EE $D8 a=23 $EF $62 $DC $DC @34 (!0,0) (!1,-1) (!6,3) v84 y10 > $EE $00 f+=51
@30 (!0,0) (!1,-1) (!34,3) v118 y7 $EE $D5 f+=23
r64 $EF $BE $DC $DC @34 (!0,0) (!1,-1) (!6,3) v84 y10 $EE $00 f+=52
$EF $A2 $DC $DC f+=76
@30 (!0,0) (!1,-1) (!33,3) v112 y7 < $EE $D8 g=23
$EF $69 $DC $DC @32 (!0,0) (!1,-1) (!6,3) v89 y10 < $EE $00 a+=51
@30 (!0,0) (!1,-1) (!35,3) v112 y7 >> $EE $DA f=23 r96
$EF $94 $DC $DC @34 (!0,0) (!1,-1) (!6,3) v84 y10 $EE $00 f+=103

@30 (!0,0) (!1,-1) (!33,3) v112 y7 $EE $DC e=23 r96 @33 (!0,0) (!1,-1) (!33,3) v96 y16 < $EE $3D g=33
r=17 @35 (!0,0) (!16,-1) (!10,3) v98 y6 > $EE $C4 e=23
r=27 $EF $8B $DC $DC @32 (!0,0) (!1,-1) (!6,3) v89 y10 << $EE $00 f=52
@30 (!0,0) (!1,-1) (!33,3) v118 y7 >> $EE $D8 c=23
@34 (!0,0) (!1,-1) (!6,3) v84 y10 $EE $00 f+=52
@30 (!0,0) (!1,-1) (!33,3) v118 y7 < $EE $DC d=23 r64 $EF $D4 $DC $DC @34 (!0,0) (!1,-1) (!6,3) v84 y10 > $EE $00 f+=53

$EF $ED $DC $DC @37 (!0,0) v144 y7 a=51
$EF $DF $DC $DC (!1,-1) (!1,3) v127 b96 r8...
v122 $EE $06 g=52
r=25 @38 (!0,0) v123 y10 $EE $87 f=13 r=116


@35 (!16,-1) (!10,3) v101 y7 < $EE $C5 a=29 r16.
@39 (!0,0) v113 y10 > $EE $00 b=17 r32.. @30 (!1,-1) (!33,3) v94 y7 < $EE $D8 g=23
r96 @39 (!0,0) $ED $80 $7F v113 y10 > $EE $00 b=15 r32 @35 (!1,-1) (!10,3) v98 y6 < $EE $C3 g=19
r=35
@39 (!0,0) $ED $80 $7F v113 y10 > $EE $00 b12 r=15 @30 (!1,-1) (!36,3) v94 y7 $EE $DA f8
r16.. @32 (!0,0) (!1,-1) (!6,3) v97 y10 < $EE $00 c=52
@40 (!0,0) v113 > f+3

r16 $EF $3F $DC $DC @32 (!1,-1) (!6,3) v97 << g=26 @30 (!0,0) (!1,-1) (!37,3) v94 y7 > $EE $D8 a8
@32 (!0,0) v97 y10 < $EE $00 g3
r16 @39 $ED $80 $7F v113 >> b=15
r=35 @32 (!1,-1) (!6,3) v97 << g=53

@33 (!0,0) (!1,-1) (!38,3) v111 y15 >> $EE $42 c12.. r=19
@35 (!0,0) (!16,-1) (!10,3) v92 y7 < $EE $C3 g16 r=17 @30 (!0,0) (!1,-1) (!6,3) v94 > $EE $D9 d8
< $EE $D8 g=7 $EF $FD $DC $DC > $EE $DA f=23 $EF $FB $DC $DC (!1,3) $EE $D9 d96 r=20
(!33,3) < $EE $D8 g=23 r96 @39 (!0,0) $ED $80 $7F v113 y10 > $EE $00 b=15
r=13 @30 (!1,-1) (!39,3) v94 y7 $EE $D9 d8 r48 (!6,3) $EE $DA f16...
$EF $EF $DC $DC $EE $D9 d8 < $EE $D8 g+32 (!1,3) > $EE $DA f96
r=20 $EF $DD $DC $DC (!40,3) $EE $D9 d8 r=49
$EF $DB $DC $DC (!33,3) < $EE $D8 a8
@39 (!0,0) $ED $80 $7F v113 y10 > $EE $00 b=15 r32. $EF $FB $DC $DC @32 (!1,-1) (!6,3) v97 << g=26
@30 (!0,0) (!1,-1) (!41,3) v94 y7 > $EE $D8 g8 r96
@32 (!0,0) (!1,-1) (!6,3) v97 y10 $EE $00 c=51
$EF $DE $DC $DC @40 (!0,0) (!1,-1) (!6,3) v113 > f+=29 @30 (!0,0) (!1,-1) (!33,3) v94 y7 $EE $D9 d8
$EF $DD $DC $DC (!6,3) d8 (!33,3) < $EE $E3 c=23
r=27 @34 (!0,0) (!1,-1) (!6,3) v84 y10 > $EE $00 f+=76

@30 (!0,0) (!1,-1) (!42,3) v94 y7 < $EE $E3 c8 r96 $EF $55 $DC $DC @32 (!0,0) v89 y10 $EE $00 f3

r16 g+=63
r16
@35 (!1,-1) (!10,3) v98 y6 < $EE $C5 a+1^=110





r=26 @34 (!0,0) (!1,-1) (!6,3) v84 y10 >> $EE $00 f+=52
@30 (!0,0) (!1,-1) (!33,3) v94 y7 < $EE $D8 a=23
$EF $D9 $DC $DC @32 (!0,0) (!1,-1) (!6,3) v89 y10 $EE $00 d+=51
@30 (!0,0) (!1,-1) (!43,3) v94 y7 $EE $E3 c=23 r64
$EF $C4 $DC $DC @34 (!0,0) (!1,-1) (!6,3) v84 y10 > $EE $00 f+=52
@30 (!0,0) (!1,-1) (!33,3) v94 y7 < $EE $D8 a=23 $EF $B8 $DC $DC @34 (!0,0) (!1,-1) (!6,3) v84 y10 > $EE $00 f+=102

@30 (!0,0) (!1,-1) (!44,3) v94 y7 < $EE $E3 c8
r96 $EF $92 $DC $DC @36 (!0,0) v101 y10 > $EE $00 f+=29 r16..
$EF $95 $DC $DC @32 v89 < f=65
r16 @34 (!1,-1) (!6,3) v84 > f+=102


$EF $94 $DC $DC f+=77
@30 (!0,0) (!1,-1) (!33,3) v94 y7 < $EE $E3 c=23
@32 (!0,0) (!1,-1) (!6,3) v89 y10 $EE $00 d+=49
@35 (!0,0) (!1,-1) (!10,3) v98 y6 > $EE $C9 c+=55
r8 @30 (!0,0) (!1,-1) (!45,3) v94 y7 < $EE $D8 a=23
r96 @34 (!0,0) (!1,-1) (!6,3) v84 y10 > $EE $00 f+=52
$EF $F8 $DC $DC f+=51
@30 (!0,0) (!1,-1) (!1,3) v94 y7 < $EE $D8 g96 r16... $EF $9A $DC $DC @34 (!0,0) (!1,-1) (!6,3) v84 y10 > $EE $00 f+=76

@30 (!0,0) (!1,-1) (!46,3) v94 y7 < $EE $E3 c=23 r=26
(!47,3) c8
r64 $EF $DC $DC $DC @34 (!0,0) (!1,-1) (!6,3) v84 y10 > $EE $00 f+=51
@30 (!0,0) (!1,-1) (!33,3) v94 y7 < $EE $D8 a8 $EF $7E $DC $DC @31 (!0,0) (!1,-1) (!6,3) v123 y10 > $EE $00 f+16 $EF $EB $DC $DC @37 (!0,0) (!1,-1) (!6,3) v125 y7 $EE $FF b=40
@30 (!0,0) (!1,-1) (!48,3) v94 $EE $D8 c8
$EF $79 $DC $DC @32 (!0,0) (!1,-1) (!6,3) v89 y10 < $EE $00 f48 @37 (!0,0) (!1,-1) (!6,3) v127 y7 > $EE $FF b4
@30 (!0,0) (!1,-1) (!49,3) v94 < $EE $D9 f8 r96 @32 (!0,0) v89 y10 $EE $00 a+3

r=13 > c+=63
r32 @33 (!1,-1) (!33,3) v109 y15 < $EE $3D a+=74

r=20 $EF $6F $DC $DC @37 (!0,0) (!1,-1) (!6,3) v104 y7 > $EE $03 a+=39
@30 (!0,0) (!1,-1) (!33,3) v94 $EE $D9 d=23
@31 (!0,0) v123 y10 $EE $00 f+8 $EF $FC $DC $DC @34 (!1,-1) (!6,3) v84 f+=26
@30 (!0,0) (!1,-1) (!50,3) v94 y7 $EE $D8 d+=23 r64 $EF $EE $DC $DC @34 (!0,0) (!1,-1) (!6,3) v84 y10 $EE $00 f+=51
@30 (!0,0) (!1,-1) (!51,3) v94 y7 < $EE $D9 f=23
r64 $EF $F3 $DC $DC @32 (!0,0) v89 y10 $EE $00 f3
r16 @31 v123 > f+8
@35 (!1,-1) (!10,3) v89 y6 $EE $C6 d+8 r=25
$EF $A7 $DC $DC v98 < $EE $C8 a+=35
r=44
$EF $EB $DC $DC @32 (!0,0) v89 y10 $EE $00 g+3
r32.. @35 (!1,-1) (!10,3) v98 y6 > $EE $C0 a+=61
r8..
$EF $ED $DC $DC v92 y7 g+12..
r16... $EF $75 $DC $DC @32 (!0,0) v89 y10 < $EE $00 f=65

r24 @35 (!1,-1) (!10,3) v93 y6 > $EE $C4 e12.. r16..
$EF $6F $DC $DC v86 $EE $C9 c+=23 r=33
$EF $66 $DC $DC @34 (!0,0) (!1,-1) (!6,3) v84 y10 $EE $00 f+=52
@30 (!0,0) (!1,-1) (!33,3) v94 y7 < $EE $D8 g=23
$EF $3F $DC $DC @32 (!0,0) (!1,-1) (!6,3) v89 y10 $EE $00 a+=52
$EF $76 $DC $DC @34 (!0,0) (!1,-1) (!6,3) v84 > f+=51
@30 (!0,0) (!1,-1) (!52,3) v94 y7 $EE $DA f8 (!53,3) $EE $DC e=23
r64 (!54,3) < $EE $D8 g8 (!27,3) g=23
r48 $EF $73 $DC $DC @32 (!0,0) v89 y10 $EE $00 a+3
r32 @35 (!1,-1) (!10,3) v101 y6 > $EE $C9 c+=53
r16...
$EF $AF $DC $DC v98 c+=49
r=34
@36 (!0,0) v110 y10 $EE $00 f+=29 r64 @35 (!1,-1) (!10,3) v101 y7 < $EE $C4 g+=19
r=25 $EF $AF $DC $DC @32 (!0,0) v89 y10 $EE $00 f3

r16 $EF $AF $DC $DC (!1,-1) (!6,3) c=50
@30 (!0,0) (!1,-1) (!55,3) v94 y7 $EE $E3 c=23 r64 @32 (!0,0) v89 y10 $EE $00 f3

r32. @35 (!1,-1) (!10,3) v98 y6 > $EE $C9 c+12.. r=20
$EF $B5 $DC $DC v86 $EE $C4 e6
r16.. e6
r16... $EF $6F $DC $DC @32 (!0,0) (!1,-1) (!6,3) v89 y10 < $EE $00 c=51
@30 (!0,0) (!1,-1) (!33,3) v94 y7 $EE $E3 c8
@31 (!0,0) v123 y10 > $EE $00 f+8 $EF $0E $DC $DC @34 (!1,-1) (!6,3) v84 f+=51
@30 (!0,0) (!1,-1) (!56,3) v94 y7 < $EE $D8 a=23
r48 $EF $FE $DC $DC @34 (!0,0) (!1,-1) (!6,3) v84 y10 > $EE $00 f+4
@37 (!0,0) (!1,-1) (!6,3) v118 y7 < $EE $07 a+=5 $EF $FF $DC $DC @32 (!0,0) (!1,-1) (!1,3) v89 y10 $EE $00 a+96 r16... $EF $FE $DC $DC @39 (!0,0) $ED $80 $7F v113 > b=15
r32.. @37 (!1,-1) (!6,3) v106 y7 < $EE $07 a+=26 > c=25
< $EE $0C g=25 $EE $07 a+=25
> c=26
$EF $DE $DC $DC @39 (!0,0) v113 y10 $EE $00 b=15 r32.. @37 (!1,-1) (!6,3) v106 y7 < $EE $0C g=26
> $EE $07 c=25 < $EE $0C g=26
$EE $07 a+=25 @40 (!0,0) (!1,-1) (!6,3) v113 y10 > $EE $00 f+=26
@39 (!0,0) $ED $80 $7F b24.. r32.. @37 (!1,-1) (!6,3) v106 y7 < $EE $0C g+48 $EF $FB $DC $DC @35 (!0,0) (!16,-1) (!10,3) v101 > $EE $C3 f1^8....




r8.
@33 (!0,0) (!1,-1) (!57,3) v96 y16 > $EE $35 c=23
r=23 (!58,3) v111 y15 < $EE $37 a=31
r16.. @35 (!0,0) (!16,-1) (!10,3) v86 y6 $EE $C0 g16...
r=29 v93 g+=23
r8 v92 y7 $EE $C3 f6
r16... $EE $C0 g12...
r=23 @37 (!0,0) (!1,-1) (!6,3) v106 < $EE $0C g=26
$EE $05 a=25 $EE $0C g=26
$EE $07 e=25 $EE $05 a=26
$EF $7E $DC $DC @38 (!0,0) $ED $80 $02 v113 y10 $EE $87 b48 @35 (!16,-1) (!10,3) v98 y6 > $EE $C0 g8
r16... @39 (!0,0) v113 y10 $EE $00 b=15 r32..
$EF $AC $DC $DC @38 < $EE $87 d+12.. r=19
$EF $3F $DC $DC @33 (!1,-1) (!59,3) v96 y16 $EE $3D a+=25 r12...
@34 (!0,0) (!16,-1) (!6,3) v84 y10 > $EE $00 f+=51
@30 (!0,0) (!1,-1) (!60,3) v110 y7 < $EE $D8 g=23 r96 $EF $DB $DC $DC @32 (!0,0) (!1,-1) (!6,3) v89 y10 $EE $00 c=26
@30 (!0,0) (!1,-1) (!61,3) v110 y7 > $EE $DC e8 r96 $EF $9E $DC $DC @31 (!0,0) v123 y10 $EE $00 f+8
r=26 $EF $4F $DC $DC @32 (!1,-1) (!6,3) v89 < c=26
@30 (!0,0) (!1,-1) (!59,3) v110 y7 $EE $D8 g=23 r96 $EF $7F $DC $DC @32 (!0,0) (!1,-1) (!6,3) v89 y10 < $EE $00 a+=51

@34 (!0,0) (!1,-1) (!6,3) v84 >> f+=52
@30 (!0,0) (!1,-1) (!62,3) v110 y7 < $EE $D8 g=23 @31 (!0,0) v123 y10 > $EE $00 f+8
r=25 @37 v118 y7 $EE $FF b=52
@34 (!16,-1) (!6,3) v84 y10 $EE $00 f+=52
@30 (!0,0) (!1,-1) (!63,3) v110 y7 < $EE $D8 g=23
$EF $DF $DC $DC @32 (!0,0) (!1,-1) (!6,3) v89 y10 < $EE $00 a+=52
$EF $C6 $DC $DC @34 (!0,0) (!1,-1) (!6,3) v84 >> f+=76
f+=76

@31 (!0,0) v123 f+8
$EF $4C $DC $DC @34 (!1,-1) (!6,3) v84 f+=52
@30 (!0,0) (!1,-1) (!59,3) v110 y7 < $EE $D8 g=23 @34 (!0,0) (!1,-1) (!6,3) v84 y10 > $EE $00 f+=52
$EF $F7 $DC $DC @32 (!0,0) (!1,-1) (!6,3) v89 < c=51
@30 (!0,0) (!1,-1) (!64,3) v110 y7 $EE $D8 g=23
r96 @31 (!0,0) v123 y10 > $EE $00 f+8 r48 $EF $CB $DC $DC @37 (!1,-1) (!6,3) v120 y7 > $EE $FE c+=49
@30 (!0,0) (!1,-1) (!59,3) v110 < $EE $DA f=23
$EF $6E $DC $DC @34 (!0,0) (!1,-1) (!6,3) v84 y10 $EE $00 f+=53
@36 (!0,0) v110 f+12...
r24 $EF $7F $DC $DC @37 (!1,-1) (!6,3) v127 y7 > $EE $FB e=38
@31 (!0,0) $ED $80 $7F v123 y10 < $EE $00 f+8 $EF $26 $DC $DC @34 (!16,-1) (!6,3) v84 f+=52
@30 (!0,0) (!1,-1) (!59,3) v110 y7 < $EE $E3 c=23
$EF $3F $DC $DC @32 (!0,0) (!1,-1) (!6,3) v89 y10 $EE $00 f=52
$EF $CE $DC $DC @34 (!0,0) (!1,-1) (!6,3) v84 > f+=53
$EF $37 $DC $DC @37 (!0,0) v144 y7 > $EE $FB e=51
r=20 $EF $F3 $DC $DC (!1,-1) (!6,3) v133 $EE $FE c+=29
@30 (!0,0) (!1,-1) (!59,3) v110 << $EE $E3 c=23 $EF $BE $DC $DC @34 (!0,0) (!1,-1) (!6,3) v84 y10 > $EE $00 f+=26
r96 @30 (!0,0) (!1,-1) (!59,3) v110 y7 < $EE $D8 g=23 @31 (!0,0) v123 y10 > $EE $00 f+=25
r48 @37 (!1,-1) (!6,3) v135 y7 > $EE $F7 g=47
$EF $8F $DC $DC v118 g=52
$EF $4F $DC $DC @32 (!0,0) (!1,-1) (!6,3) v89 y10 << $EE $00 f=27
@30 (!0,0) (!1,-1) (!59,3) v110 y7 $EE $E3 c=23 @34 (!0,0) (!1,-1) (!6,3) v84 y10 > $EE $00 f+=52
@31 (!0,0) v123 f+8
$EF $52 $DC $DC @34 (!1,-1) (!6,3) v84 f+=51
@30 (!0,0) (!1,-1) (!65,3) v110 y7 $EE $DC e=23 r96 $EF $3F $DC $DC @32 (!0,0) (!1,-1) (!6,3) v89 y10 < $EE $00 c=52
$EF $6E $DC $DC @34 (!0,0) (!1,-1) (!6,3) v84 > f+=51
@30 (!0,0) (!1,-1) (!59,3) v110 y7 $EE $DA f=23
r96 $EF $B6 $DC $DC @36 (!0,0) y10 $EE $00 f+=29
r=20 $EF $73 $DC $DC @37 (!1,-1) (!6,3) v127 y7 $EE $06 f12..
@30 (!0,0) (!1,-1) (!66,3) v110 < $EE $D8 g=23 $EF $3E $DC $DC @34 (!0,0) (!1,-1) (!6,3) v84 y10 > $EE $00 f+=52
f+=76

@30 (!0,0) (!1,-1) (!59,3) v110 y7 < $EE $D8 g=23 @37 (!0,0) (!1,-1) (!6,3) v125 > $EE $08 d=51
@30 (!0,0) (!1,-1) (!67,3) v110 < $EE $D8 g=23
r48 @32 (!0,0) (!1,-1) (!6,3) v89 y10 < $EE $00 a+=52
@31 (!0,0) v123 >> f+=23 r=26
$EF $63 $DC $DC @32 (!1,-1) (!6,3) v89 < g=26 @30 (!0,0) (!1,-1) (!59,3) v110 y7 $EE $D8 b=23
r96 @32 (!0,0) (!1,-1) (!6,3) v89 y10 $EE $00 g=51
@30 (!0,0) (!1,-1) (!43,3) v110 y7 $EE $DC d=23 $EF $2A $DC $DC @34 (!0,0) (!1,-1) (!6,3) v84 y10 > $EE $00 f+=52

@30 (!0,0) (!1,-1) (!59,3) v110 y7 < $EE $DC d=23 r96 $EF $DB $DC $DC @32 (!0,0) (!1,-1) (!6,3) v89 y10 $EE $00 f=27
@30 (!0,0) (!1,-1) (!59,3) v110 y7 $EE $D8 b=23 r96 @32 (!0,0) v89 y10 $EE $00 f3

r=13 $EF $AB $DC $DC @37 v137 y7 > a=52
r8 @32 v89 y10 < f3

r16 $EF $97 $DC $DC (!1,-1) (!6,3) c=51
@30 (!0,0) (!1,-1) (!68,3) v110 y7 $EE $D8 a=23 $EF $D5 $DC $DC @33 (!0,0) (!1,-1) (!59,3) v96 y16 $EE $3B c=33
r16.
@35 (!0,0) (!16,-1) (!10,3) v98 y6 > $EE $C1 a=23 r=27
$EF $8D $DC $DC @32 (!0,0) (!1,-1) (!6,3) v89 y10 < $EE $00 c=52
@30 (!0,0) (!1,-1) (!59,3) v110 y7 > $EE $DA f=23 @34 (!0,0) (!1,-1) (!6,3) v84 y10 $EE $00 f+=51
$EF $9E $DC $DC f+=26
@30 (!0,0) (!1,-1) (!69,3) v110 y7 < $EE $D8 g=23 r64 @32 (!0,0) (!1,-1) (!6,3) v89 y10 $EE $00 c=27
@33 (!0,0) v96 y16 < $EE $3D g1^=104





r32 @37 (!1,-1) (!6,3) v110 y7 $EE $06 d=26
$EE $03 f+=25 v112 f+=26
v118 f+=25 f+=25
v120 f+=26 v122 f+=26
v125 f+=25 f+=25
v127 f+=26 f+=25
v133 f+=25
v137 $EE $11 g+=51
g+=51
r=100

@36 (!0,0) $ED $80 $7F v110 y10 >> $EE $00 f+=29 r16..
f+=29 r32.
v106 f+12... r32. @37 (!1,-1) (!6,3) v127 y7 <<< $EE $21 a=26
>> $EE $04 c+=25 c+=26
c+=25 c+=25
c+=26
c+=25 c+=26
c+=25 c+=26
c+=25 $EF $FE $DC $DC @36 (!0,0) $ED $80 $7F v110 y10 > $EE $00 f+=29
r8...
(!16,-1) (!6,3) v106 f+24.. v101 f+=13 $EF $F8 $DC $DC v93 f+=29
r24 f+=29
r24 f+=29 r32.
f+=29 r32. f+12...
r24 v110 f+12...
r32 

#1 r=50
@30 (!1,-1) (!70,3) v94 y7 o4 $EE $DC d8 r=78

$EF $B5 $DC $DC @31 (!0,0) v123 y10 > $EE $00 f+8 r=76

@30 (!1,-1) (!71,3) v94 y7 $EE $D8 c8 r=78

(!3,3) < a8 r=76

$EF $D5 $DC $DC @31 (!0,0) v123 y10 > $EE $00 f+=25 r=77

@30 (!1,-1) (!3,3) v94 y7 $EE $D8 c8
r=77
(!72,3) < $EE $DC d8
r=52
@32 (!0,0) v89 y10 < $EE $00 g=65
r16 @30 (!1,-1) (!3,3) v94 y7 >> $EE $D8 c8
r=26 (!73,3) < $EE $DC d8
r=77

(!74,3) d8 r=53
@32 (!0,0) v89 y10 < $EE $00 g3
r=11
@30 (!1,-1) (!75,3) v94 y7 >> $EE $D8 c8 r=52
(!76,3) < $EE $DC d8
r=27 $EF $49 $DC $DC @34 (!0,0) (!1,-1) (!6,3) v84 y10 > $EE $00 f+=52
@30 (!0,0) (!1,-1) (!3,3) v94 y7 < $EE $D8 b=23
$EF $4F $DC $DC @32 (!0,0) (!1,-1) (!6,3) v89 y10 < $EE $00 f=52
@30 (!0,0) (!1,-1) (!77,3) v94 y7 > $EE $DC d=23 r96
$EF $51 $DC $DC @34 (!0,0) (!1,-1) (!6,3) v84 y10 > $EE $00 f+=52
@30 (!0,0) (!1,-1) (!3,3) v94 y7 < $EE $D8 b=23 r96 $EF $65 $DC $DC @34 (!0,0) (!1,-1) (!6,3) v84 y10 > $EE $00 f+6..
@33 (!0,0) (!1,-1) (!3,3) y15 $EE $39 a+8...
r=26
@31 (!0,0) $ED $80 $7F v123 y10 $EE $00 f+=23 $EF $10 $DC $DC @34 (!16,-1) (!6,3) v84 f+2^=33


@30 (!0,0) (!1,-1) (!3,3) v94 y7 < $EE $DC d=23 r96 $EF $95 $DC $DC @34 (!0,0) (!1,-1) (!6,3) v84 y10 > $EE $00 f+=53

@33 (!0,0) (!1,-1) (!3,3) v96 y16 > $EE $34 c+16 r8.
$EF $BB $DC $DC @30 (!0,0) (!1,-1) (!78,3) v94 y7 << $EE $DC d=23 r96 @35 (!0,0) (!1,-1) (!10,3) v86 y6 > $EE $C0 a+=69

r=31 $EE $C1 a=26
r=27 $EF $F6 $DC $DC @32 (!0,0) v89 y10 << $EE $00 a+3

r24 @35 (!1,-1) (!10,3) v93 y6 >> $EE $C0 g=50
r=29 $EF $57 $DC $DC @32 (!0,0) v89 y10 << $EE $00 d3

r=11 $EF $92 $DC $DC g=65
r16
$EF $28 $DC $DC @31 v123 >> f+=25 $EF $CC $DC $DC @34 (!1,-1) (!6,3) v84 f+=52
@30 (!0,0) (!1,-1) (!3,3) v94 y7 $EE $D9 d=23
r=27 @34 (!0,0) (!1,-1) (!6,3) v84 y10 $EE $00 f+=26
@30 (!0,0) (!1,-1) (!13,3) v94 y7 < $EE $D8 g=23 r12..
$EF $E1 $DC $DC @34 (!0,0) (!1,-1) (!6,3) v84 y10 > $EE $00 f+=77
@30 (!0,0) (!1,-1) (!1,3) v94 y7 $EE $DA f96 r16...
$EF $71 $DC $DC @36 (!0,0) v110 y10 $EE $00 f+=29
r16.. $EF $6D $DC $DC @34 (!1,-1) (!6,3) v84 f+=77

@30 (!0,0) (!1,-1) (!79,3) v94 y7 < $EE $D8 g8 r96 @33 (!0,0) (!1,-1) (!80,3) v102 y15 > $EE $39 a+=27
r16... (!81,3) v96 y16 > $EE $34 c+=13 r8.
(!3,3) v84 y15 $EE $35 c=31
r=19 @35 (!0,0) (!16,-1) (!10,3) v98 y6 < $EE $C0 g12..
r16.. v86 $EE $C3 f8
r12... $EF $69 $DC $DC @34 (!0,0) (!16,-1) (!6,3) v84 y10 $EE $00 f+=52
@30 (!0,0) (!1,-1) (!3,3) v94 y7 < $EE $DC d=23
r96 @32 (!0,0) (!1,-1) (!6,3) v89 y10 < $EE $00 f=51
$EF $3D $DC $DC @34 (!0,0) (!1,-1) (!6,3) v84 >> f+=77

$EF $2D $DC $DC (!1,3) f+96 r=73
@30 (!0,0) (!1,-1) (!3,3) v94 y7 < $EE $DC d=23
r=27 (!44,3) d8
$EF $51 $DC $DC @36 (!0,0) v101 y10 > $EE $00 f+12... r16..
$EF $13 $DC $DC @32 v89 << g=65
r16 $EF $0C $DC $DC @34 (!1,-1) (!6,3) v84 >> f+=102


@30 (!0,0) (!1,-1) (!82,3) v104 y7 $EE $DC e=23 r96 $EF $2D $DC $DC @34 (!0,0) (!1,-1) (!6,3) v84 y10 $EE $00 f+=52
@30 (!0,0) (!1,-1) (!3,3) v104 y7 < $EE $D8 a=23
r96 $EF $3F $DC $DC @32 (!0,0) (!1,-1) (!6,3) v89 y10 $EE $00 c=51
$EF $3D $DC $DC @34 (!0,0) (!1,-1) (!6,3) v84 > f+=76
$EF $BD $DC $DC f+=77

(!1,3) f+96 r=47
@30 (!0,0) (!1,-1) (!3,3) v94 y7 < $EE $D8 g8 r96 @36 (!0,0) v101 y10 > $EE $00 f+=29
r32 @33 (!1,-1) (!3,3) v96 y16 $EE $3C f16.
r16.. @32 (!0,0) v89 y10 < $EE $00 c3
r=5 @33 (!1,-1) (!3,3) v96 y16 > $EE $3A g=26
r=17 (!83,3) $EE $42 d=29
r8.
@34 (!0,0) (!16,-1) (!6,3) v84 y10 $EE $00 f+=52
@30 (!0,0) (!1,-1) (!84,3) v104 y7 < $EE $DC d=23 r96 $EF $6F $DC $DC @32 (!0,0) (!1,-1) (!6,3) v89 y10 < $EE $00 f=26
@30 (!0,0) (!1,-1) (!85,3) v104 y7 > $EE $D8 b=23 r64 $EF $77 $DC $DC @32 (!0,0) (!1,-1) (!6,3) v89 y10 < $EE $00 g=51
@30 (!0,0) (!1,-1) (!1,3) v104 y7 >> $EE $D8 c96 r16...
(!3,3) < b=23 r96 $EF $74 $DC $DC @34 (!0,0) (!1,-1) (!6,3) v84 y10 > $EE $00 f+=51

@30 (!0,0) (!1,-1) (!86,3) v104 y7 < $EE $DC d16. r6
$EF $7D $DC $DC @36 (!0,0) v110 y10 > $EE $00 f+=29 r=40
@33 (!1,-1) (!3,3) v102 y15 $EE $42 d2^=73



r=15 $EF $6E $DC $DC (!87,3) v96 y16 < $EE $3D g=29 r16...
$EF $59 $DC $DC @34 (!0,0) (!16,-1) (!6,3) v84 y10 > $EE $00 f+6
$EF $6F $DC $DC @37 (!0,0) v133 y7 $EE $06 g=52
r=19 $EF $33 $DC $DC @32 v89 y10 << $EE $00 g3
r=11
$EF $5A $DC $DC a+3
r16 @35 (!1,-1) (!10,3) v98 y6 >> $EE $C4 e=33
r8..
$EF $6F $DC $DC @32 (!0,0) (!1,-1) (!6,3) v89 y10 << $EE $00 d=51
@30 (!0,0) (!1,-1) (!88,3) v110 y7 > $EE $D8 b=23 r64 @31 (!0,0) v123 y10 > $EE $00 f+8
r=26 @34 (!1,-1) (!6,3) v84 f+=102


$EF $6D $DC $DC f+=77
$EF $E9 $DC $DC f+=51
@30 (!0,0) (!1,-1) (!3,3) v110 y7 < $EE $D8 b=23
r96 $EF $AA $DC $DC @32 (!0,0) v89 y10 < $EE $00 g3
r=11 $EF $0F $DC $DC a+3

r=13 @37 (!1,-1) (!6,3) v147 y7 >> $EE $FF b=51
@30 (!0,0) (!1,-1) (!3,3) v110 < $EE $DC d=23 $EF $3F $DC $DC @32 (!0,0) (!1,-1) (!6,3) v89 y10 < $EE $00 d=51
@30 (!0,0) (!1,-1) (!89,3) v110 y7 > $EE $DC d=23
r64 @32 (!0,0) v89 y10 < $EE $00 g3
r96 @37 (!1,-1) (!6,3) v125 y7 >> $EE $06 g=38
$EF $F6 $DC $DC v118 g4
@32 (!0,0) v89 y10 < $EE $00 c3

r16 $EF $EB $DC $DC (!1,-1) (!6,3) < g=51
@30 (!0,0) (!1,-1) (!90,3) v110 y7 > $EE $D8 g=23 r64 @32 (!0,0) v89 y10 $EE $00 c3

r16 d+3
r=11
@35 (!1,-1) (!10,3) v98 y6 > $EE $C6 d+=33 r16...
$EF $6E $DC $DC @37 (!0,0) (!1,-1) (!6,3) v144 y7 $EE $FF b16... @30 (!0,0) (!1,-1) (!3,3) v110 < $EE $D8 g=23
r48 @37 (!0,0) (!1,-1) (!6,3) v135 >> $EE $FE d8....
v118 d=26 v133 c+=51
r96 $EF $A9 $DC $DC @36 (!0,0) $ED $80 $7F v110 y10 < $EE $00 f+=29
r=19 $EF $CF $DC $DC @37 (!1,-1) (!1,3) v144 y7 a96 r=25
@30 (!0,0) (!1,-1) (!3,3) v110 < $EE $DC d=23 $EF $15 $DC $DC @34 (!0,0) (!1,-1) (!6,3) v84 y10 > $EE $00 f+=52
@30 (!0,0) (!1,-1) (!3,3) v110 y7 < $EE $D8 b=23
r96 $EF $3F $DC $DC @32 (!0,0) (!1,-1) (!6,3) v89 y10 < $EE $00 f=51
$EF $14 $DC $DC @34 (!0,0) (!1,-1) (!6,3) v84 >> f+=77

@30 (!0,0) (!1,-1) (!3,3) v110 y7 < $EE $DC d=23 > $EE $D8 c8
r64 $EF $5C $DC $DC @34 (!0,0) (!1,-1) (!6,3) v84 y10 $EE $00 f+=27 @30 (!0,0) (!1,-1) (!3,3) v110 y7 < $EE $D8 a=23
r=27 @35 (!0,0) (!1,-1) (!10,3) v98 y6 > $EE $C4 e=23
r=27 $EF $0E $DC $DC @32 (!0,0) (!1,-1) (!6,3) v89 y10 << $EE $00 f=52
@30 (!0,0) (!1,-1) (!3,3) v110 y7 >> $EE $D8 c=23
$EF $A8 $DC $DC @34 (!0,0) (!1,-1) (!6,3) v84 y10 $EE $00 f+=55
@37 (!0,0) v125 y7 $EE $08 d=52
r16..
$EF $FA $DC $DC @35 (!16,-1) (!10,3) v98 y6 $EE $C4 d1^4.




r=40
$EF $3E $DC $DC @37 (!0,0) v137 y7 $EE $04 f+=51
r8 $EF $2F $DC $DC @32 (!1,-1) (!6,3) v89 y10 << $EE $00 g=51
@30 (!0,0) (!1,-1) (!91,3) v112 y7 >> $EE $DC e=23
r96 $EF $79 $DC $DC @31 (!0,0) v123 y10 $EE $00 f+8 r=26
@30 (!1,-1) (!92,3) v112 y7 < $EE $D8 g8
r64 @34 (!0,0) (!1,-1) (!6,3) v84 y10 > $EE $00 f+=77
$EF $D5 $DC $DC f+=51
@30 (!0,0) (!1,-1) (!72,3) v118 y7 < $EE $DC d=23
@31 (!0,0) v123 y10 > $EE $00 f+8 r=26
$EF $8A $DC $DC @32 v89 << g=65
r16 $EF $B9 $DC $DC @34 (!1,-1) (!6,3) v84 >> f+=52
$EF $BE $DC $DC @30 (!0,0) (!1,-1) (!1,3) v118 y7 < $EE $DC d96
r16... @34 (!0,0) (!1,-1) (!6,3) v84 y10 > $EE $00 f+=102

@30 (!0,0) (!1,-1) (!33,3) v125 y7 < $EE $D8 g+=49
r96 @31 (!0,0) v120 y10 > $EE $00 f+8
r=76
$EF $94 $DC $DC @38 $ED $80 $7F v123 < $EE $87 d+=26
@36 v93 > $EE $00 f+=29 r16..
@32 v97 < c=65
r16 @35 (!1,-1) (!10,3) v105 y6 $EE $C5 a12...
r=19 @32 (!0,0) v97 y10 $EE $00 c=65

r24 @35 (!1,-1) (!10,3) v98 y6 $EE $C3 g=19 r=33
> $EE $C4 c16.. r12...
v93 $EE $C6 d+16...
r=31 @39 (!0,0) $ED $80 $7F v113 y10 $EE $00 b=15
r=35 @32 (!1,-1) (!6,3) v97 << g=52
@30 (!0,0) (!1,-1) (!33,3) v94 y7 > $EE $D8 a8
@39 (!0,0) $ED $80 $7F v113 y10 > $EE $00 b=17 r=41
$EF $77 $DC $DC @30 (!1,-1) (!33,3) v94 y7 $EE $DA f8
f8 f8
r64 (!93,3) f8 r=20
(!78,3) < $EE $D8 g8 r64 @32 (!0,0) (!1,-1) (!6,3) v97 y10 $EE $00 c=26
$EF $FF $DC $DC c=26 @39 (!0,0) (!16,-1) (!16,3) v113 > b96 r64 @30 (!0,0) (!1,-1) (!33,3) v94 y7 $EE $DA f8
r=19 @35 (!0,0) (!1,-1) (!10,3) v86 y6 $EE $C4 c=17
r=31 v92 y7 < $EE $C5 a=25
r=27 v93 y6 > $EE $C4 d=27
r=25 @39 (!0,0) $ED $80 $7F v113 y10 $EE $00 b12
r=41
$EF $DE $DC $DC @30 (!1,-1) (!33,3) v94 y7 $EE $DA f8 r96 (!1,3) f96 r16...
(!33,3) f8 r96 (!94,3) f8
(!95,3) f=50
r96 (!96,3) f48 r=15 (!33,3) < $EE $D8 g8
r96 @32 (!0,0) (!1,-1) (!6,3) v97 y10 $EE $00 c=26 $EF $54 $DC $DC @34 (!0,0) (!1,-1) (!6,3) v84 > f+=76

@30 (!0,0) (!1,-1) (!65,3) v94 y7 < $EE $E3 c=23 $EF $5B $DC $DC @32 (!0,0) (!1,-1) (!6,3) v89 y10 $EE $00 d+=52
@30 (!0,0) (!1,-1) (!33,3) v94 y7 $EE $E3 c=23
r96 $EF $31 $DC $DC @34 (!0,0) (!1,-1) (!6,3) v84 y10 > $EE $00 f+=51
@30 (!0,0) (!1,-1) (!33,3) v94 y7 < $EE $D8 a=23 r64 $EF $91 $DC $DC @34 (!0,0) (!1,-1) (!6,3) v84 y10 > $EE $00 f+=101


@30 (!0,0) (!1,-1) (!97,3) v94 y7 < $EE $D8 g8 r96 $EF $35 $DC $DC @31 (!0,0) v123 y10 > $EE $00 f+8
$EF $2F $DC $DC @32 (!1,-1) (!6,3) v89 < d+=53
@30 (!0,0) (!1,-1) (!33,3) v94 y7 $EE $E3 c=23 $EF $D9 $DC $DC @34 (!0,0) (!1,-1) (!6,3) v84 y10 > $EE $00 f+=128


@31 (!0,0) v123 f+8 r=26
$EF $D5 $DC $DC @34 (!1,-1) (!6,3) v84 f+=77
@30 (!0,0) (!1,-1) (!98,3) v94 y7 < $EE $E3 c=23
r96 @31 (!0,0) v123 y10 > $EE $00 f+8
r=26 @30 (!1,-1) (!99,3) v94 y7 < $EE $E3 c8
r96 $EF $C5 $DC $DC @31 (!0,0) v123 y10 > $EE $00 f+8 @30 (!1,-1) (!33,3) v94 y7 < $EE $D7 a+8
r96 $EE $E3 c8 $EF $95 $DC $DC @34 (!0,0) (!1,-1) (!6,3) v84 y10 > $EE $00 f+=77

@30 (!0,0) (!1,-1) (!100,3) v94 y7 < $EE $E3 c=23 r96 $EF $97 $DC $DC @32 (!0,0) (!1,-1) (!6,3) v89 y10 $EE $00 d+=52
@30 (!0,0) (!1,-1) (!33,3) v94 y7 $EE $E3 c=23
$EF $F8 $DC $DC @34 (!0,0) (!1,-1) (!6,3) v84 y10 > $EE $00 f+=128

@31 (!0,0) v123 f+8
r=27
$EF $ED $DC $DC @34 (!1,-1) (!6,3) v84 f+=76
f+=26
@30 (!0,0) (!1,-1) (!33,3) v94 y7 < $EE $E3 c=23 r=27
@35 (!0,0) (!1,-1) (!10,3) v89 y6 $EE $C8 a+4
r12.. @37 (!0,0) (!1,-1) (!6,3) v133 y7 > $EE $FF b=27
@30 (!0,0) (!1,-1) (!33,3) v94 < $EE $D8 g=23 $EF $C9 $DC $DC @34 (!0,0) (!1,-1) (!6,3) v84 y10 > $EE $00 f+=52
@30 (!0,0) (!1,-1) (!33,3) v94 y7 < $EE $D8 a=23
r96 $EF $98 $DC $DC @34 (!0,0) (!1,-1) (!6,3) v84 y10 > $EE $00 f+=51
@30 (!0,0) (!1,-1) (!46,3) v94 y7 < $EE $D7 a+=23 r=27
(!47,3) a+8
r96 (!33,3) $EE $E3 c=23 r96 @34 (!0,0) (!1,-1) (!6,3) v84 y10 > $EE $00 f+=52
@30 (!0,0) (!1,-1) (!33,3) v94 y7 < $EE $D9 f=23
r=5 @37 (!0,0) (!1,-1) (!6,3) v118 > $EE $06 g4
$EF $FD $DC $DC @34 (!0,0) (!16,-1) (!6,3) v84 y10 $EE $00 f+=51
$EF $CD $DC $DC (!16,3) f+96 r8 $EF $F3 $DC $DC @33 (!0,0) (!1,-1) (!33,3) v102 y15 < $EE $3D a+8....
r=29
@31 (!0,0) $ED $80 $7F v123 y10 > $EE $00 f+8 @30 (!1,-1) (!101,3) v94 y7 $EE $D8 d+8
(!102,3) < $EE $D9 f8 r96 $EF $7B $DC $DC @32 (!0,0) v89 y10 $EE $00 a+3

r=7 @37 (!1,-1) (!6,3) v120 y7 > $EE $03 a+32 @30 (!0,0) (!1,-1) (!6,3) v94 $EE $D9 d=5 @37 (!0,0) (!1,-1) (!1,3) v125 $EE $FF b96 r12
v120 $EE $06 g=52
(!6,3) v127 > $EE $FE c=51
$EF $E9 $DC $DC @34 (!0,0) (!16,-1) (!6,3) v84 y10 < $EE $00 f+=26 @30 (!0,0) (!1,-1) (!103,3) v94 y7 $EE $D9 d=23
r64 $EF $EC $DC $DC @34 (!0,0) (!1,-1) (!6,3) v84 y10 $EE $00 f+=26 @30 (!0,0) (!1,-1) (!1,3) v94 y7 $EE $D9 d96 r=23
@31 (!0,0) v123 y10 $EE $00 f+8 r=23
$EF $AE $DC $DC @37 (!1,-1) (!1,3) v144 y7 $EE $06 g96 r=27 @35 (!0,0) (!16,-1) (!10,3) v98 y6 $EE $C4 e8
r=25 @32 (!0,0) (!1,-1) (!6,3) v89 y10 < $EE $00 f=26
@30 (!0,0) (!1,-1) (!104,3) v94 y7 $EE $E3 c=23 r=27
@34 (!0,0) (!1,-1) (!6,3) v84 y10 > $EE $00 f+=27
@30 (!0,0) (!1,-1) (!33,3) v94 y7 < $EE $D8 a=23 @35 (!0,0) (!1,-1) (!10,3) v89 y6 > $EE $C0 g+=26
r=25 @31 (!0,0) v123 y10 $EE $00 f+8
r=26 @34 (!1,-1) (!6,3) v84 f+=27
$EF $EB $DC $DC @35 (!0,0) (!1,-1) (!10,3) v92 y7 $EE $C3 f=31 r=19
$EF $79 $DC $DC @34 (!0,0) (!1,-1) (!6,3) v84 y10 $EE $00 f+=27 @30 (!0,0) (!1,-1) (!33,3) v94 y7 < $EE $D7 a+=23
$EF $C1 $DC $DC @34 (!0,0) (!1,-1) (!6,3) v84 y10 > $EE $00 f+=52
@30 (!0,0) (!1,-1) (!33,3) v94 y7 < $EE $D8 a=23 r96 (!105,3) $EE $D7 a+8
(!23,3) $EE $D8 a8 r96 @32 (!0,0) v89 y10 > $EE $00 c3

r16 $EF $B7 $DC $DC (!1,-1) (!6,3) < g=51
@30 (!0,0) (!1,-1) (!33,3) v94 y7 $EE $D8 g8
$EF $77 $DC $DC @32 (!0,0) v89 y10 > $EE $00 c=65
r32. @35 (!1,-1) (!10,3) y6 $EE $C6 d+=44
r8.
@33 (!0,0) v96 y16 < $EE $3D a+1^=104





r64 @35 (!16,-1) (!10,3) v98 y6 $EE $C4 g+=53
r12..
$EF $75 $DC $DC @31 (!0,0) $ED $80 $7F v123 y10 > $EE $00 f+8 @32 (!1,-1) (!6,3) v89 < d+=52
$EF $75 $DC $DC @34 (!0,0) (!1,-1) (!6,3) v84 > f+=51
@30 (!0,0) (!1,-1) (!33,3) v94 y7 < $EE $D7 a+=23
r96 (!6,3) $EE $D8 a=20 @35 (!0,0) (!1,-1) (!10,3) v86 y6 > $EE $C6 d+=29
r=27
@31 (!0,0) v123 y10 $EE $00 f+8 @34 (!1,-1) (!6,3) v84 f+=52
@30 (!0,0) (!1,-1) (!33,3) v94 y7 < $EE $E3 c=23
@32 (!0,0) (!1,-1) (!6,3) v89 y10 $EE $00 d+=47
@35 (!0,0) (!1,-1) (!10,3) v93 y6 >> $EE $BA d+=27 r=19
$EF $0F $DC $DC v86 < $EE $C0 a+=29 r=25
$EF $76 $DC $DC v81 y7 > $EE $BA d+=26 r=27
$EF $F7 $DC $DC @37 (!0,0) (!1,-1) (!6,3) v112 < $EE $07 c32 @33 (!0,0) (!1,-1) (!106,3) v111 y15 $EE $42 d12... r=20
@37 (!0,0) (!1,-1) (!6,3) v106 y7 < $EE $0C g=27 > $EE $07 e=25
$EF $BF $DC $DC (!1,3) < a+96 r16... (!6,3) > c=26
e=51
$EF $7F $DC $DC (!1,3) < a+96 r=23
(!6,3) > e=25 < a+=27
(!1,3) > c96 r16... (!6,3) < a+=26
(!1,3) $EE $0C g+96 r16... $EF $7F $DC $DC (!6,3) > $EE $08 d=26
< $EE $07 a+=25 f=25
a+=26 a+=26
$EE $0C g+=26 (!1,3) $EE $07 a+96 r16...
(!6,3) a+=26 f=25
@39 (!0,0) v113 y10 > $EE $00 b=15 r32..
@33 (!1,-1) (!59,3) v102 y15 $EE $37 a12... r=17
@35 (!0,0) (!16,-1) (!10,3) v89 y6 $EE $C0 g16... r=29
v93 g+=23 r=27
@33 (!0,0) (!1,-1) (!59,3) v102 y15 $EE $37 a12.. r16..
(!107,3) v94 $EE $3A g=31 r16..
@35 (!0,0) (!16,-1) (!10,3) v98 y6 $EE $C0 g+12.. r=23
$EF $FF $DC $DC @33 (!0,0) (!1,-1) (!108,3) v102 y15 $EE $42 d2^=47


r16 $EF $7F $DC $DC @37 (!0,0) (!1,-1) (!6,3) v106 y7 < $EE $07 e16.. @33 (!0,0) (!1,-1) (!109,3) v94 y15 > $EE $3A g12...
r8
@40 (!0,0) v113 y10 $EE $00 f+=65
r24 @33 v102 y15 $EE $42 c1^=105





r32.. @35 (!16,-1) (!10,3) v98 y6 $EE $C1 a=33
r=19
a=23 r=27
$EF $5B $DC $DC @32 (!0,0) (!1,-1) (!6,3) v89 y10 < $EE $00 c=52
@30 (!0,0) (!1,-1) (!59,3) v110 y7 $EE $D8 g=23 r=27
$EF $92 $DC $DC @32 (!0,0) (!1,-1) (!6,3) v89 y10 $EE $00 c=27 @30 (!0,0) (!1,-1) (!110,3) v110 y7 > $EE $DC e=23
$EF $DD $DC $DC @34 (!0,0) (!1,-1) (!6,3) v84 y10 $EE $00 f+=52
@30 (!0,0) (!1,-1) (!59,3) v110 y7 < $EE $D8 g=23 @34 (!0,0) (!1,-1) (!6,3) v84 y10 > $EE $00 f+=52
@30 (!0,0) (!1,-1) (!59,3) v110 y7 < $EE $D8 g=23
r96 @34 (!0,0) (!1,-1) (!6,3) v84 y10 > $EE $00 f+=51
$EF $7C $DC $DC f+=51
@30 (!0,0) (!1,-1) (!111,3) v110 y7 $EE $DA f=23
r64 $EF $6C $DC $DC @36 (!0,0) y10 $EE $00 f+=29 r=19
$EF $BA $DC $DC @37 (!1,-1) (!1,3) v135 y7 $EE $FF b96 r=25 @30 (!0,0) (!1,-1) (!59,3) v110 $EE $D9 d=23
$EF $F5 $DC $DC @34 (!0,0) (!1,-1) (!6,3) v84 y10 $EE $00 f+=26 @30 (!0,0) (!1,-1) (!64,3) v110 y7 $EE $D9 d=23
r64 $EF $9C $DC $DC @36 (!0,0) v101 y10 $EE $00 f+=29 r16..
@32 (!1,-1) (!6,3) v89 < c=29 @37 (!0,0) (!1,-1) (!6,3) v147 y7 >> $EE $FB e=50
$EF $6C $DC $DC @34 (!0,0) (!16,-1) (!16,3) v84 y10 < $EE $00 f+96 r=23
@30 (!0,0) (!1,-1) (!59,3) v110 y7 $EE $DC e=23 r96 @32 (!0,0) (!1,-1) (!6,3) v89 y10 << $EE $00 a+=37
$EF $7E $DC $DC @37 (!0,0) (!1,-1) (!1,3) v125 y7 >> $EE $FF b96 r24..
$EF $F6 $DC $DC v144 > $EE $FB e=52
$EF $27 $DC $DC (!6,3) v140 e=26 $EF $AF $DC $DC v144 e=50
$EF $3E $DC $DC (!1,3) v137 e96 r=23
$EF $CF $DC $DC v140 $EE $F8 f+=51
r16.. $EF $67 $DC $DC @32 (!0,0) (!1,-1) (!6,3) v89 y10 << $EE $00 c=50
@30 (!0,0) (!1,-1) (!112,3) v110 y7 $EE $D8 a=23
r64 @35 (!0,0) (!1,-1) (!10,3) v98 y6 > $EE $C0 g+=33
r16.. $EF $3B $DC $DC @37 (!0,0) (!1,-1) (!6,3) v144 y7 > $EE $FB e16... @30 (!0,0) (!1,-1) (!59,3) v110 << $EE $E3 c=23
r12.. $EF $2F $DC $DC @37 (!0,0) (!1,-1) (!6,3) v133 >> $EE $F7 g+=26
@30 (!0,0) (!1,-1) (!113,3) v110 << $EE $D7 a+=23
@37 (!0,0) v133 >> $EE $F8 f+=52
$EF $EE $DC $DC @32 (!1,-1) (!6,3) v89 y10 << $EE $00 c=51
@30 (!0,0) (!1,-1) (!59,3) v110 y7 $EE $E3 c=23 r96 @35 (!0,0) (!1,-1) (!10,3) v98 y6 > $EE $C1 a=29
r=20 $EF $53 $DC $DC @32 (!0,0) (!1,-1) (!6,3) v89 y10 < $EE $00 c=31
$EF $BB $DC $DC @37 (!0,0) v133 y7 > a=52
r=19 $EF $2E $DC $DC v137 a=52
r8
@32 (!1,-1) (!6,3) v89 y10 << g=51
@30 (!0,0) (!1,-1) (!114,3) v110 y7 > $EE $D8 g=23 r96 $EF $F2 $DC $DC @33 (!0,0) (!1,-1) (!59,3) v96 y16 $EE $3B c=33
r16.
@35 (!0,0) (!16,-1) (!10,3) v98 y6 > $EE $C1 a=23 r=27
$EF $A2 $DC $DC @32 (!0,0) (!1,-1) (!6,3) v89 y10 < $EE $00 c=52
@30 (!0,0) (!1,-1) (!59,3) v110 y7 > $EE $DA f=23 r96 $EF $B5 $DC $DC @34 (!0,0) (!1,-1) (!6,3) v84 y10 $EE $00 f+=51
$EF $E9 $DC $DC f+=51
@30 (!0,0) (!1,-1) (!115,3) v110 y7 < $EE $D8 g=23
r64 @35 (!0,0) (!1,-1) (!10,3) v98 y6 > $EE $C0 g1^4.




r=20
g16. r=26
$EF $49 $DC $DC @34 (!0,0) (!1,-1) (!6,3) v84 y10 $EE $00 f+=52
@30 (!0,0) (!1,-1) (!116,3) v110 y7 < $EE $D8 a=23 $EF $0F $DC $DC @32 (!0,0) (!1,-1) (!6,3) v89 y10 $EE $00 f=52
@30 (!0,0) (!1,-1) (!59,3) v110 y7 $EE $D7 a+=23
$EF $89 $DC $DC @34 (!0,0) (!1,-1) (!6,3) v84 y10 > $EE $00 f+=52
@30 (!0,0) (!1,-1) (!59,3) v110 y7 < $EE $D8 a=23 r64 $EF $DF $DC $DC @32 (!0,0) (!1,-1) (!6,3) v89 y10 $EE $00 d+=51

@34 (!0,0) (!1,-1) (!6,3) v84 > f+=51
f+=27 @30 (!0,0) (!1,-1) (!1,3) v110 y7 < $EE $D8 g96 r=47
$EF $B4 $DC $DC @34 (!0,0) (!1,-1) (!6,3) v84 y10 > $EE $00 f+=78

@37 (!0,0) (!1,-1) (!1,3) v125 y7 $EE $06 f96 r16.. @30 (!0,0) (!1,-1) (!117,3) v110 < $EE $D8 g=23
@37 (!0,0) v125 > $EE $00 a=53
@30 (!1,-1) (!59,3) v110 < $EE $D8 a=23 r=27
v118 $EE $DC d8 r=26
(!118,3) d8 r=52

(!119,3) v125 $EE $D8 a8 r=27
(!59,3) $EE $DC d8 $EE $D8 a=23
r48 $EE $DC d=23 r96 @37 (!0,0) (!1,-1) (!6,3) v110 $EE $12 c=27
c=26 (!1,3) v112 c96 r=23
(!6,3) v118 c=26 (!1,3) c96 r16...
(!6,3) v120 c=27 (!1,3) v122 c96 r=23
(!6,3) v125 c=26 (!1,3) c96 r16..
(!6,3) v127 c=27 (!1,3) c96
r16... (!6,3) v133 c=26
v137 $EE $0C d=51
d=50
r1^32..



v127 < $EE $05 a=25 > $EE $04 c+=27
$EE $0C g=26 (!1,3) g96
r16... (!6,3) g=26
(!1,3) g96 r16... (!6,3) g=26
g=26 (!1,3) g96 r=23
(!6,3) g=26 (!1,3) g96 r=23
(!6,3) g=26 v135 g=51
r24 v127 << $EE $21 a=51

@36 (!0,0) $ED $80 $7F v106 y10 >>> $EE $00 f+12... r32. f+12...
r=7 f+12...
r24 f+=31
r24 f+12... @30 (!1,-1) (!120,3) v118 y7 $EE $D9 d8
r=7 

#2 @30 (!1,-1) (!2,3) v94 y7 o4 $EE $D8 a8 r=102

(!3,3) $EE $DC d8
r=76
$EF $BB $DC $DC @36 (!0,0) v110 y10 > $EE $00 f+12...
r=47
@30 (!1,-1) (!3,3) v94 y7 < $EE $DC d8 r=102

(!91,3) d8
r=78

$EF $DB $DC $DC @36 (!0,0) v110 y10 > $EE $00 f+12... r8....
$EF $FB $DC $DC @31 v123 f+8
r=51
@30 (!1,-1) (!121,3) v94 y7 < $EE $DC d=23 r12..
(!122,3) $EE $D8 b8 r=78

$EF $7B $DC $DC @31 (!0,0) v123 y10 > $EE $00 f+8 r=26
@30 (!1,-1) (!123,3) v94 y7 < $EE $D8 b8 r=78

$EF $BB $DC $DC @31 (!0,0) v123 y10 > $EE $00 f+=25
r=26 @30 (!1,-1) (!3,3) v94 y7 < $EE $D8 b8
r=76
@36 (!0,0) v110 y10 > $EE $00 f+12...
r=47
$EF $F3 $DC $DC @31 v123 f+=25 r=26
@30 (!1,-1) (!3,3) v94 y7 < $EE $DC d8 $EF $43 $DC $DC @36 (!0,0) v101 y10 > $EE $00 f+=31
r16.. $EF $4D $DC $DC @32 v89 << g3

r=11 $EF $61 $DC $DC @34 (!1,-1) (!6,3) v84 >> f+=103

@30 (!0,0) (!1,-1) (!3,3) v94 y7 < $EE $DC d=23
r96 $EF $53 $DC $DC @34 (!0,0) (!1,-1) (!6,3) v84 y10 > $EE $00 f+=51
@30 (!0,0) (!1,-1) (!124,3) v94 y7 < $EE $D8 b=23 r12..
$EF $C4 $DC $DC @32 (!0,0) v89 y10 < $EE $00 g3
r16 @34 (!1,-1) (!6,3) v84 >> f+=102


@30 (!0,0) (!1,-1) (!125,3) v94 y7 < $EE $D8 a=23 @34 (!0,0) (!1,-1) (!6,3) v84 y10 > $EE $00 f+=52
@30 (!0,0) (!1,-1) (!3,3) v94 y7 < $EE $D8 b8
r=27 $EE $DC d=23
r96 $EF $BF $DC $DC (!0,0) $ED $80 $00 > $EE $D8 c64 @35 (!1,-1) (!10,3) v86 y6 $EE $C0 a+=26 r16...
@30 (!0,0) (!1,-1) (!126,3) v94 y7 < $EE $DC d8 r96 $EF $FA $DC $DC @36 (!0,0) v110 y10 > $EE $00 f+=29
r=17 $EF $7F $DC $DC @33 (!1,-1) (!3,3) v92 y15 > $EE $35 c8
r=29 $EF $2B $DC $DC @34 (!0,0) (!16,-1) (!6,3) v84 y10 < $EE $00 f+=52
@30 (!0,0) (!1,-1) (!3,3) v94 y7 < $EE $DC d=23
$EF $87 $DC $DC @32 (!0,0) (!1,-1) (!6,3) v89 y10 < $EE $00 f=51
@30 (!0,0) (!1,-1) (!113,3) v94 y7 >> $EE $D8 c=23 r64
@34 (!0,0) (!1,-1) (!6,3) v84 y10 $EE $00 f+3.....

$EF $3F $DC $DC @33 (!0,0) (!1,-1) (!127,3) v96 y16 $EE $3A g=67

r=35 $EF $7D $DC $DC @32 (!0,0) (!1,-1) (!6,3) v89 y10 << $EE $00 a+=52
$EF $33 $DC $DC @34 (!0,0) (!1,-1) (!6,3) v84 >> f+=77

@30 (!0,0) (!1,-1) (!3,3) v94 y7 < $EE $D8 g=23 r96 $EF $A9 $DC $DC @34 (!0,0) (!1,-1) (!1,3) v84 y10 > $EE $00 f+96
r4
$EF $7F $DC $DC @35 (!0,0) (!1,-1) (!10,3) v101 y6 $EE $C0 g=66
r=34
@32 (!0,0) (!1,-1) (!6,3) v89 y10 << $EE $00 a+=47
@35 (!0,0) (!1,-1) (!10,3) v86 y6 >> $EE $C2 f+=11 r16. $EF $3B $DC $DC @34 (!0,0) (!1,-1) (!6,3) v84 y10 $EE $00 f+=51
@30 (!0,0) (!1,-1) (!128,3) v94 y7 $EE $DC e=23
r64 $EF $BB $DC $DC @34 (!0,0) (!1,-1) (!6,3) v84 y10 $EE $00 f+=52
$EF $BF $DC $DC @30 (!0,0) (!1,-1) (!6,3) v94 y7 < $EE $D8 a64 @35 (!0,0) (!1,-1) (!10,3) v66 y5 > $EE $C2 f+=5 r8..
@30 (!0,0) (!1,-1) (!3,3) v94 y7 < $EE $D8 a8 @36 (!0,0) v101 y10 > $EE $00 f+12...
r16.. $EF $3F $DC $DC @32 (!1,-1) (!6,3) v89 << g=26
@30 (!0,0) (!1,-1) (!43,3) v94 y7 >> $EE $D8 c8
$EF $39 $DC $DC @34 (!0,0) (!1,-1) (!6,3) v84 y10 $EE $00 f+=52
@30 (!0,0) (!1,-1) (!3,3) v94 y7 < $EE $DC d=23 r96 $EF $29 $DC $DC @34 (!0,0) (!1,-1) (!6,3) v84 y10 > $EE $00 f+=52
@30 (!0,0) (!1,-1) (!3,3) v94 y7 < $EE $D8 a=23
r=26 (!44,3) a8
@34 (!0,0) (!1,-1) (!6,3) v84 y10 > $EE $00 f+=77
@30 (!0,0) (!1,-1) (!3,3) v94 y7 < $EE $DC d=23
$EF $08 $DC $DC @34 (!0,0) (!1,-1) (!6,3) v84 y10 > $EE $00 f+=128

@30 (!0,0) (!1,-1) (!129,3) v104 y7 < $EE $D8 a=23
r12..
$EF $29 $DC $DC @34 (!0,0) (!1,-1) (!6,3) v84 y10 > $EE $00 f+=27 @30 (!0,0) (!1,-1) (!3,3) v104 y7 $EE $D5 f+=23
@34 (!0,0) (!1,-1) (!6,3) v84 y10 $EE $00 f+=51
@30 (!0,0) (!1,-1) (!3,3) v104 y7 < $EE $D8 a=23 r64 $EF $39 $DC $DC @34 (!0,0) (!1,-1) (!6,3) v84 y10 > $EE $00 f+=51
@30 (!0,0) (!1,-1) (!117,3) v104 y7 < $EE $D8 a=23
r64 $EF $B9 $DC $DC @34 (!0,0) (!1,-1) (!6,3) v84 y10 > $EE $00 f+=52
@30 (!0,0) (!1,-1) (!3,3) v94 y7 < $EE $D8 g=23 r8
$EF $EC $DC $DC @35 (!0,0) (!1,-1) (!10,3) v86 y6 > $EE $C3 f=17 r8.
$EF $F6 $DC $DC @32 (!0,0) (!1,-1) (!6,3) v89 y10 << $EE $00 a+=26 @30 (!0,0) (!1,-1) (!130,3) v94 y7 >> $EE $DC e=23
r96 @31 (!0,0) v123 y10 $EE $00 f+8
r=26 @30 (!1,-1) (!47,3) v94 y7 < $EE $D8 g8
r96 $EF $E2 $DC $DC @36 (!0,0) v110 y10 > $EE $00 f+=29 r16..
@32 (!1,-1) (!6,3) v89 < d+=26 @30 (!0,0) (!1,-1) (!3,3) v104 y7 $EE $D8 a=23
r=23 @33 (!0,0) (!1,-1) (!3,3) v96 y16 > $EE $3A g2^=33


r8 $EE $42 d=31
r=19 (!131,3) < $EE $3D a+=26
r=27 (!132,3) v109 y15 a+=25
r=27
@30 (!0,0) (!1,-1) (!3,3) v110 y7 $EE $D8 g=17 r6...
a3
r6....

$EF $1B $DC $DC @36 (!0,0) v93 y10 > $EE $00 f+=29 r16..
@35 (!1,-1) (!10,3) v98 y6 $EE $C4 e=29 r16...
@30 (!0,0) (!1,-1) (!3,3) v110 y7 < $EE $DC d8 @36 (!0,0) v101 y10 > $EE $00 f+=31
r16.. $EF $17 $DC $DC @32 v89 << g3

r=11 $EF $CA $DC $DC @34 (!1,-1) (!6,3) v84 >> f+=103

f+=51
@30 (!0,0) (!1,-1) (!133,3) v110 y7 < $EE $DC d=23
r96 @31 (!0,0) v123 y10 > $EE $00 f+8 r=25
@37 v118 y7 $EE $06 g=52
$EF $E9 $DC $DC @34 (!16,-1) (!6,3) v84 y10 $EE $00 f+=128


@31 (!0,0) $ED $80 $7F v123 f+=23 $EF $69 $DC $DC @34 (!16,-1) (!6,3) v84 f+=52
@30 (!0,0) (!1,-1) (!3,3) v110 y7 < $EE $DC d=23
@34 (!0,0) (!1,-1) (!6,3) v84 y10 > $EE $00 f+=53
@30 (!0,0) (!1,-1) (!3,3) v110 y7 < $EE $DC d8 $EF $22 $DC $DC @34 (!0,0) (!1,-1) (!6,3) v84 y10 > $EE $00 f+=51
@30 (!0,0) (!1,-1) (!53,3) v110 y7 < $EE $D8 b=23
r96 (!26,3) $EE $DC d8 r96 (!27,3) $EE $D8 b8
r96 $EF $D7 $DC $DC @33 (!0,0) (!1,-1) (!134,3) v96 y16 $EE $3D g=33
r=17 @35 (!0,0) (!16,-1) (!10,3) v98 y6 > $EE $C4 e=23 r=27
$EF $AF $DC $DC @32 (!0,0) (!1,-1) (!6,3) v89 y10 << $EE $00 f=52
@34 (!0,0) (!1,-1) (!6,3) v84 >> f+=51
@30 (!0,0) (!1,-1) (!135,3) v110 y7 $EE $D8 c8
r96 $EF $D3 $DC $DC @31 (!0,0) v123 y10 $EE $00 f+8 @30 (!1,-1) (!3,3) v110 y7 $EE $D8 c8
$EF $F2 $DC $DC @34 (!0,0) (!1,-1) (!6,3) v84 y10 $EE $00 f+=27 @30 (!0,0) (!1,-1) (!3,3) v110 y7 $EE $D9 d=23
r=7 @37 (!0,0) (!1,-1) (!6,3) v133 $EE $00 a8....
@30 (!0,0) (!1,-1) (!136,3) v110 $EE $DC e=23 r96 $EF $E3 $DC $DC @34 (!0,0) (!1,-1) (!6,3) v84 y10 $EE $00 f+=52
@30 (!0,0) (!1,-1) (!1,3) v110 y7 < $EE $D8 g96 r16..
$EF $12 $DC $DC @34 (!0,0) (!1,-1) (!6,3) v84 y10 > $EE $00 f+=53
@30 (!0,0) (!1,-1) (!3,3) v110 y7 $EE $DC e=23 r96 (!137,3) $EE $DA f8
(!138,3) < $EE $D8 g8 $EF $9E $DC $DC @33 (!0,0) (!1,-1) (!3,3) v96 y16 $EE $3D g=33
r=19
@35 (!0,0) (!16,-1) (!10,3) v98 y6 > $EE $C6 d+=23 r=27
$EF $6F $DC $DC @32 (!0,0) (!1,-1) (!6,3) v89 y10 << $EE $00 a+=52
@34 (!0,0) (!1,-1) (!6,3) v84 >> f+=51
@30 (!0,0) (!1,-1) (!139,3) v110 y7 $EE $DA f8 r96 @34 (!0,0) (!1,-1) (!6,3) v84 y10 $EE $00 f+=77

@32 (!0,0) v89 << g=63
r16 $EF $6F $DC $DC (!1,-1) (!6,3) d=51

@30 (!0,0) (!1,-1) (!140,3) v110 y7 > $EE $DC d=23 $EF $DC $DC $DC @32 (!0,0) v89 y10 < $EE $00 g3
r16
a+=65
r16 @35 (!1,-1) (!10,3) v98 y6 >> $EE $C4 e=33
r8..
$EF $CE $DC $DC @32 (!0,0) v89 y10 << $EE $00 d3
r16 $EF $3D $DC $DC g=65

r16 $EF $AA $DC $DC @31 v123 >> f+8 $EF $5A $DC $DC @34 (!1,-1) (!6,3) v84 f+=51
@30 (!0,0) (!1,-1) (!141,3) v118 y7 $EE $DC e=23
r=27
$EF $CB $DC $DC @34 (!0,0) (!1,-1) (!6,3) v84 y10 $EE $00 f+=27 @30 (!0,0) (!1,-1) (!33,3) v118 y7 $EE $D5 f+=23
$EF $C3 $DC $DC @34 (!0,0) (!1,-1) (!6,3) v84 y10 $EE $00 f+=52
@30 (!0,0) (!1,-1) (!33,3) v118 y7 $EE $D7 g=23 r=27
(!142,3) < $EE $D8 a8 r96 $EF $E3 $DC $DC @31 (!0,0) v123 y10 > $EE $00 f+8
@30 (!1,-1) (!71,3) v118 y7 $EE $D7 g8 r64 @34 (!0,0) (!1,-1) (!6,3) v84 y10 $EE $00 f+=27
@30 (!0,0) (!1,-1) (!33,3) v112 y7 < $EE $D8 g=23 r=26
$EF $2B $DC $DC @34 (!0,0) (!1,-1) (!6,3) v84 y10 > $EE $00 f+=77
@30 (!0,0) (!1,-1) (!91,3) v112 y7 < $EE $D8 g8
$EF $C0 $DC $DC @34 (!0,0) (!1,-1) (!6,3) v84 y10 > $EE $00 f+=81

$EF $95 $DC $DC @37 (!0,0) v144 y7 $EE $07 c=52
r=20 @35 (!16,-1) (!10,3) v98 y6 $EE $C4 e=33
r=20 @37 (!0,0) (!1,-1) (!6,3) v137 y7 < $EE $05 a=23
@30 (!0,0) (!1,-1) (!121,3) v118 $EE $D8 b=23 r=27
@34 (!0,0) (!1,-1) (!6,3) v84 y10 > $EE $00 f+=102

$EF $BA $DC $DC @36 (!0,0) v110 f+=29
r16. @37 v125 y7 $EE $06 g=52
r64 $EF $CD $DC $DC v118 $EE $FF b=52
r96 (!1,-1) (!1,3) v106 $EE $00 b96 r=44
@30 (!0,0) v125 < $EE $D8 a3
r6....

@38 $ED $80 $7F v123 y10 $EE $87 b16. r=58
@35 (!1,-1) (!10,3) v98 y6 > $EE $C4 c8
r=27 @40 (!0,0) (!1,-1) (!6,3) v113 y10 $EE $00 f+=26
$EF $FF $DC $DC @30 (!0,0) (!1,-1) (!143,3) v94 y7 < $EE $D8 g8 @39 (!0,0) $ED $80 $7F v113 y10 > $EE $00 b12
r32.. @32 v97 < c3
r16
@35 (!1,-1) (!10,3) v101 y7 $EE $C5 a=27 r16.
v98 y6 > $EE $C4 d=19 r=37
@39 (!0,0) $ED $80 $7F v113 y10 $EE $00 b12 r=41
@30 (!1,-1) (!144,3) v94 y7 $EE $DA f8 (!145,3) f8
r96 (!146,3) f8 r96 $EF $7D $DC $DC (!147,3) f8
r=49
$EF $76 $DC $DC (!33,3) $EE $D9 d8 d8
r64 $EF $DF $DC $DC (!148,3) d8
(!149,3) d8 r8
@39 (!0,0) $ED $80 $7F v113 y10 $EE $00 b12 r32.. @40 (!1,-1) (!6,3) f+=26
@39 (!0,0) $ED $80 $7F b=15 r32.. @32 (!1,-1) (!6,3) v97 < c=27
@40 (!0,0) (!1,-1) (!6,3) v113 > f+=25 @33 (!0,0) (!1,-1) (!150,3) v84 y15 $EE $42 d=17
r12... (!151,3) v94 c16...
r=29 (!152,3) v96 y16 $EE $3C f=27
r=51
@39 (!0,0) $ED $80 $7F v113 y10 $EE $00 b=15 r=35
$EF $FF $DC $DC @32 (!1,-1) (!6,3) v97 << g=51
@40 (!0,0) (!1,-1) (!6,3) v113 >> f+=27
@39 (!0,0) $ED $80 $7F b=15 r32. $EF $FF $DC $DC @32 (!1,-1) (!6,3) v97 < c=27
@30 (!0,0) (!1,-1) (!1,3) v94 y7 $EE $D8 g96 r16... @32 (!0,0) (!1,-1) (!6,3) v97 y10 $EE $00 c=27
@30 (!0,0) (!1,-1) (!1,3) v94 y7 $EE $D8 g96 r16... $EF $BC $DC $DC @32 (!0,0) v89 y10 $EE $00 f3

r16 $EF $1E $DC $DC (!1,-1) (!6,3) c=51
$EF $1F $DC $DC @30 (!0,0) (!1,-1) (!153,3) v94 y7 $EE $D8 a8 r96 @31 (!0,0) v123 y10 > $EE $00 f+8
r=26 @30 (!1,-1) (!33,3) v94 y7 < $EE $E3 c8
$EF $33 $DC $DC @31 (!0,0) v123 y10 > $EE $00 f+8 @30 (!1,-1) (!154,3) v94 y7 < $EE $D7 a+8
r64 (!114,3) $EE $E3 c8 $EF $99 $DC $DC @31 (!0,0) v123 y10 > $EE $00 f+=25
$EF $33 $DC $DC @34 (!1,-1) (!6,3) v84 f+=52
@30 (!0,0) (!1,-1) (!33,3) v94 y7 < $EE $D8 a=23
$EF $2B $DC $DC @34 (!0,0) (!1,-1) (!6,3) v84 y10 > $EE $00 f+=53
@30 (!0,0) (!1,-1) (!33,3) v94 y7 < $EE $D7 a+=23 r12..
(!155,3) $EE $E3 c8 @36 (!0,0) v110 y10 > $EE $00 f+12...
r16.. $EF $E0 $DC $DC @34 (!1,-1) (!6,3) v84 f+=102

$EF $D1 $DC $DC f+=51
@30 (!0,0) (!1,-1) (!98,3) v94 y7 < $EE $D8 a8
$EF $C2 $DC $DC @34 (!0,0) (!1,-1) (!6,3) v84 y10 > $EE $00 f+=78

@30 (!0,0) (!1,-1) (!33,3) v94 y7 < $EE $E3 c=23 c8
r96 $EE $D8 a8 r96 $EE $E3 c=23
r96 $EF $91 $DC $DC @34 (!0,0) (!1,-1) (!6,3) v84 y10 > $EE $00 f+=51
@30 (!0,0) (!1,-1) (!100,3) v94 y7 < $EE $D8 a=23 r96 $EF $93 $DC $DC @34 (!0,0) (!1,-1) (!6,3) v84 y10 > $EE $00 f+=52
@30 (!0,0) (!1,-1) (!33,3) v94 y7 < $EE $D7 a+=23
r=27 $EE $E3 c8
r96 $EF $D0 $DC $DC @36 (!0,0) v110 y10 > $EE $00 f+12...
r=20 $EF $E8 $DC $DC @34 (!1,-1) (!6,3) v84 f+=79

$EF $BC $DC $DC @33 (!0,0) v94 y15 < $EE $3D f1^=105





r=5 $EF $D8 $DC $DC @34 (!16,-1) (!6,3) v84 y10 > $EE $00 f+=77

@30 (!0,0) (!1,-1) (!130,3) v94 y7 < $EE $D8 a=23 @31 (!0,0) v123 y10 > $EE $00 f+8 r=52

$EF $F8 $DC $DC @36 v110 f+12... r=19
@33 (!1,-1) (!33,3) v102 y15 < $EE $44 g+=34 r16.
$EF $7B $DC $DC @34 (!0,0) (!16,-1) (!6,3) v84 y10 > $EE $00 f+=51
$EF $69 $DC $DC @36 (!0,0) $ED $80 $7F v101 f+=29 r=17
$EF $CF $DC $DC @33 (!1,-1) (!33,3) v70 y15 < $EE $44 g+=25 r12...
$EF $3B $DC $DC @34 (!0,0) (!16,-1) (!6,3) v84 y10 > $EE $00 f+=53
@30 (!0,0) (!1,-1) (!33,3) v94 y7 < $EE $D9 f=23 r96 (!101,3) f8
$EF $AF $DC $DC (!102,3) > d8 @31 (!0,0) v123 y10 $EE $00 f+=25
$EF $9B $DC $DC @34 (!1,-1) (!6,3) v84 f+=52
$EF $5B $DC $DC @36 (!0,0) v101 f+12...
r16.. $EF $CF $DC $DC @32 (!1,-1) (!6,3) v89 < a+=26
@30 (!0,0) (!1,-1) (!33,3) v94 y7 > $EE $D8 d+=23 r64 @33 (!0,0) (!1,-1) (!33,3) v96 y16 < $EE $3D a+=31
r16. $EF $F8 $DC $DC @36 (!0,0) $ED $80 $7F v110 y10 > $EE $00 f+=29
r=19 $EF $BD $DC $DC @33 (!1,-1) (!33,3) v102 y15 < $EE $44 g+=25
r12.. $EF $AB $DC $DC @34 (!0,0) (!16,-1) (!6,3) v84 y10 > $EE $00 f+=52
@30 (!0,0) (!1,-1) (!33,3) v94 y7 < $EE $E3 c=23
r96 $EF $D7 $DC $DC @32 (!0,0) (!1,-1) (!6,3) v89 y10 $EE $00 d+=26 @30 (!0,0) (!1,-1) (!156,3) v94 y7 $EE $D8 a8
$EF $E5 $DC $DC @32 (!0,0) v89 y10 $EE $00 f3
r16
@35 (!1,-1) (!10,3) v93 y6 > $EE $C3 f=31 r=20
$EF $C9 $DC $DC @34 (!0,0) (!1,-1) (!6,3) v84 y10 $EE $00 f+=102

f+=51
@30 (!0,0) (!1,-1) (!88,3) v94 y7 < $EE $E3 c8 r96 $EF $7B $DC $DC @31 (!0,0) v123 y10 > $EE $00 f+8
r=26 @30 (!1,-1) (!33,3) v94 y7 < $EE $E3 c8
$EF $AB $DC $DC @36 (!0,0) v110 y10 > $EE $00 f+12...
r16.. @34 (!1,-1) (!1,3) v84 f+96 r=23 @30 (!0,0) (!1,-1) (!157,3) v94 y7 $EE $D9 d=23
r8 @35 (!0,0) (!1,-1) (!10,3) v101 y6 $EE $C6 d+2^=57



r=25 v76 $EE $C9 c+=5 r=23
$EF $2F $DC $DC @30 (!0,0) (!1,-1) (!26,3) v94 y7 $EE $DA f8 r96 (!27,3) $EE $DC e8
r96 @31 (!0,0) v123 y10 $EE $00 f+8 r=26
$EF $2B $DC $DC @34 (!1,-1) (!6,3) v84 f+=27 @30 (!0,0) (!1,-1) (!33,3) v94 y7 $EE $D9 d=23
$EF $D7 $DC $DC @32 (!0,0) (!1,-1) (!6,3) v89 y10 < $EE $00 g+=26 @30 (!0,0) (!1,-1) (!89,3) v94 y7 > $EE $D9 d=23
r96 @32 (!0,0) v89 y10 < $EE $00 a+3
r16
$EF $B2 $DC $DC @31 v123 > f+=25 $EF $BB $DC $DC @34 (!1,-1) (!6,3) v84 f+=27
@30 (!0,0) (!1,-1) (!33,3) v94 y7 $EE $D9 d=23 r64 @31 (!0,0) v123 y10 $EE $00 f+8
r8 $EF $77 $DC $DC @35 (!1,-1) (!10,3) v86 y6 < $EE $C8 a+2^=50


r6
@32 (!0,0) v89 y10 $EE $00 g+3
r32. @35 (!1,-1) (!10,3) v101 y7 > $EE $C6 d+=27
r=23 $EF $37 $DC $DC v86 y6 $EE $C3 f=29
r16..
$EE $C0 a+=34 r16..
$EF $E6 $DC $DC @32 (!0,0) v89 y10 < $EE $00 f3
r=5 @35 (!1,-1) (!10,3) v101 y6 >> $EE $B8 e=31
r16.. v86 $EE $BC c+12..
r=26 $EF $DF $DC $DC @33 (!0,0) (!1,-1) (!33,3) v84 y15 < $EE $3C f=25
r12.. v102 $EE $42 d=27
r=19 v92 c16.
r=33 (!158,3) v84 $EE $3C f=26
r=29
@37 (!0,0) (!1,-1) (!6,3) v106 y7 < $EE $0C g=26 > $EE $07 c=27
(!1,3) e96 r16... (!6,3) $EE $08 d=27
$EF $EE $DC $DC (!1,3) < $EE $07 a+96 r16... @32 (!0,0) v89 y10 $EE $00 g+3

r=11 $EF $F7 $DC $DC @37 (!1,-1) (!6,3) v106 y7 $EE $07 f=27 (!1,3) > $EE $08 d96 r=23
$EF $EF $DC $DC (!6,3) < $EE $07 a+=26 (!1,3) > $EE $08 d96 r16...
(!6,3) d=26 < $EE $0C g+=26
$EE $07 a+=26
$EF $EB $DC $DC @40 (!0,0) (!1,-1) (!1,3) v113 y10 > $EE $00 f+96 r16... @35 (!0,0) (!1,-1) (!10,3) v93 y6 $EE $C0 g+8
r8 v86 $EE $C3 f=33
r=17 @33 (!0,0) (!1,-1) (!59,3) v96 y16 $EE $3A g=34
r=17 v94 y15 > $EE $35 c12...
r=19 (!159,3) v102 < $EE $37 a6
r=20 (!59,3) $EE $3D e24..
r=38 @37 (!0,0) (!1,-1) (!6,3) v106 y7 < $EE $05 a=27
$EF $7F $DC $DC > $EE $08 d=26 < $EE $05 a=26
$EF $EF $DC $DC (!1,3) $EE $0C g96 r16... (!6,3) > $EE $08 d=27
$EF $37 $DC $DC $EE $0B c+=25
$EF $BC $DC $DC @32 (!0,0) v89 y10 < $EE $00 g=63
r=7 $EF $AD $DC $DC @33 (!1,-1) (!59,3) v96 y16 > $EE $3D d+=25
r12... @35 (!0,0) (!16,-1) (!10,3) v98 y6 $EE $C1 a=29
r=20 $EF $86 $DC $DC @32 (!0,0) (!1,-1) (!6,3) v89 y10 < $EE $00 c=26
@30 (!0,0) (!1,-1) (!121,3) v110 y7 > $EE $DC e=23 r96 @34 (!0,0) (!1,-1) (!6,3) v84 y10 $EE $00 f+=52
@30 (!0,0) (!1,-1) (!59,3) v110 y7 < $EE $D8 g=23
r=27 $EF $4B $DC $DC @34 (!0,0) (!1,-1) (!6,3) v84 y10 > $EE $00 f+=26
@30 (!0,0) (!1,-1) (!59,3) v110 y7 $EE $DC e=23 r96 $EF $7B $DC $DC @34 (!0,0) (!1,-1) (!6,3) v84 y10 $EE $00 f+=51

@30 (!0,0) (!1,-1) (!160,3) v110 y7 < $EE $D8 g=23 r96 $EF $EB $DC $DC @34 (!0,0) (!1,-1) (!6,3) v84 y10 > $EE $00 f+=52
$EF $D3 $DC $DC (!1,3) f+96 r4
@30 (!0,0) (!1,-1) (!59,3) v110 y7 $EE $DC e=23
r96 @31 (!0,0) v123 y10 $EE $00 f+8 r=26
$EF $D3 $DC $DC @34 (!1,-1) (!6,3) v84 f+=52
@30 (!0,0) (!1,-1) (!161,3) v110 y7 < $EE $D8 g8 (!76,3) g=23
r64 @33 (!0,0) (!1,-1) (!162,3) v96 y16 $EE $3B c12... r=20
$EF $C4 $DC $DC @32 (!0,0) (!1,-1) (!6,3) v89 y10 $EE $00 c=26 @30 (!0,0) (!1,-1) (!59,3) v110 y7 > $EE $DC e8
r=25 @37 (!0,0) (!1,-1) (!6,3) v133 $EE $FF b=27
@30 (!0,0) (!1,-1) (!163,3) v110 $EE $DA f=23 r=27
$EF $4E $DC $DC @32 (!0,0) (!1,-1) (!6,3) v89 y10 < $EE $00 c=27
@30 (!0,0) (!1,-1) (!59,3) v110 y7 > $EE $DC e=23 $EE $DA f8
r96 $EF $BE $DC $DC @32 (!0,0) (!1,-1) (!6,3) v89 y10 < $EE $00 c=26 $EF $F1 $DC $DC @34 (!0,0) (!1,-1) (!6,3) v84 > f+=51
$EF $DF $DC $DC @32 (!0,0) (!1,-1) (!6,3) v89 < c=26
@30 (!0,0) (!1,-1) (!1,3) v110 y7 $EE $D8 g96 r=47
@34 (!0,0) (!1,-1) (!6,3) v84 y10 > $EE $00 f+=39
$EF $FE $DC $DC @37 (!0,0) (!1,-1) (!6,3) v118 y7 > $EE $FE c+=39 @30 (!0,0) (!1,-1) (!1,3) v110 < $EE $DA f96 r=23
@32 (!0,0) (!1,-1) (!6,3) v89 y10 << $EE $00 g12..
@37 (!0,0) (!1,-1) (!6,3) v118 y7 >> $EE $FF b=23 @30 (!0,0) (!1,-1) (!164,3) v110 $EE $DC e=23 @35 (!0,0) (!1,-1) (!10,3) v98 y6 $EE $C0 g+=29
r16..
@32 (!0,0) v89 y10 < $EE $00 f=65
r16 $EF $2E $DC $DC f3
r=11
$EF $17 $DC $DC (!1,-1) (!6,3) f=27 @30 (!0,0) (!1,-1) (!165,3) v110 y7 $EE $D8 a=23
r96 @32 (!0,0) (!1,-1) (!6,3) v89 y10 $EE $00 d+=52
@31 (!0,0) v123 > f+=23 r32 @37 (!1,-1) (!6,3) v118 y7 > $EE $FE c+8....
@34 (!0,0) (!16,-1) (!6,3) v84 y10 < $EE $00 f+=52

@30 (!0,0) (!1,-1) (!166,3) v110 y7 < $EE $E3 c=23 $EF $D7 $DC $DC @32 (!0,0) v89 y10 $EE $00 f3
r32..
$EF $5E $DC $DC @37 (!1,-1) (!6,3) v127 y7 >> $EE $FE c+12.. v133 < $EE $FF b=51
$EF $B6 $DC $DC @32 (!0,0) v89 y10 < $EE $00 c3

r=11 @31 v123 > f+8 @34 (!1,-1) (!6,3) v84 f+=52
@30 (!0,0) (!1,-1) (!59,3) v110 y7 < $EE $D8 g=23
r=26 $EF $37 $DC $DC @37 (!0,0) (!1,-1) (!6,3) v144 > $EE $06 g=27
@30 (!0,0) (!1,-1) (!59,3) v110 $EE $DC e=23 r64 @32 (!0,0) (!1,-1) (!6,3) v89 y10 << $EE $00 a+=51

@31 (!0,0) v123 >> f+8 r=26
@33 (!1,-1) (!97,3) v96 y16 < $EE $3B c=23 r=27
$EF $F9 $DC $DC @34 (!0,0) (!16,-1) (!6,3) v84 y10 > $EE $00 f+=103

$EF $B1 $DC $DC f+=26 @30 (!0,0) (!1,-1) (!128,3) v110 y7 $EE $DC e=23
@34 (!0,0) (!1,-1) (!6,3) v84 y10 $EE $00 f+=52
$EF $B2 $DC $DC f+=51
@30 (!0,0) (!1,-1) (!59,3) v110 y7 < $EE $D8 a8 @36 (!0,0) v101 y10 > $EE $00 f+12...
r16.. $EF $AA $DC $DC @34 (!1,-1) (!6,3) v84 f+=77

@30 (!0,0) (!1,-1) (!167,3) v110 y7 $EE $D8 c=23
r96 $EF $6B $DC $DC @31 (!0,0) v123 y10 $EE $00 f+8 @34 (!1,-1) (!6,3) v84 f+=52
f+=51
@30 (!0,0) (!1,-1) (!44,3) v110 y7 < $EE $D8 g=23
r64 $EF $0B $DC $DC @34 (!0,0) (!1,-1) (!6,3) v84 y10 > $EE $00 f+=76
@30 (!0,0) (!1,-1) (!1,3) v110 y7 < $EE $E3 c96 r4
$EF $8B $DC $DC @34 (!0,0) (!1,-1) (!6,3) v84 y10 > $EE $00 f+12...
@37 (!0,0) v144 y7 $EE $06 f=51
r=20
@35 (!16,-1) (!10,3) v98 y6 $EE $C1 a=33 r16...
@37 (!0,0) v137 y7 $EE $08 d=52
r=19 $EF $8C $DC $DC @32 v89 y10 < $EE $00 c3
r=11
$EF $96 $DC $DC (!1,-1) (!6,3) c=26 @30 (!0,0) (!1,-1) (!168,3) v110 y7 > $EE $DC e=23
r64 $EF $BF $DC $DC @32 (!0,0) (!1,-1) (!6,3) v89 y10 << $EE $00 a+=52
@37 (!0,0) (!1,-1) (!6,3) v127 y7 >> $EE $08 d8 @32 (!0,0) v89 y10 < $EE $00 g3

r16 g3
r=11
< g=65
r=11 (!1,-1) (!6,3) g=52
> c=27
@37 (!0,0) (!1,-1) (!1,3) v110 y7 $EE $07 f96 r16... (!6,3) v112 f=27
(!1,3) v118 f96 r16... (!6,3) f=26
(!1,3) v120 f96 r=23 v122 f96 r=23
(!6,3) v125 f=26 (!1,3) f96 r16...
(!6,3) v127 f=27 (!1,3) f96
r16... (!6,3) v133 f=26
v137 $EE $0C g=51
g=50
r1^32..



v127 $EE $04 c+=25 $EE $0C g=27
(!1,3) $EE $05 a96 r16... (!6,3) > $EE $07 c=27
(!1,3) c96 r16... (!6,3) < $EE $05 a=26
(!1,3) > $EE $07 c96 r=23
(!6,3) c=26 (!1,3) < $EE $05 a96 r=23
(!6,3) > $EE $07 c=26 (!1,3) c96 r16...
(!6,3) < $EE $05 a=26 v135 > $EE $07 c=51
r24 v127 << $EE $05 a=51
r24..
@36 (!0,0) $ED $80 $7F v101 y10 >> $EE $00 f+12... r24
f+12... r24 f+=31
r=7 f+12...
r24 $EF $FA $DC $DC f+12...
r=19 

#3 r=76
@36 v101 y10 o5 f+=29
r=97

@30 (!1,-1) (!142,3) v94 y7 < $EE $DC d8 r=51
(!169,3) d8
r=78
@36 (!0,0) v101 y10 > $EE $00 f+12...
r=97

@30 (!1,-1) (!92,3) v94 y7 < $EE $DC d8
r=52
(!3,3) d8 r=76

$EF $E7 $DC $DC @31 (!0,0) v123 y10 > $EE $00 f+=25 r=52
f+=25
r=51
@30 (!1,-1) (!3,3) v94 y7 < $EE $DC d8 r=51
$EF $F7 $DC $DC @31 (!0,0) v123 y10 > $EE $00 f+=25
r=52
@30 (!1,-1) (!3,3) v94 y7 < $EE $DC d8
r=52
@31 (!0,0) v123 y10 > $EE $00 f+=25 r=50
@30 (!1,-1) (!170,3) v94 y7 < $EE $D8 b8
r=53
$EF $45 $DC $DC @34 (!0,0) (!1,-1) (!6,3) v84 y10 > $EE $00 f+=77
@30 (!0,0) (!1,-1) (!3,3) v94 y7 < $EE $DC d8
@34 (!0,0) (!1,-1) (!6,3) v84 y10 > $EE $00 f+=52
@30 (!0,0) (!1,-1) (!77,3) v94 y7 $EE $D8 c8
r=25 (!111,3) < $EE $DC d8
r64 $EF $53 $DC $DC @31 (!0,0) v123 y10 > $EE $00 f+8 @30 (!1,-1) (!3,3) v94 y7 $EE $D8 c8
r96 < $EE $DC d8 $EF $67 $DC $DC @31 (!0,0) v123 y10 > $EE $00 f+=25
r=26 $EF $65 $DC $DC @34 (!1,-1) (!6,3) v84 f+=77

@30 (!0,0) (!1,-1) (!171,3) v94 y7 < $EE $D8 b8 r96 @31 (!0,0) v123 y10 > $EE $00 f+8
r=26 @30 (!1,-1) (!3,3) v94 y7 < $EE $DC d8
r96 $EF $50 $DC $DC @36 (!0,0) v110 y10 > $EE $00 f+12...
r=20 $EF $97 $DC $DC @34 (!1,-1) (!6,3) v84 f+6
@35 (!0,0) (!1,-1) (!10,3) v86 y6 $EE $C0 a+=65
r12...
$EF $D7 $DC $DC @34 (!0,0) (!1,-1) (!6,3) v84 y10 $EE $00 f+8...
@33 (!0,0) (!1,-1) (!3,3) v87 y15 > $EE $34 c+=13 r=40
@35 (!0,0) (!16,-1) (!10,3) v79 y6 < $EE $C0 g=61
r16. $EF $76 $DC $DC @34 (!0,0) (!16,-1) (!6,3) v84 y10 $EE $00 f+=27
@30 (!0,0) (!1,-1) (!1,3) v94 y7 < $EE $DC d96 r=47
$EF $23 $DC $DC @34 (!0,0) (!1,-1) (!6,3) v84 y10 > $EE $00 f+=26 @30 (!0,0) (!1,-1) (!3,3) v94 y7 < $EE $D8 b=23
r96 $EF $22 $DC $DC @34 (!0,0) (!1,-1) (!6,3) v84 y10 > $EE $00 f+=128


@30 (!0,0) (!1,-1) (!3,3) v94 y7 < $EE $DC d=23 > $EE $D8 c8
r96 < $EE $DC d8 $EF $AC $DC $DC @32 (!0,0) v89 y10 $EE $00 c=65
r48
@33 (!1,-1) (!3,3) v94 y15 > $EE $3C f16 r16.. $EF $75 $DC $DC @34 (!0,0) (!16,-1) (!6,3) v84 y10 $EE $00 f+=52
@30 (!0,0) (!1,-1) (!3,3) v94 y7 < $EE $D8 g8
r=26 $EF $A1 $DC $DC @34 (!0,0) (!1,-1) (!6,3) v84 y10 > $EE $00 f+=102


@30 (!0,0) (!1,-1) (!172,3) v94 y7 < $EE $D8 g=23 r96 @33 (!0,0) (!1,-1) (!173,3) v109 y15 > $EE $39 a+=25
r8 @35 (!0,0) (!16,-1) (!10,3) v81 y7 $EE $C0 g=68
r16...
@33 (!0,0) (!1,-1) (!3,3) y16 > $EE $34 c+12 r16...
$EF $33 $DC $DC @34 (!0,0) (!16,-1) (!6,3) v84 y10 < $EE $00 f+=26 @30 (!0,0) (!1,-1) (!128,3) v94 y7 < $EE $D8 g=23
r96 (!17,3) > $EE $DA f8 (!115,3) < $EE $D8 g8
r64 $EF $BD $DC $DC @32 (!0,0) (!1,-1) (!6,3) v89 y10 < $EE $00 g=54
$EF $AF $DC $DC @35 (!0,0) (!1,-1) (!10,3) v98 y6 >> $EE $C4 c1^=63




r=20
$EF $57 $DC $DC @34 (!0,0) (!1,-1) (!6,3) v84 y10 $EE $00 f+=51
@30 (!0,0) (!1,-1) (!100,3) v94 y7 < $EE $D8 b8 $EF $41 $DC $DC @34 (!0,0) (!1,-1) (!6,3) v84 y10 > $EE $00 f+=128


@30 (!0,0) (!1,-1) (!3,3) v94 y7 < $EE $DC d=23 r96 (!174,3) > $EE $D8 c8
(!68,3) < $EE $DC d8 r96 $EF $79 $DC $DC @32 (!0,0) v89 y10 $EE $00 d3

r16 $EF $BB $DC $DC (!1,-1) (!6,3) < a=51
@30 (!0,0) (!1,-1) (!3,3) v104 y7 > $EE $D8 a=23
r96 $EF $E9 $DC $DC @32 (!0,0) v89 y10 $EE $00 d3
r=11 f=65

r=11 $EF $5F $DC $DC @33 (!1,-1) (!3,3) v105 y15 > $EE $42 c=53
r=25 $EF $FE $DC $DC @32 (!0,0) (!1,-1) (!6,3) v89 y10 << $EE $00 g=51
$EF $E6 $DC $DC @34 (!0,0) (!1,-1) (!6,3) v84 >> f+=26
@30 (!0,0) (!1,-1) (!1,3) v94 y7 $EE $DA f96 r=47
(!47,3) f8
r96 $EF $97 $DC $DC @34 (!0,0) (!1,-1) (!1,3) v84 y10 $EE $00 f+96 r=73
$EF $95 $DC $DC (!6,3) f+=78

$EF $67 $DC $DC f+=50
@30 (!0,0) (!1,-1) (!85,3) v104 y7 < $EE $DC d8 r96 @31 (!0,0) v123 y10 > $EE $00 f+8
$EF $E7 $DC $DC @34 (!1,-1) (!6,3) v84 f+=52
(!1,3) f+96 r=23 @30 (!0,0) (!1,-1) (!175,3) v104 y7 < $EE $DC d8
(!102,3) d8 @31 (!0,0) v123 y10 > $EE $00 f+=25
r=52
@32 v89 < c+=65
r=87

v97 c+=63

r=13 @37 v144 y7 > $EE $FF b=52
$EF $4B $DC $DC v135 $EE $00 a=53
r16.. v144 a=52

$EF $63 $DC $DC @34 (!16,-1) (!6,3) v84 y10 f+=52
@30 (!0,0) (!1,-1) (!3,3) v110 y7 < $EE $D8 b=23 > c8
r96 < b8 @32 (!0,0) (!1,-1) (!6,3) v89 y10 < $EE $00 g=52
$EF $DE $DC $DC @30 (!0,0) (!1,-1) (!133,3) v110 y7 > $EE $D8 a=23
r96 $EF $73 $DC $DC @36 (!0,0) v101 y10 > $EE $00 f+=29 r16..
$EF $CD $DC $DC @32 (!1,-1) (!6,3) v89 << g=29 $EF $C9 $DC $DC @37 (!0,0) v147 y7 >> a=51
r=23
$EF $B0 $DC $DC @31 $ED $80 $7F v123 y10 f+8 $EF $E1 $DC $DC @34 (!16,-1) (!6,3) v84 f+=52

@30 (!0,0) (!1,-1) (!157,3) v110 y7 < $EE $D8 a=23 r=27
@34 (!0,0) (!1,-1) (!6,3) v84 y10 > $EE $00 f+=27 @30 (!0,0) (!1,-1) (!3,3) v110 y7 < $EE $D8 b=23
r=25 $EF $6B $DC $DC @37 (!0,0) (!1,-1) (!6,3) v133 > $EE $06 g12..
@30 (!0,0) (!1,-1) (!3,3) v110 $EE $D8 c8 r=26
(!176,3) < $EE $DC d8 $EF $27 $DC $DC @31 (!0,0) v123 y10 > $EE $00 f+8
r=25 @37 (!1,-1) (!6,3) v135 y7 $EE $06 g=29
@30 (!0,0) (!1,-1) (!3,3) v110 < $EE $D8 a=23 $EF $A7 $DC $DC @34 (!0,0) (!1,-1) (!6,3) v84 y10 > $EE $00 f+=52
$EF $27 $DC $DC @36 (!0,0) v101 f+=29
r16.. $EF $AB $DC $DC @32 (!1,-1) (!1,3) v89 << g96
r=25 $EF $6B $DC $DC @37 (!0,0) (!1,-1) (!6,3) v147 y7 >> $EE $FF b=49
@30 (!0,0) (!1,-1) (!135,3) v110 < $EE $DC d8
r96 $EF $D6 $DC $DC @36 (!0,0) y10 > $EE $00 f+=29 r24 @37 (!1,-1) (!6,3) v127 y7 $EE $FF b=39
$EF $86 $DC $DC @34 (!0,0) (!16,-1) (!6,3) v84 y10 $EE $00 f+=76

f+=52
@30 (!0,0) (!1,-1) (!1,3) v110 y7 $EE $DC e96 r16... @31 (!0,0) v123 y10 $EE $00 f+8
r=26 @30 (!1,-1) (!3,3) v110 y7 < $EE $D8 g8
r96 $EF $96 $DC $DC @36 (!0,0) y10 > $EE $00 f+12...
r=20 $EF $97 $DC $DC @34 (!1,-1) (!6,3) v84 f+12..
@37 (!0,0) (!1,-1) (!6,3) v147 y7 $EE $FF b=50
@30 (!0,0) (!1,-1) (!177,3) v110 < $EE $D8 g=23 r96 $EF $3F $DC $DC @32 (!0,0) (!1,-1) (!6,3) v89 y10 < $EE $00 g=51
@30 (!0,0) (!1,-1) (!3,3) v110 y7 > $EE $D8 g=23
@32 (!0,0) v89 y10 $EE $00 c3
r16 $EF $B1 $DC $DC @31 v123 > f+=25
@30 (!1,-1) (!31,3) v110 y7 < $EE $D8 g8 r96 $EF $2B $DC $DC (!32,3) > $EE $DC e8
r96 @35 (!0,0) (!1,-1) (!10,3) v98 y6 $EE $C4 e=29 r16..
$EF $17 $DC $DC @34 (!0,0) (!1,-1) (!6,3) v84 y10 $EE $00 f+12...
@37 (!0,0) v133 y7 $EE $07 e=52
r=19 $EF $3C $DC $DC v137 e=52
r=25
@31 $ED $80 $7F v123 y10 $EE $00 f+8 @30 (!1,-1) (!3,3) v110 y7 < $EE $DC d8
d8 r64 @32 (!0,0) (!1,-1) (!6,3) v89 y10 < $EE $00 g=52
@30 (!0,0) (!1,-1) (!178,3) v110 y7 > $EE $D8 a=23
r96 @31 (!0,0) v123 y10 > $EE $00 f+8 r=27
$EF $0D $DC $DC @32 v89 << g3
r=11 @37 v147 y7 >> $EE $07 c=52
r16..
v118 e=52
$EF $C3 $DC $DC @34 (!16,-1) (!6,3) v84 y10 $EE $00 f+=52
@30 (!0,0) (!1,-1) (!33,3) v118 y7 < $EE $D8 a=23
r12.. $EF $66 $DC $DC @34 (!0,0) (!1,-1) (!6,3) v84 y10 > $EE $00 f+=101

f+=50
$EF $BA $DC $DC @37 (!0,0) (!1,-1) (!1,3) v147 y7 $EE $FF b96 r=25
@30 (!0,0) (!1,-1) (!33,3) v112 $EE $D9 d=23 r=27
< $EE $D8 g8 @36 (!0,0) v101 y10 > $EE $00 f+=31
r16.. $EF $78 $DC $DC @32 v89 < c3

r=11 @34 (!1,-1) (!6,3) v84 > f+=103

$EF $F5 $DC $DC @31 (!0,0) v123 f+8
$EF $B7 $DC $DC @34 (!1,-1) (!6,3) v84 f+=51
$EF $83 $DC $DC f+=77
@30 (!0,0) (!1,-1) (!33,3) v118 y7 < $EE $DC d=23
r=27 d8
$EF $FC $DC $DC @32 (!0,0) v89 y10 < $EE $00 a+=65
r=11 @31 v123 >> f+=25
r=26
@32 v89 < c=65
r32.. @37 v135 y7 > a=52
r=50
$EF $90 $DC $DC @36 $ED $80 $7F v101 y10 f+12...
r16.. $EF $12 $DC $DC v89 f+12...
r96 @30 (!1,-1) (!162,3) v94 y7 $EE $DA f8 r8
$EF $FE $DC $DC (!33,3) $EE $D9 d8 r48
$EE $DA f8 f8
r96 f8 r96 (!179,3) f8
r8 $EF $DF $DC $DC (!180,3) $EE $D9 d8
r=5 (!181,3) $EE $DA f8 $EF $DF $DC $DC (!182,3) f8
r96 (!33,3) f8 f8
r=49
$EF $3D $DC $DC (!183,3) $EE $D9 d8 r96 $EF $BF $DC $DC (!184,3) d8
r96 $EF $7F $DC $DC (!185,3) d8 (!186,3) d8
r=50
$EF $7E $DC $DC (!33,3) < $EE $D8 a8 @39 (!0,0) $ED $80 $7F v113 y10 > $EE $00 b=17
r32. b12 r32. @30 (!1,-1) (!125,3) v94 y7 < $EE $D8 g8
r96 @35 (!0,0) (!1,-1) (!10,3) v81 > $EE $C4 c16... r12..
v101 y6 < $EE $C5 a12...
r=19 v92 y7 $EE $C3 g=13 r16.
$EF $FE $DC $DC @30 (!0,0) (!1,-1) (!33,3) v94 > $EE $D9 d8 r=19
@35 (!0,0) (!1,-1) (!10,3) v92 < $EE $C3 g16 r16.. @30 (!0,0) (!1,-1) (!6,3) v94 > $EE $D9 d=23
< $EE $D8 g=7 > $EE $DA f=23 $EF $DF $DC $DC (!1,3) $EE $D9 d96 r=20
(!6,3) < $EE $D8 a=7 (!1,3) > $EE $DA f96 r=69
$EE $D9 d96
r=23 $EF $EF $DC $DC (!33,3) d8
(!187,3) d8 r96 (!188,3) d8
(!189,3) d=20 r64 @39 (!0,0) $ED $80 $7F v113 y10 $EE $00 b12 r32..
$EF $DF $DC $DC @32 (!1,-1) (!6,3) v97 < c6 @30 (!0,0) (!1,-1) (!190,3) v94 y7 > $EE $DA f8
(!6,3) f16.. (!33,3) < $EE $D8 g8
r=26 (!191,3) $EE $E3 c8
$EF $16 $DC $DC @36 (!0,0) v101 y10 > $EE $00 f+12... r16..
$EF $59 $DC $DC @32 v89 < f=65
r16 $EF $95 $DC $DC @34 (!1,-1) (!6,3) v84 > f+=102


@30 (!0,0) (!1,-1) (!172,3) v94 y7 < $EE $E3 c=23 r=27
@34 (!0,0) (!1,-1) (!6,3) v84 y10 > $EE $00 f+=78
@30 (!0,0) (!1,-1) (!33,3) v94 y7 < $EE $E3 c=23
r96 $EF $1D $DC $DC @32 (!0,0) v89 y10 $EE $00 f3
r32.. $EF $C1 $DC $DC @31 v123 > f+8
$EF $D1 $DC $DC @34 (!1,-1) (!6,3) v84 f+=52
@30 (!0,0) (!1,-1) (!33,3) v94 y7 < $EE $D8 g=23 r=27
$EE $E3 c8 r96 $EF $E1 $DC $DC @31 (!0,0) v123 y10 > $EE $00 f+8
@34 (!1,-1) (!6,3) v84 f+=51
@30 (!0,0) (!1,-1) (!192,3) v94 y7 < $EE $D7 a+8 r=27
(!99,3) a+8
r64 $EF $C6 $DC $DC @36 (!0,0) v110 y10 > $EE $00 f+=29 r16..
$EF $B0 $DC $DC @34 (!1,-1) (!6,3) v84 f+=77
@30 (!0,0) (!1,-1) (!44,3) v94 y7 < $EE $D8 g8
$EF $D2 $DC $DC @34 (!0,0) (!1,-1) (!6,3) v84 y10 > $EE $00 f+=52
@30 (!0,0) (!1,-1) (!193,3) v94 y7 < $EE $D8 a8 r96 @31 (!0,0) v123 y10 > $EE $00 f+8
r=26 @30 (!1,-1) (!33,3) v94 y7 < $EE $D7 a+8
r96 $EF $F0 $DC $DC @34 (!0,0) (!1,-1) (!6,3) v84 y10 > $EE $00 f+=76

@30 (!0,0) (!1,-1) (!1,3) v94 y7 < $EE $E3 c96 r4
(!194,3) c8 $EF $85 $DC $DC @36 (!0,0) v101 y10 > $EE $00 f+12...
r16 $EF $6F $DC $DC @35 (!1,-1) (!10,3) v98 y6 < $EE $C8 a+=25 r=34
$EF $67 $DC $DC @34 (!0,0) (!1,-1) (!6,3) v84 y10 > $EE $00 f+=52
$EF $76 $DC $DC f+=26
$EF $3E $DC $DC @37 (!0,0) (!1,-1) (!6,3) v133 y7 $EE $03 a+=51
@30 (!0,0) (!1,-1) (!33,3) v94 < $EE $E3 c=23 r=5 $EF $CA $DC $DC @37 (!0,0) v118 > $EE $06 g=52

r=20 $EF $9B $DC $DC @32 v89 y10 < $EE $00 d+=63
r16
$EF $62 $DC $DC @34 (!1,-1) (!6,3) v84 > f+=55
@33 (!0,0) (!1,-1) (!195,3) v102 y15 < $EE $3D f=52
r=20 @32 (!0,0) v89 y10 $EE $00 a+3
r32.
@33 (!1,-1) (!196,3) v96 y16 $EE $3D a+=57
r=20 $EF $DB $DC $DC @37 (!0,0) v144 y7 > $EE $FF b=52
$EF $33 $DC $DC @34 (!16,-1) (!6,3) v84 y10 $EE $00 f+=27
@30 (!0,0) (!1,-1) (!33,3) v94 y7 $EE $D9 d8 r16..
$EF $EB $DC $DC @33 (!0,0) (!1,-1) (!197,3) y15 < $EE $3D f=31
r16.. @37 (!0,0) v125 y7 > $EE $FF b=52
$EF $EF $DC $DC @33 (!1,-1) (!33,3) v94 y15 < $EE $3D a+6..
r16...
$EF $FE $DC $DC @32 (!0,0) (!1,-1) (!6,3) v89 y10 $EE $00 a+=52
@30 (!0,0) (!1,-1) (!50,3) v94 y7 $EE $D9 f8 (!103,3) f8
(!198,3) > $EE $D8 d+8 r96 $EF $BF $DC $DC @32 (!0,0) (!1,-1) (!6,3) v89 y10 $EE $00 c=27
@30 (!0,0) (!1,-1) (!33,3) v94 y7 < $EE $E3 c=23 r=27
$EF $A3 $DC $DC @34 (!0,0) (!1,-1) (!6,3) v84 y10 > $EE $00 f+=26 @30 (!0,0) (!1,-1) (!33,3) v94 y7 < $EE $D8 a=23
r96 $EF $B7 $DC $DC @34 (!0,0) (!1,-1) (!6,3) v84 y10 > $EE $00 f+=51
$EF $95 $DC $DC f+=78

$EF $A7 $DC $DC (!1,3) f+96 r16.. @30 (!0,0) (!1,-1) (!33,3) v94 y7 < $EE $E3 c8
c8 r96 $EF $C1 $DC $DC @34 (!0,0) (!1,-1) (!6,3) v84 y10 > $EE $00 f+=77

@30 (!0,0) (!1,-1) (!199,3) v94 y7 < $EE $E3 c=23 r96 @32 (!0,0) (!1,-1) (!6,3) v89 y10 $EE $00 d+8....
@35 (!0,0) (!1,-1) (!10,3) v93 y6 > $EE $C0 a+=29
r=26 @34 (!0,0) (!1,-1) (!6,3) v84 y10 $EE $00 f+=47
@35 (!0,0) (!1,-1) (!10,3) v76 y6 $EE $C6 d+=33
r16. $EF $BE $DC $DC v92 y7 $EE $C4 e=40
r=39
$EF $67 $DC $DC @31 (!0,0) v123 y10 $EE $00 f+=25
@34 (!1,-1) (!6,3) v84 f+=52
@30 (!0,0) (!1,-1) (!33,3) v94 y7 < $EE $D8 g8 $EF $37 $DC $DC @34 (!0,0) (!1,-1) (!6,3) v84 y10 > $EE $00 f+=51
$EF $27 $DC $DC @36 (!0,0) v110 f+=29
r=15 $EF $7B $DC $DC @35 (!1,-1) (!10,3) v92 y7 $EE $C4 e=26
r=31 $EF $23 $DC $DC @34 (!0,0) (!1,-1) (!6,3) v84 y10 $EE $00 f+=53
@30 (!0,0) (!1,-1) (!33,3) v94 y7 < $EE $D9 f=23
$EF $77 $DC $DC @34 (!0,0) (!1,-1) (!6,3) v84 y10 > $EE $00 f+=51
$EF $A7 $DC $DC f+=51
@30 (!0,0) (!1,-1) (!135,3) v94 y7 $EE $D8 d+8
r96 @34 (!0,0) (!1,-1) (!6,3) v84 y10 $EE $00 f+=52
@30 (!0,0) (!1,-1) (!1,3) v94 y7 < $EE $D9 f96 r=23 $EF $A7 $DC $DC @34 (!0,0) (!1,-1) (!6,3) v84 y10 > $EE $00 f+=51
@30 (!0,0) (!1,-1) (!1,3) v94 y7 < $EE $D8 g96 r=23
$EF $67 $DC $DC @36 (!0,0) v101 y10 > $EE $00 f+=29 r=20
$EF $3F $DC $DC @32 (!1,-1) (!6,3) v89 < f=27 @30 (!0,0) (!1,-1) (!1,3) v94 y7 $EE $D7 a+96 r16..
$EF $B7 $DC $DC @34 (!0,0) (!1,-1) (!6,3) v84 y10 > $EE $00 f+=52
$EF $A7 $DC $DC f+=27 @30 (!0,0) (!1,-1) (!1,3) v94 y7 < $EE $E3 c96
r16... (!138,3) c8 $EF $35 $DC $DC @34 (!0,0) (!1,-1) (!6,3) v84 y10 > $EE $00 f+=77

$EF $67 $DC $DC f+=51
@30 (!0,0) (!1,-1) (!33,3) v94 y7 < $EE $D8 a8
$EF $06 $DC $DC @34 (!0,0) (!1,-1) (!6,3) v84 y10 > $EE $00 f+=77
@30 (!0,0) (!1,-1) (!200,3) v94 y7 < $EE $E3 c=23
r96 (!31,3) $EE $D7 a+8 @34 (!0,0) (!1,-1) (!6,3) v84 y10 > $EE $00 f+=23
@37 (!0,0) (!1,-1) (!1,3) v118 y7 < $EE $12 c96 @40 (!0,0) (!1,-1) (!6,3) v113 y10 > $EE $00 f+=26 @37 (!0,0) (!1,-1) (!6,3) v106 y7 $EE $07 c=27
$EF $EF $DC $DC c=27 @32 (!0,0) v89 y10 < $EE $00 a+=63

r=7 @33 (!1,-1) (!201,3) v109 y15 > $EE $42 d12..
r=20 (!33,3) v87 c16. r=33
v84 $EE $3C f8 r=29
(!202,3) v111 $EE $39 g+=44
r=35
@37 (!0,0) (!1,-1) (!6,3) v106 y7 < $EE $07 f=26 $EF $EF $DC $DC $EE $0C g+=26
$EF $FF $DC $DC > $EE $08 d=27 $EF $E7 $DC $DC @40 (!0,0) (!1,-1) (!1,3) v113 y10 $EE $00 f+96 r=47
$EF $DF $DC $DC @37 (!0,0) (!1,-1) (!6,3) v106 y7 < $EE $0C g+=26
@32 (!0,0) (!1,-1) (!1,3) v89 y10 $EE $00 g+96 r=23 (!6,3) g+=26
g=26
@35 (!0,0) (!1,-1) (!10,3) v79 y6 > $EE $C4 e16... r=23 @33 (!0,0) (!1,-1) (!59,3) v92 y15 $EE $3A g8
r12..
v102 > $EE $35 c=27 r=23
@35 (!0,0) (!16,-1) (!10,3) v92 y7 < $EE $C3 f12... r16.
v79 y6 $EE $C0 g=23 r=29
$EF $7F $DC $DC @33 (!0,0) (!1,-1) (!59,3) v94 y15 > $EE $35 c=43
r8. $EF $EF $DC $DC @37 (!0,0) (!1,-1) (!6,3) v106 y7 << $EE $07 e=27
@32 (!0,0) v89 y10 $EE $00 g3
r=11 @37 (!1,-1) (!6,3) v106 y7 $EE $07 e=27
$EF $3F $DC $DC @32 (!0,0) (!1,-1) (!6,3) v89 y10 $EE $00 g=26
@38 (!0,0) $ED $80 $7F v113 $EE $87 d+=26 r=23
@32 v89 < $EE $00 g=63
r=13 @30 (!1,-1) (!59,3) v110 y7 >> $EE $D9 d=23
r=26 $EF $87 $DC $DC @34 (!0,0) (!1,-1) (!6,3) v84 y10 $EE $00 f+6
@37 (!0,0) v133 y7 $EE $FF b=52
r16. $EF $7B $DC $DC @32 v89 y10 < $EE $00 c=65

r=11 $EF $5F $DC $DC (!1,-1) (!6,3) < g=27 @30 (!0,0) (!1,-1) (!73,3) v110 y7 > $EE $D8 g8
(!123,3) g=23 r96 @33 (!0,0) (!1,-1) (!59,3) v96 y16 $EE $3B c=33
r16.
(!203,3) c=23 r=27
$EF $57 $DC $DC @34 (!0,0) (!16,-1) (!6,3) v84 y10 > $EE $00 f+=52
@30 (!0,0) (!1,-1) (!59,3) v110 y7 $EE $DA f8 r=26
(!75,3) < $EE $D8 g8 r96 $EF $D5 $DC $DC @36 (!0,0) y10 > $EE $00 f+=29
r=20 @34 (!1,-1) (!6,3) v84 f+12..
@30 (!0,0) (!1,-1) (!59,3) v110 y7 $EE $D9 d=23 r=26
$EF $E4 $DC $DC @34 (!0,0) (!1,-1) (!6,3) v84 y10 $EE $00 f+=77
@30 (!0,0) (!1,-1) (!204,3) v110 y7 $EE $DC e=23
r96 @37 (!0,0) v144 > $EE $FB e=52
r8
$EF $CE $DC $DC @32 (!1,-1) (!6,3) v89 y10 <<< $EE $00 g=52
@30 (!0,0) (!1,-1) (!1,3) v110 y7 >> $EE $DC e96 r16... $EF $F9 $DC $DC @37 (!0,0) (!1,-1) (!6,3) v147 > $EE $FB e=51
$EF $D7 $DC $DC @34 (!0,0) (!16,-1) (!6,3) v84 y10 < $EE $00 f+=26
@30 (!0,0) (!1,-1) (!1,3) v110 y7 $EE $DC e96 r=47
(!171,3) < $EE $D8 g8 r96 @32 (!0,0) v89 y10 $EE $00 c3

r96 @37 (!1,-1) (!6,3) v125 y7 > $EE $FF b=23 $EF $AF $DC $DC v118 > $EE $FE c+=38
@30 (!0,0) (!1,-1) (!164,3) v110 << $EE $D8 g8 @33 (!0,0) (!1,-1) (!205,3) v96 y16 $EE $3B c=29
r16..
$EF $A7 $DC $DC @34 (!0,0) (!16,-1) (!6,3) v84 y10 > $EE $00 f+=77
@30 (!0,0) (!1,-1) (!59,3) v110 y7 < $EE $E3 c8
@32 (!0,0) v89 y10 $EE $00 f=65
r16 @31 v123 > f+=25
$EF $F7 $DC $DC @34 (!1,-1) (!6,3) v84 f+=52
$EF $B6 $DC $DC f+=51
$EF $3F $DC $DC @32 (!0,0) (!1,-1) (!1,3) v89 < f96 r16... @30 (!0,0) (!1,-1) (!59,3) v110 y7 $EE $D8 a8
r=26 @32 (!0,0) (!1,-1) (!6,3) v89 y10 $EE $00 f=29
$EF $DF $DC $DC @37 (!0,0) (!1,-1) (!6,3) v118 y7 >> $EE $F7 g+4
$EF $47 $DC $DC @34 (!0,0) (!16,-1) (!6,3) v84 y10 < $EE $00 f+=27
@30 (!0,0) (!1,-1) (!59,3) v110 y7 < $EE $D8 a=23 $EE $D7 a+8
r96 $EF $AE $DC $DC @32 (!0,0) (!1,-1) (!6,3) v89 y10 $EE $00 f=27 @30 (!0,0) (!1,-1) (!59,3) v110 y7 > $EE $D9 d=23
r=26 $EF $B3 $DC $DC @34 (!0,0) (!1,-1) (!6,3) v84 y10 $EE $00 f+=77

@30 (!0,0) (!1,-1) (!153,3) v110 y7 < $EE $D8 g=23 r64 $EF $6F $DC $DC @32 (!0,0) v89 y10 $EE $00 c3

r=11 @31 v123 > f+8 @34 (!1,-1) (!6,3) v84 f+=51
f+=51

f+=27 @30 (!0,0) (!1,-1) (!59,3) v110 y7 < $EE $D8 g=23
r=27 $EF $F1 $DC $DC @34 (!0,0) (!1,-1) (!6,3) v84 y10 > $EE $00 f+=77

@30 (!0,0) (!1,-1) (!1,3) v110 y7 < $EE $D8 g96 r16... @31 (!0,0) v123 y10 > $EE $00 f+8
@30 (!1,-1) (!17,3) v110 y7 $EE $DA f8 r96 $EF $FB $DC $DC @32 (!0,0) (!1,-1) (!6,3) v89 y10 < $EE $00 c=27
@30 (!0,0) (!1,-1) (!59,3) v110 y7 $EE $DC d=23 r=26
$EF $A3 $DC $DC @34 (!0,0) (!1,-1) (!6,3) v84 y10 > $EE $00 f+=77
@30 (!0,0) (!1,-1) (!98,3) v110 y7 < $EE $D8 b8
$EF $AE $DC $DC @32 (!0,0) v89 y10 $EE $00 g3
r16
(!1,-1) (!6,3) d=26 @30 (!0,0) (!1,-1) (!59,3) v110 y7 $EE $DC d8
r96 $EF $BB $DC $DC @32 (!0,0) (!1,-1) (!6,3) v89 y10 $EE $00 g=26 @30 (!0,0) (!1,-1) (!59,3) v110 y7 $EE $E3 c=23
r=26 @32 (!0,0) v89 y10 $EE $00 f3

r=11 $EF $4D $DC $DC f=65
r16 (!1,-1) (!6,3) f=52
@30 (!0,0) (!1,-1) (!174,3) v110 y7 $EE $E3 c8
@34 (!0,0) (!1,-1) (!1,3) v84 y10 > $EE $00 f+96 r=23 @30 (!0,0) (!1,-1) (!129,3) v110 y7 $EE $D9 d=23
r96 $EF $65 $DC $DC @34 (!0,0) (!1,-1) (!6,3) v84 y10 $EE $00 f+=52
$EF $85 $DC $DC f+=76

@30 (!0,0) (!1,-1) (!59,3) v110 y7 < $EE $D8 g=23 r=27
@34 (!0,0) (!1,-1) (!6,3) v84 y10 > $EE $00 f+=52
$EF $DF $DC $DC @30 (!0,0) (!1,-1) (!69,3) v110 y7 $EE $DA f8 $EF $B7 $DC $DC @34 (!0,0) (!1,-1) (!6,3) v84 y10 $EE $00 f+=27
@32 (!0,0) (!1,-1) (!6,3) v89 < g=25 @30 (!0,0) (!1,-1) (!1,3) v112 y7 $EE $DC d96 r4
(!59,3) v118 d8
r=25 (!130,3) v125 d8
r96 (!46,3) $EE $D8 a8 r=26
(!47,3) $EE $DC d8
r=27 @38 (!0,0) $ED $80 $7F v110 y10 $EE $87 b16. r24
@30 (!1,-1) (!59,3) v125 y7 $EE $D8 a8 $EF $FF $DC $DC @37 (!0,0) (!1,-1) (!6,3) v110 $EE $07 f=27
@32 (!0,0) (!1,-1) (!6,3) v89 y10 $EE $00 c=26 c=27
(!1,3) c96 r16... (!6,3) c=26
(!1,3) c96 r=23 c96 r=23
(!6,3) c=26 (!1,3) c96 r16...
(!6,3) c=27 (!1,3) c96
r16... c96 r=23
d96 r4
d3
r2^4.....



@37 (!0,0) (!1,-1) (!6,3) v127 y7 $EE $0C g=26 (!1,3) > $EE $07 c96 r=23
@32 (!0,0) (!1,-1) (!6,3) v89 y10 < $EE $00 g=26 $EF $FF $DC $DC (!1,3) g96 r=23
(!6,3) g=26
$EF $EF $DC $DC (!1,3) g96 r16... $EF $FF $DC $DC (!6,3) g=27
(!1,3) g96 r16... (!6,3) g=27
$EF $FF $DC $DC (!1,3) g96 r16.. (!6,3) g=27
g=26 @35 (!0,0) (!1,-1) (!10,3) v98 y6 > $EE $C4 e=17
r8.. @37 (!0,0) v127 y7 << $EE $11 g=51

r2^=95


@30 (!1,-1) (!157,3) v118 >>> $EE $CB f8


#4 r=76
@30 (!1,-1) (!3,3) v94 y7 o4 $EE $DC d8
r=102

$EF $BD $DC $DC (!142,3) > $EE $D8 c8 r=51
(!206,3) < b8
r=78
(!3,3) $EE $DC d8
r=102

$EF $DD $DC $DC (!207,3) > $EE $D8 c8
r=53
(!3,3) < b8 r=76

@36 (!0,0) v101 y10 > $EE $00 f+12... r=47
@30 (!1,-1) (!3,3) v94 y7 < $EE $DC d8
r=51
$EE $D8 b8 r=52
(!160,3) $EE $DC d8
r=53
(!3,3) $EE $D8 b8
r=52
$EE $DC d8 r=77

(!161,3) > $EE $D8 c8 r=27
(!3,3) < a8 r=26
a8 r96 $EF $47 $DC $DC @34 (!0,0) (!1,-1) (!6,3) v84 y10 > $EE $00 f+=78

f+=77

@30 (!0,0) (!1,-1) (!1,3) v94 y7 < $EE $DC d96 r16.. (!3,3) d8
$EE $D8 b8 r96 $EF $43 $DC $DC @34 (!0,0) (!1,-1) (!6,3) v84 y10 > $EE $00 f+=77

@30 (!0,0) (!1,-1) (!124,3) v94 y7 < $EE $DC d=23 r=27
$EF $08 $DC $DC @34 (!0,0) (!1,-1) (!1,3) v84 y10 > $EE $00 f+96 r=100

@30 (!0,0) (!1,-1) (!3,3) v94 y7 < $EE $D8 b8 (!208,3) > c8
(!164,3) < $EE $DC d8 r64 @32 (!0,0) v89 y10 < $EE $00 g3

r24 @35 (!1,-1) (!10,3) v86 y6 >> $EE $C1 a16 r=43
$EF $BF $DC $DC @32 (!0,0) (!1,-1) (!6,3) v89 y10 << $EE $00 g=26
$EF $AF $DC $DC @34 (!0,0) (!1,-1) (!1,3) v84 >> f+96 $EF $BE $DC $DC @33 (!0,0) (!1,-1) (!3,3) v96 y16 > $EE $33 d=26 r=23
@30 (!0,0) (!1,-1) (!126,3) v94 y7 < $EE $D8 c8 r96 $EF $EA $DC $DC @34 (!0,0) (!1,-1) (!1,3) v84 y10 $EE $00 f+96 r8
@33 (!0,0) (!1,-1) (!209,3) v105 y15 $EE $39 a+=23 r=23
$EF $F3 $DC $DC (!3,3) v102 a+=50
r12.. $EF $2F $DC $DC @31 (!0,0) $ED $80 $7F v123 y10 $EE $00 f+8
r=26 @30 (!1,-1) (!166,3) v94 y7 < $EE $DC d8
r96 @31 (!0,0) v123 y10 > $EE $00 f+8 r=26
@30 (!1,-1) (!210,3) v94 y7 < $EE $DC d8
r64 @36 (!0,0) v110 y10 > $EE $00 f+=29 r16..
@34 (!1,-1) (!6,3) v84 f+=100

@33 (!0,0) (!1,-1) (!211,3) v94 y15 $EE $3A g=79
r8
$EF $23 $DC $DC @34 (!0,0) (!16,-1) (!6,3) v84 y10 $EE $00 f+=52
@30 (!0,0) (!1,-1) (!3,3) v94 y7 $EE $DC e=23 (!154,3) $EE $DA f8
(!114,3) < $EE $D8 g8 r64 $EF $AD $DC $DC @31 (!0,0) v123 y10 > $EE $00 f+8
@34 (!1,-1) (!6,3) v84 f+=52
@30 (!0,0) (!1,-1) (!3,3) v94 y7 $EE $DC e8
r=26 @32 (!0,0) (!1,-1) (!6,3) v89 y10 < $EE $00 c=26
@30 (!0,0) (!1,-1) (!6,3) v94 y7 > $EE $DA f48 $EF $7B $DC $DC @33 (!0,0) (!1,-1) (!212,3) v87 y15 > $EE $33 d24.. r=31
(!213,3) v96 y16 $EE $34 c+=29 r16...
@35 (!0,0) (!16,-1) (!10,3) v92 y7 < $EE $C2 f+=26 r=27
v93 y6 $EE $C6 d+=55
r=20 $EF $6B $DC $DC @31 (!0,0) $ED $80 $7F v123 y10 $EE $00 f+8
$EF $2F $DC $DC @34 (!16,-1) (!6,3) v84 f+=51
@30 (!0,0) (!1,-1) (!192,3) v94 y7 < $EE $DC d8 r=27
$EF $29 $DC $DC @34 (!0,0) (!1,-1) (!6,3) v84 y10 > $EE $00 f+=27
@30 (!0,0) (!1,-1) (!3,3) v94 y7 < $EE $D8 b8 > c8
r96 < $EE $DC d8 @31 (!0,0) v123 y10 > $EE $00 f+=25
r=27 $EF $59 $DC $DC @35 (!1,-1) (!10,3) v101 y7 $EE $C3 f8
r=26 $EF $13 $DC $DC @32 (!0,0) (!1,-1) (!6,3) v89 y10 << $EE $00 f=52
@30 (!0,0) (!1,-1) (!3,3) v94 y7 >> $EE $D8 c8
r=26 < $EE $DC d8
@36 (!0,0) v110 y10 > $EE $00 f+=31
r16.. $EF $2F $DC $DC @34 (!1,-1) (!6,3) v84 f+=34
$EF $3D $DC $DC @33 (!0,0) (!1,-1) (!3,3) y15 < $EE $3D a+64 r=39
@30 (!0,0) (!1,-1) (!214,3) v104 y7 > $EE $DC e8 r96 $EF $2F $DC $DC @31 (!0,0) v123 y10 $EE $00 f+8
r=26 $EF $3B $DC $DC @32 (!1,-1) (!6,3) v89 < d=26
@30 (!0,0) (!1,-1) (!3,3) v104 y7 > $EE $D7 g8 r=26
$EF $29 $DC $DC @34 (!0,0) (!1,-1) (!6,3) v84 y10 $EE $00 f+=26 @30 (!0,0) (!1,-1) (!168,3) v104 y7 $EE $D5 f+8
(!69,3) $EE $D7 g8 r96 (!215,3) < $EE $D8 a8
r96 $EF $5D $DC $DC @32 (!0,0) (!1,-1) (!6,3) v89 y10 $EE $00 c=52
@30 (!0,0) (!1,-1) (!1,3) v94 y7 > $EE $D9 d96 r=23 $EF $EE $DC $DC @34 (!0,0) (!1,-1) (!6,3) v84 y10 $EE $00 f+=51

@30 (!0,0) (!1,-1) (!1,3) v94 y7 < $EE $D8 g96 r16.. $EF $AE $DC $DC @34 (!0,0) (!1,-1) (!6,3) v84 y10 > $EE $00 f+=78

@30 (!0,0) (!1,-1) (!1,3) v94 y7 < $EE $D8 g96 r16... $EF $87 $DC $DC @34 (!0,0) (!1,-1) (!6,3) v84 y10 > $EE $00 f+=52
@30 (!0,0) (!1,-1) (!1,3) v104 y7 < $EE $DC d96 r=47
$EF $85 $DC $DC @34 (!0,0) (!1,-1) (!6,3) v84 y10 > $EE $00 f+=27
@30 (!0,0) (!1,-1) (!216,3) v104 y7 < $EE $D8 b=23 @34 (!0,0) (!1,-1) (!6,3) v84 y10 > $EE $00 f+=52
$EF $67 $DC $DC f+=51
@30 (!0,0) (!1,-1) (!3,3) v104 y7 < $EE $DC d8
$EF $ED $DC $DC @36 (!0,0) v110 y10 > $EE $00 f+12...
r=5 @35 (!1,-1) (!10,3) v89 y6 > $EE $BC c16... r16. $EF $75 $DC $DC @32 (!0,0) y10 <<< $EE $00 g=65

r16 $EF $3F $DC $DC @33 (!1,-1) (!3,3) v109 y15 >> $EE $3D c+8...
r2^8.


$EF $7B $DC $DC @32 (!0,0) (!1,-1) (!6,3) v93 y10 < $EE $00 c=52
$EF $4C $DC $DC @34 (!0,0) (!1,-1) (!1,3) v84 > f+96 r=73
@30 (!0,0) (!1,-1) (!3,3) v110 y7 < $EE $DC d=23
r96 $EF $0F $DC $DC @34 (!0,0) (!1,-1) (!6,3) v84 y10 > $EE $00 f+=52
@30 (!0,0) (!1,-1) (!217,3) v110 y7 $EE $D8 c8
r=25 (!22,3) c8
r64 @36 (!0,0) y10 $EE $00 f+=29 r16..
@30 (!1,-1) (!3,3) y7 < $EE $DC d8 $EF $CB $DC $DC @31 (!0,0) v123 y10 > $EE $00 f+=25
r16... $EF $FE $DC $DC @37 (!1,-1) (!6,3) v140 y7 $EE $FF b12...
@30 (!0,0) (!1,-1) (!199,3) v110 < $EE $D8 b8 r=26
@34 (!0,0) (!1,-1) (!6,3) v84 y10 > $EE $00 f+=78
@37 (!0,0) v147 y7 a=52
r=23
$EF $61 $DC $DC @34 (!16,-1) (!6,3) v84 y10 f+=102

$EF $69 $DC $DC @36 (!0,0) $ED $80 $7F v101 f+=29
r16.. $EF $2A $DC $DC @34 (!16,-1) (!6,3) v84 f+=102

f+=78

@31 (!0,0) $ED $80 $7F v123 f+=23 r64 $EF $B7 $DC $DC @37 (!1,-1) (!6,3) v127 y7 a=49
@34 (!0,0) (!16,-1) (!16,3) v84 y10 f+96 r4
@30 (!0,0) (!1,-1) (!89,3) v110 y7 < $EE $D8 b8
r96 $EF $EB $DC $DC @31 (!0,0) v123 y10 > $EE $00 f+8
$EF $4F $DC $DC @34 (!1,-1) (!6,3) v84 f+=52
@30 (!0,0) (!1,-1) (!1,3) v110 y7 < $EE $DC d96 r16... (!3,3) d8
d8 r96 @35 (!0,0) (!1,-1) (!10,3) v98 y6 > $EE $C6 d+12...
r=20 $EF $E3 $DC $DC @34 (!0,0) (!1,-1) (!6,3) v84 y10 $EE $00 f+=76

$EF $AA $DC $DC f+=78
$EF $97 $DC $DC @37 (!0,0) v144 y7 $EE $FF b=52
r16..
(!1,-1) (!1,3) v133 $EE $00 a96 r=25 @30 (!0,0) (!1,-1) (!218,3) v110 $EE $D9 d=23
r24 $EF $7E $DC $DC @37 (!0,0) (!1,-1) (!6,3) v118 $EE $00 a=47
$EF $2F $DC $DC @34 (!0,0) (!16,-1) (!16,3) v84 y10 f+96 r4
@30 (!0,0) (!1,-1) (!3,3) v110 y7 $EE $DC e8
$EF $EB $DC $DC @31 (!0,0) v123 y10 $EE $00 f+8 r=25
@37 v144 y7 $EE $FF b=53
$EF $CB $DC $DC @34 (!16,-1) (!6,3) v84 y10 $EE $00 f+=52
$EF $05 $DC $DC f+=76
@30 (!0,0) (!1,-1) (!3,3) v110 y7 < $EE $DC d=23
@34 (!0,0) (!1,-1) (!6,3) v84 y10 > $EE $00 f+=51
@30 (!0,0) (!1,-1) (!219,3) v110 y7 < $EE $DC d8 r=25
$EF $17 $DC $DC @37 (!0,0) (!1,-1) (!6,3) v144 > $EE $08 d12...
$EF $7C $DC $DC v133 $EE $07 e=52
r16... $EF $5E $DC $DC @33 (!0,0) (!1,-1) (!3,3) v96 y16 < $EE $3D g=33
r16. (!178,3) g8
r=26 $EF $2D $DC $DC @34 (!0,0) (!16,-1) (!6,3) v84 y10 > $EE $00 f+=103

@30 (!0,0) (!1,-1) (!1,3) v110 y7 < $EE $DC d96 r=23
$EF $4A $DC $DC @34 (!0,0) (!1,-1) (!6,3) v84 y10 > $EE $00 f+=76

@30 (!0,0) (!1,-1) (!141,3) v118 y7 < $EE $D8 a=23 r=26
(!70,3) a8 r96 $EF $CB $DC $DC @36 (!0,0) v101 y10 > $EE $00 f+=29
r16.. @30 (!1,-1) (!33,3) v118 y7 < $EE $D8 a8
@31 (!0,0) v123 y10 > $EE $00 f+=25 r=26
@30 (!1,-1) (!142,3) v118 y7 $EE $D7 g8 r96 $EF $E6 $DC $DC @36 (!0,0) v110 y10 $EE $00 f+=29
r24 @35 (!1,-1) (!10,3) v98 y6 $EE $C6 d+16. r16..
$EF $7A $DC $DC $EE $C4 c8...
r=31 $EF $A3 $DC $DC @31 (!0,0) v123 y10 $EE $00 f+8
@34 (!1,-1) (!6,3) v84 f+=53
$EF $72 $DC $DC @37 (!0,0) v133 y7 $EE $08 d=53
r16...
@36 $ED $80 $7F v110 y10 $EE $00 f+12... r16..
$EF $B5 $DC $DC @32 (!1,-1) (!1,3) v89 < d+96 r=23 @30 (!0,0) (!1,-1) (!33,3) v118 y7 $EE $D8 a=23
r=27 $EF $B5 $DC $DC @33 (!0,0) (!1,-1) (!72,3) v96 y16 $EE $3D g8
r=27 $EF $A8 $DC $DC @34 (!0,0) (!16,-1) (!6,3) v84 y10 > $EE $00 f+=104

$EF $98 $DC $DC @37 (!0,0) (!1,-1) (!1,3) v125 y7 $EE $07 c96 r16..
@30 (!0,0) (!1,-1) (!33,3) v118 < $EE $D8 b=23 r96 (!73,3) > c8
(!123,3) < $EE $DC d8 r64 (!220,3) v120 d16.
r=33
$EF $CF $DC $DC @36 (!0,0) v110 y10 > $EE $00 f+=29 r32. @37 v104 y7 a=53
r32.
v140 b=52
r=101

$EF $5B $DC $DC @30 (!1,-1) (!33,3) v94 < $EE $D8 g8 r8
@35 (!0,0) (!1,-1) (!10,3) v98 y6 $EE $C3 g16. r=35
> $EE $C4 c=23 r12..
v101 y7 < $EE $C5 a6
r=19 @39 (!0,0) $ED $80 $7F v113 y10 > $EE $00 b12 r32.
@30 (!1,-1) (!33,3) v94 y7 < $EE $D8 g8 @39 (!0,0) $ED $80 $7F v113 y10 > $EE $00 b=17 r32..
$EF $FF $DC $DC @32 (!1,-1) (!6,3) v97 << a+=26 @30 (!0,0) (!1,-1) (!33,3) v94 y7 > $EE $D8 a8
r12.. @33 (!0,0) (!1,-1) (!221,3) v102 y15 $EE $3D g1^=26




r24 @32 (!0,0) (!1,-1) (!6,3) v97 y10 < $EE $00 g=51
@33 (!0,0) (!1,-1) (!222,3) v84 y15 >> $EE $42 d16... r12..
(!223,3) v109 c12...
r16. (!224,3) v94 < $EE $3D a+=13 r16..
@30 (!0,0) (!1,-1) (!33,3) y7 > $EE $DA f8 r12
@33 (!0,0) (!1,-1) (!33,3) y15 < $EE $3D a+16 r16. @32 (!0,0) (!1,-1) (!6,3) v97 y10 $EE $00 c=26
$EF $FF $DC $DC c=27 @39 (!0,0) $ED $80 $7F v113 > b=15
r32. @32 v97 << g3
r16 (!1,-1) (!6,3) g=26
@30 (!0,0) (!1,-1) (!225,3) v94 y7 > $EE $D8 a8 @39 (!0,0) $ED $80 $7F v113 y10 > $EE $00 b=15
r24 @35 (!1,-1) (!10,3) v101 y6 $EE $C3 f=26 r=26
$EE $C4 d=27
r8 d=26
r=26 @33 (!0,0) v96 y16 < $EE $3D f1^=105





r=7
$EF $93 $DC $DC @32 v89 y10 $EE $00 f3
r16 (!1,-1) (!6,3) c=52
$EF $3B $DC $DC @30 (!0,0) (!1,-1) (!1,3) v94 y7 $EE $D8 a96 r16...
@31 (!0,0) v123 y10 > $EE $00 f+8 r=25
@30 (!1,-1) (!155,3) v94 y7 < $EE $D7 a+8 r96 @34 (!0,0) (!1,-1) (!6,3) v84 y10 > $EE $00 f+=78

@30 (!0,0) (!1,-1) (!33,3) v94 y7 < $EE $E3 c=23 r=26
$EE $D8 g8 @36 (!0,0) v101 y10 > $EE $00 f+=31
r16.. $EF $D8 $DC $DC @32 v89 < f3

r=11 $EF $86 $DC $DC @34 (!1,-1) (!6,3) v84 > f+=103

@30 (!0,0) (!1,-1) (!33,3) v94 y7 < $EE $D8 g8
r8 @33 (!0,0) (!1,-1) (!33,3) v96 y16 $EE $3D a+1^=71





r16. $EF $8C $DC $DC @34 (!0,0) (!16,-1) (!6,3) v84 y10 > $EE $00 f+=52
@30 (!0,0) (!1,-1) (!33,3) v94 y7 < $EE $D8 a=23
@34 (!0,0) (!1,-1) (!6,3) v84 y10 > $EE $00 f+=52
$EF $A7 $DC $DC f+=52
@30 (!0,0) (!1,-1) (!1,3) v94 y7 < $EE $D7 a+96 r=23 @31 (!0,0) v123 y10 > $EE $00 f+8
@30 (!1,-1) (!69,3) v94 y7 < $EE $D7 a+8 (!215,3) $EE $E3 c8
r64 @32 (!0,0) v89 y10 $EE $00 f3
r=11 @31 v123 > f+8
r=26 $EF $93 $DC $DC @32 v89 < f=65

r=11 $EF $E8 $DC $DC @34 (!1,-1) (!6,3) v84 > f+=54
$EF $5D $DC $DC @37 (!0,0) (!1,-1) (!1,3) v118 y7 $EE $03 a+96 r8....
@30 (!0,0) (!1,-1) (!33,3) v94 $EE $D8 c8
r=26 @34 (!0,0) (!1,-1) (!6,3) v84 y10 $EE $00 f+=26
@30 (!0,0) (!1,-1) (!226,3) v94 y7 < $EE $D9 f8 $EF $ED $DC $DC @34 (!0,0) (!1,-1) (!6,3) v84 y10 > $EE $00 f+=26
@30 (!0,0) (!1,-1) (!85,3) v94 y7 $EE $D9 d8 r64 @31 (!0,0) v123 y10 $EE $00 f+8
r16... $EF $3D $DC $DC @33 (!1,-1) (!33,3) v96 y16 < $EE $44 g+8
r=31 @34 (!0,0) (!16,-1) (!6,3) v84 y10 > $EE $00 f+=51

$EF $6B $DC $DC f+=52
@30 (!0,0) (!1,-1) (!1,3) v94 y7 $EE $D8 c96 r=23 $EF $7B $DC $DC @32 (!0,0) (!1,-1) (!6,3) v89 y10 < $EE $00 f=51
$EF $CE $DC $DC @34 (!0,0) (!1,-1) (!6,3) v84 > f+=29
$EF $FD $DC $DC @33 (!0,0) (!1,-1) (!227,3) v102 y15 < $EE $42 b=34 r=37
$EF $EA $DC $DC @31 (!0,0) $ED $80 $7F v123 y10 > $EE $00 f+8
@30 (!1,-1) (!198,3) v94 y7 < $EE $D9 f8 $EF $AF $DC $DC @34 (!0,0) (!1,-1) (!6,3) v84 y10 > $EE $00 f+12..
@30 (!0,0) (!1,-1) (!33,3) v94 y7 < $EE $D8 g8 r=26
$EE $E3 c8 $EF $A7 $DC $DC @36 (!0,0) v101 y10 > $EE $00 f+=31
r16. @35 (!1,-1) (!10,3) v89 y6 $EE $C9 c+=26
r=27
$EF $85 $DC $DC @34 (!0,0) (!1,-1) (!6,3) v84 y10 $EE $00 f+=52
@30 (!0,0) (!1,-1) (!33,3) v94 y7 < $EE $E3 c8 @34 (!0,0) (!1,-1) (!6,3) v84 y10 > $EE $00 f+=52
@30 (!0,0) (!1,-1) (!33,3) v94 y7 < $EE $D8 g8
r=26 (!133,3) $EE $E3 c8
$EF $CB $DC $DC @31 (!0,0) v123 y10 > $EE $00 f+=25 @34 (!1,-1) (!6,3) v84 f+=52
@30 (!0,0) (!1,-1) (!33,3) v94 y7 < $EE $E3 c8
r=26 $EE $D7 a+8
r96 $EF $6B $DC $DC @34 (!0,0) (!1,-1) (!6,3) v84 y10 > $EE $00 f+=77

$EF $AE $DC $DC f+=51
@30 (!0,0) (!1,-1) (!228,3) v94 y7 $EE $D9 d8 r96 @36 (!0,0) v101 y10 $EE $00 f+=29
r16.. $EF $37 $DC $DC @32 (!1,-1) (!6,3) v89 c=26
@30 (!0,0) (!1,-1) (!1,3) v94 y7 $EE $DA f96 r=37
@35 (!0,0) (!1,-1) (!10,3) v86 y6 $EE $C9 c+=25 r=35
$EF $6F $DC $DC @34 (!0,0) (!1,-1) (!6,3) v84 y10 $EE $00 f+=52
@30 (!0,0) (!1,-1) (!33,3) v94 y7 < $EE $D9 f8 r=26
f8 r96 $EF $2F $DC $DC @31 (!0,0) v123 y10 > $EE $00 f+8
r16. @35 (!1,-1) (!10,3) v86 y6 $EE $C6 d+8
r=34
@34 (!0,0) (!1,-1) (!6,3) v84 y10 $EE $00 f+=52
@30 (!0,0) (!1,-1) (!33,3) v94 y7 $EE $D9 d8 $EE $D8 d+8
r96 $EF $F3 $DC $DC @35 (!0,0) (!1,-1) (!10,3) v86 y6 < $EE $C8 a+=23 r=27
$EF $6F $DC $DC @34 (!0,0) (!1,-1) (!6,3) v84 y10 > $EE $00 f+=52
@30 (!0,0) (!1,-1) (!229,3) v94 y7 < $EE $E3 c8 $EF $2F $DC $DC @34 (!0,0) (!1,-1) (!6,3) v84 y10 > $EE $00 f+=52
@30 (!0,0) (!1,-1) (!33,3) v94 y7 < $EE $E3 c8
r16... @35 (!0,0) (!1,-1) (!10,3) v86 y6 $EE $C8 a+=33
r16... @34 (!0,0) (!1,-1) (!6,3) v84 y10 > $EE $00 f+=51

@30 (!0,0) (!1,-1) (!218,3) v94 y7 < $EE $D8 g8 r=26
$EF $25 $DC $DC @34 (!0,0) (!1,-1) (!6,3) v84 y10 > $EE $00 f+=27 @30 (!0,0) (!1,-1) (!1,3) v94 y7 < $EE $D8 a96 r16..
@34 (!0,0) (!1,-1) (!6,3) v84 y10 > $EE $00 f+=52
@30 (!0,0) (!1,-1) (!33,3) v94 y7 < $EE $E3 c8 r=26
$EF $6E $DC $DC @34 (!0,0) (!1,-1) (!6,3) v84 y10 > $EE $00 f+=77
$EF $F6 $DC $DC @30 (!0,0) (!1,-1) (!6,3) v94 y7 < $EE $D8 a=23
@37 (!0,0) (!1,-1) (!1,3) v106 < $EE $03 c96 r=25 $EF $DE $DC $DC (!6,3) >> $EE $07 e=27
$EF $FF $DC $DC (!1,3) e96 r=23 @40 (!0,0) (!1,-1) (!6,3) v113 y10 $EE $00 f+=26
@39 (!0,0) $ED $80 $7F b24.. r32. $EF $DF $DC $DC @37 (!1,-1) (!6,3) v106 y7 < $EE $0C g=26
$EF $DF $DC $DC @32 (!0,0) v89 y10 $EE $00 a+3
r24
@33 (!1,-1) (!33,3) v109 y15 > $EE $42 d12.. r16. $EF $FE $DC $DC v87 c6
r=26
@37 (!0,0) (!1,-1) (!6,3) v106 y7 < $EE $07 f=26 @39 (!0,0) v113 y10 > $EE $00 b=15
r32.. @37 (!1,-1) (!6,3) v106 y7 < $EE $0C g+=26 $EF $FF $DC $DC $EE $07 a+=26
@39 (!0,0) v113 y10 > $EE $00 b=15 r32.. $EF $D7 $DC $DC @37 (!1,-1) (!6,3) v106 y7 < $EE $07 f=27
$EF $F7 $DC $DC (!1,3) > $EE $08 d96 r16... @39 (!0,0) v113 y10 $EE $00 b=15
r32. @37 (!1,-1) (!6,3) v106 y7 < $EE $07 f=27 $EF $FF $DC $DC a+=26
> $EE $08 d=26
(!1,3) d96 r16... $EF $EF $DC $DC @39 (!0,0) v113 y10 $EE $00 b=15 r32..
b=15 r32.. @40 (!1,-1) (!6,3) f+=26
@39 (!0,0) $ED $80 $7F b=15 r32.. b=15 r32..
$EF $EF $DC $DC @40 (!1,-1) (!6,3) f+=52
@39 (!0,0) $ED $80 $7F b24.. r32.. @40 (!1,-1) (!6,3) f+=27
@39 (!0,0) $ED $80 $7F b24.. r32.. @33 (!1,-1) (!59,3) v70 y15 $EE $39 a+32.
r=41 $EF $FF $DC $DC @37 (!0,0) (!1,-1) (!6,3) v106 y7 $EE $08 d=27
@39 (!0,0) v113 y10 $EE $00 b24.. r32. @37 (!1,-1) (!6,3) v106 y7 < $EE $07 e=27
$EF $FF $DC $DC $EE $05 a=26
@39 (!0,0) v113 y10 > $EE $00 b24.. r64 @33 (!1,-1) (!230,3) v111 y15 $EE $39 a+=31
r=25 @32 (!0,0) (!1,-1) (!6,3) v89 y10 < $EE $00 g=52
@38 (!0,0) $ED $80 $7F v113 $EE $87 b16. r24
@39 $ED $80 $7F > $EE $00 b=15 r32.. $EF $3E $DC $DC @33 (!1,-1) (!59,3) v96 y16 < $EE $3B c=29
r16.. @30 (!0,0) (!1,-1) (!72,3) v110 y7 $EE $D8 g8
@36 (!0,0) v101 y10 > $EE $00 f+12... r16..
$EF $9B $DC $DC @32 (!1,-1) (!6,3) v89 < c=27 @30 (!0,0) (!1,-1) (!59,3) v110 y7 > $EE $DA f8
r=26 < $EE $D8 g8
@31 (!0,0) v123 y10 > $EE $00 f+=25 @30 (!1,-1) (!73,3) v110 y7 $EE $DA f8
r64 (!123,3) $EE $DC e8 @32 (!0,0) (!1,-1) (!6,3) v89 y10 < $EE $00 c=53

$EF $7B $DC $DC @30 (!0,0) (!1,-1) (!203,3) v110 y7 > $EE $D9 d8 $EF $E2 $DC $DC @36 (!0,0) v101 y10 $EE $00 f+12...
r16.. @32 (!1,-1) (!6,3) v89 < c12..
$EF $FA $DC $DC @37 (!0,0) v147 y7 >> $EE $FE c+=52
r=23 @32 v89 y10 <<< $EE $00 g3

r=11 @35 (!1,-1) (!10,3) v98 y6 >> $EE $C1 a12... r=20
@30 (!0,0) (!1,-1) (!59,3) v110 y7 < $EE $D8 g8 @31 (!0,0) v123 y10 > $EE $00 f+=25
r=26 $EF $6C $DC $DC @34 (!1,-1) (!6,3) v84 f+=77

@30 (!0,0) (!1,-1) (!111,3) v110 y7 < $EE $D8 g8
$EF $AE $DC $DC @34 (!0,0) (!1,-1) (!6,3) v84 y10 > $EE $00 f+=77
$EF $B9 $DC $DC @33 (!0,0) (!1,-1) (!59,3) v96 y16 < $EE $3B c=33
r=17 @35 (!0,0) (!16,-1) (!10,3) v98 y6 > $EE $C1 a8
r=27 $EF $DB $DC $DC @32 (!0,0) (!1,-1) (!6,3) v89 y10 < $EE $00 c=52
$EF $EE $DC $DC @34 (!0,0) (!1,-1) (!6,3) v84 > f+=52
@30 (!0,0) (!1,-1) (!1,3) v110 y7 < $EE $D8 g96 r=23
@31 (!0,0) v123 y10 > $EE $00 f+8 @34 (!1,-1) (!6,3) v84 f+=51

@32 (!0,0) v89 < f3
r16 @31 v123 > f+8
@34 (!1,-1) (!6,3) v84 f+=52
@30 (!0,0) (!1,-1) (!59,3) v110 y7 < $EE $E3 c8 $EF $0F $DC $DC @34 (!0,0) (!1,-1) (!6,3) v84 y10 > $EE $00 f+=52
@30 (!0,0) (!1,-1) (!165,3) v110 y7 < $EE $E3 c8
(!231,3) $EE $D7 a+8 r96 $EF $E7 $DC $DC @34 (!0,0) (!1,-1) (!1,3) v84 y10 > $EE $00 f+96 r8
@30 (!0,0) (!1,-1) (!59,3) v110 y7 < $EE $D8 g=23 r12..
@35 (!0,0) (!1,-1) (!10,3) v98 y6 > $EE $C0 g+=23 r=27
$EF $3F $DC $DC @32 (!0,0) (!1,-1) (!6,3) v89 y10 < $EE $00 f=51
@34 (!0,0) (!1,-1) (!6,3) v84 > f+=52
@30 (!0,0) (!1,-1) (!1,3) v110 y7 < $EE $E3 c96 r=23
@31 (!0,0) v123 y10 > $EE $00 f+8 @30 (!1,-1) (!59,3) v110 y7 < $EE $E3 c8
@34 (!0,0) (!1,-1) (!6,3) v84 y10 > $EE $00 f+=27 @37 (!0,0) v144 y7 > $EE $FE c+=52
< $EE $FF b=52
r=19
b=53
$EF $2F $DC $DC @34 (!16,-1) (!6,3) v84 y10 $EE $00 f+=52
@30 (!0,0) (!1,-1) (!59,3) v110 y7 < $EE $D8 g8 (!154,3) > $EE $DA f8
r96 @32 (!0,0) (!1,-1) (!1,3) v89 y10 < $EE $00 c96 r=23 $EF $F3 $DC $DC @30 (!0,0) (!1,-1) (!172,3) v110 y7 > $EE $D9 d=23
r=27
$EF $36 $DC $DC @32 (!0,0) (!1,-1) (!6,3) v89 y10 < $EE $00 c=27 @30 (!0,0) (!1,-1) (!59,3) v110 y7 > $EE $DC e8
r=26 < $EE $D8 g8
$EF $A3 $DC $DC @31 (!0,0) v123 y10 > $EE $00 f+=25 r=26
@32 (!1,-1) (!6,3) v89 < c12.. @37 (!0,0) (!1,-1) (!6,3) v125 y7 > $EE $06 g8
$EF $F9 $DC $DC @30 (!0,0) (!1,-1) (!17,3) v110 < $EE $D8 g8 @34 (!0,0) (!1,-1) (!6,3) v84 y10 > $EE $00 f+12..
@30 (!0,0) (!1,-1) (!1,3) v110 y7 < $EE $D8 a96 r=47
(!59,3) $EE $DC d8 $EF $6B $DC $DC @34 (!0,0) (!1,-1) (!6,3) v84 y10 > $EE $00 f+=77

f+=78

(!1,3) f+96 r8....
@37 (!0,0) (!1,-1) (!6,3) v147 y7 > $EE $FB e=29 $EF $D9 $DC $DC v137 < $EE $00 b=51
r=23
$EF $0B $DC $DC @36 (!0,0) $ED $80 $7F v101 y10 f+=29 r=20
$EF $6D $DC $DC @34 (!16,-1) (!6,3) v84 f+=78
@30 (!0,0) (!1,-1) (!59,3) v110 y7 < $EE $D7 a+8
@36 (!0,0) y10 > $EE $00 f+12...
r16.. $EF $DD $DC $DC @32 (!1,-1) (!6,3) v89 < f=27
$EF $F5 $DC $DC @37 (!0,0) (!1,-1) (!6,3) v133 y7 > $EE $08 d=51
@30 (!0,0) (!1,-1) (!1,3) v110 < $EE $D8 g96 r=23 @31 (!0,0) v123 y10 > $EE $00 f+8
r=26 @30 (!1,-1) (!59,3) v110 y7 < $EE $D8 g8
@31 (!0,0) v123 y10 > $EE $00 f+8 r=26
@30 (!1,-1) (!232,3) v110 y7 < $EE $D8 g8 r96 @32 (!0,0) (!1,-1) (!6,3) v89 y10 < $EE $00 g=52
@30 (!0,0) (!1,-1) (!215,3) v110 y7 > $EE $D8 g8
r64 @37 (!0,0) (!1,-1) (!1,3) v127 > $EE $06 g96 r16.. @30 (!0,0) (!1,-1) (!59,3) v112 < $EE $D8 a8
r=27 v118 a8
r=25 (!130,3) v125 a8
r=27
(!119,3) $EE $DC d8 r=27
(!59,3) $EE $D8 a8 r=26
@38 (!0,0) $ED $80 $7F v110 y10 $EE $87 d+12.. r8
@37 (!1,-1) (!6,3) y7 << $EE $3A d=51
v118 d=51
v120 d=51
v125 d=51
v127 d=51
(!1,3) v133 d96 r4.

v137 > $EE $07 e=52
r1^32..



$EF $FE $DC $DC (!6,3) v127 >> c=26 @32 (!0,0) (!1,-1) (!6,3) v89 y10 < $EE $00 g=51
@37 (!0,0) (!1,-1) (!6,3) v127 y7 << $EE $21 a=51

(!1,3) a96 r16... @31 (!0,0) $ED $80 $7F v123 y10 >>> $EE $00 f+8
@37 (!1,-1) (!6,3) v127 y7 <<< $EE $21 a=51
a=51
a=27 @33 (!0,0) (!1,-1) (!233,3) v96 y16 >> $EE $3D g=17
r=43 @35 (!0,0) (!16,-1) (!10,3) v98 y6 > $EE $C6 d+1^8




r=17 @30 (!0,0) (!1,-1) (!59,3) v118 y7 < $EE $D8 a8
r=7 

#5 r=49
$EF $7F $00 $00 @30 (!1,-1) (!234,3) v94 y7 o4 $EE $D8 a8 r=79

(!3,3) $EE $DC d8 r=76

(!235,3) d8 r=103

$EF $D7 $DC $DC @31 (!0,0) v123 y10 > $EE $00 f+8
r=128


$EF $D9 $DC $DC f+=25 r=51
@30 (!1,-1) (!3,3) v94 y7 < $EE $DC d8
r=51
(!236,3) $EE $D8 b8 r=53
(!3,3) > c8
r=77
(!237,3) c8
r=77

(!238,3) < a8 r=53
(!3,3) $EE $DC d8
r=76
(!239,3) d8
r=53
(!3,3) d8 r=51
$EF $4B $DC $DC @31 (!0,0) v123 y10 > $EE $00 f+=25
r=26 $EF $49 $DC $DC @34 (!1,-1) (!6,3) v84 f+=103


(!1,3) f+96 r=73
@30 (!0,0) (!1,-1) (!3,3) v94 y7 < $EE $D8 a8
r=26 (!9,3) $EE $DC d8
r96 @36 (!0,0) v101 y10 > $EE $00 f+=29 r16..
@30 (!1,-1) (!171,3) v94 y7 < $EE $DC d8 r64 $EF $10 $DC $DC @34 (!0,0) (!1,-1) (!1,3) v84 y10 > $EE $00 f+96 r2^=53


(!6,3) f+=74

@33 (!0,0) (!1,-1) (!240,3) v94 y15 > $EE $34 c+16 r8..
$EF $9F $DC $DC @34 (!0,0) (!16,-1) (!6,3) v84 y10 < $EE $00 f+=26
@30 (!0,0) (!1,-1) (!1,3) v94 y7 < $EE $DC d96 r=44
@33 (!0,0) (!1,-1) (!3,3) v84 y15 >> $EE $35 c=61
r=15 @35 (!0,0) (!16,-1) (!10,3) v81 y7 < $EE $C1 a8
r=51
v89 y6 $EE $C6 d+8...
r=35 $EF $12 $DC $DC @34 (!0,0) (!16,-1) (!16,3) v84 y10 $EE $00 f+96
r=99

@30 (!0,0) (!1,-1) (!3,3) v94 y7 < $EE $D8 b8 $EE $DC d8
r96 $EF $68 $DC $DC $EE $D8 b8 r96 @31 (!0,0) v123 y10 > $EE $00 f+8
r=26 @30 (!1,-1) (!191,3) v94 y7 < $EE $D8 g8
r96 $EF $B7 $DC $DC @32 (!0,0) (!1,-1) (!1,3) v89 y10 < $EE $00 g96 r=49
@30 (!0,0) (!1,-1) (!241,3) v94 y7 >> $EE $DC e8 r96 @32 (!0,0) v89 y10 < $EE $00 c3

r=11 d+3
r=11 $EF $6F $DC $DC c=65

r32 @35 (!1,-1) (!10,3) v86 y6 > $EE $C2 f+24.. r16.
$EF $7F $DC $DC @33 (!0,0) (!1,-1) (!242,3) v87 y15 > $EE $35 c=29 r16.
(!243,3) v84 $EE $34 c+32.. r=19 $EF $F3 $DC $DC @35 (!0,0) (!16,-1) (!10,3) v98 y6 < $EE $C2 f+=27
r16... @33 (!0,0) (!1,-1) (!244,3) v94 y15 > $EE $33 d=29
r16.. (!245,3) d=27
r=47
$EF $A7 $DC $DC v116 $EE $2E g=34^2 $DD $00 $20 $BF ^=33 $DD $00 $1B $C3 ^2^=39





r32. $EF $91 $DC $DC @34 (!0,0) (!16,-1) (!6,3) v84 y10 < $EE $00 f+=77

@30 (!0,0) (!1,-1) (!193,3) v94 y7 < $EE $D8 b8 $EF $17 $DC $DC @31 (!0,0) v123 y10 > $EE $00 f+=26
r=26 @30 (!1,-1) (!3,3) v94 y7 $EE $D8 c8
$EF $0E $DC $DC @34 (!0,0) (!1,-1) (!6,3) v84 y10 $EE $00 f+=82

@35 (!0,0) (!1,-1) (!10,3) v98 y6 $EE $C0 a+1^=110





r16... $EF $DF $DC $DC @34 (!0,0) (!1,-1) (!6,3) v84 y10 $EE $00 f+=53
@30 (!0,0) (!1,-1) (!3,3) v94 y7 < $EE $D8 g8
r=25 $EF $EB $DC $DC @33 (!0,0) (!1,-1) (!246,3) v84 y15 > $EE $42 d16.
r6
$EF $8E $DC $DC @34 (!0,0) (!16,-1) (!6,3) y10 $EE $00 f+=52
@30 (!0,0) (!1,-1) (!3,3) v94 y7 $EE $DC e8 $EE $DA f8
$EF $D5 $DC $DC @34 (!0,0) (!1,-1) (!6,3) v84 y10 $EE $00 f+=77
@30 (!0,0) (!1,-1) (!48,3) v104 y7 < $EE $D8 a8
r64 $EF $97 $DC $DC @31 (!0,0) v123 y10 > $EE $00 f+8 r=20
$EF $E7 $DC $DC @35 (!1,-1) (!10,3) v86 y6 $EE $C0 a+=23 r=31
@33 (!0,0) (!1,-1) (!247,3) v102 y15 $EE $3C f=33 r=20
$EF $FC $DC $DC @32 (!0,0) (!1,-1) (!6,3) v89 y10 << $EE $00 a+6...
@35 (!0,0) (!1,-1) (!10,3) v86 y6 >> $EE $C0 a+=19
r4
@32 (!0,0) v89 y10 < $EE $00 c=63
r=13 d3
r=88

$EF $5B $DC $DC @36 (!1,-1) (!6,3) > f+=27
@30 (!0,0) (!1,-1) (!1,3) v110 y7 < $EE $D8 a96 r=47
(!3,3) a8 @34 (!0,0) (!1,-1) (!6,3) v84 y10 > $EE $00 f+=52
@30 (!0,0) (!1,-1) (!156,3) v110 y7 < $EE $DC d8
@31 (!0,0) v123 y10 > $EE $00 f+=26
r12.. @37 v140 y7 a=52
r16...
@34 (!16,-1) (!6,3) v84 y10 f+=77
f+=26
@30 (!0,0) (!1,-1) (!1,3) v110 y7 < $EE $DC d96 r=47
(!88,3) d8 r96 $EF $99 $DC $DC @34 (!0,0) (!1,-1) (!6,3) v84 y10 > $EE $00 f+=77

@30 (!0,0) (!1,-1) (!1,3) v110 y7 < $EE $D8 b96 r16... (!105,3) > c8
$EF $A1 $DC $DC (!23,3) < b8 r96 $EF $E1 $DC $DC @32 (!0,0) v89 y10 < $EE $00 g3

r=11 @37 v140 y7 >> a=52
$EF $6A $DC $DC @32 v89 y10 << g3
r32.
@37 v147 y7 >> a=53
$EF $CF $DC $DC @34 (!16,-1) (!6,3) v84 y10 f+=52
f+=51
$EF $97 $DC $DC f+=26 @30 (!0,0) (!1,-1) (!1,3) v110 y7 < $EE $DC d96 r=25
$EF $BF $DC $DC @37 (!0,0) (!1,-1) (!6,3) v120 > $EE $00 a=49
@30 (!0,0) (!1,-1) (!248,3) v110 $EE $D8 c8
r48 @37 (!0,0) (!1,-1) (!6,3) v125 $EE $06 g4
@34 (!0,0) (!16,-1) (!16,3) v84 y10 $EE $00 f+96 r4
@30 (!0,0) (!1,-1) (!3,3) v110 y7 < $EE $D8 b8 @33 (!0,0) (!1,-1) (!3,3) v96 y16 $EE $3D g12...
r=20 @30 (!0,0) (!1,-1) (!249,3) v110 y7 $EE $D8 g8
r96 @31 (!0,0) v123 y10 > $EE $00 f+8 r=5 @37 (!1,-1) (!1,3) v127 y7 a96 r8...
@30 (!0,0) (!1,-1) (!3,3) v110 $EE $DA f8
r=26 f8
r64 @34 (!0,0) (!1,-1) (!6,3) v84 y10 $EE $00 f+=76

$EF $DE $DC $DC f+=52
$EF $5E $DC $DC (!1,3) f+96 r16... @30 (!0,0) (!1,-1) (!3,3) v110 y7 $EE $DC e8
r=26 @32 (!0,0) (!1,-1) (!6,3) v89 y10 < $EE $00 c=29
$EF $BA $DC $DC @37 (!0,0) (!1,-1) (!6,3) v118 y7 >> $EE $FC d+4
@30 (!0,0) (!1,-1) (!139,3) v110 << $EE $D8 g8 (!250,3) g8
r96 $EF $EB $DC $DC @37 (!0,0) (!1,-1) (!6,3) v133 > $EE $06 g=52
@31 (!0,0) $ED $80 $7F v123 y10 $EE $00 f+8 r=26
@30 (!1,-1) (!3,3) v110 y7 < $EE $DC d8 @36 (!0,0) v101 y10 > $EE $00 f+12...
r16.. $EF $2F $DC $DC @32 (!1,-1) (!6,3) v89 << g=26
@30 (!0,0) (!1,-1) (!219,3) v110 y7 >> $EE $D8 c8
r=27 $EF $5E $DC $DC @34 (!0,0) (!1,-1) (!1,3) v84 y10 $EE $00 f+96 r=74

@30 (!0,0) (!1,-1) (!3,3) v110 y7 < $EE $D8 b8 @31 (!0,0) v123 y10 > $EE $00 f+8
r=26 @34 (!1,-1) (!6,3) v84 f+=26
@30 (!0,0) (!1,-1) (!251,3) v110 y7 < $EE $DC d8 r=27
@34 (!0,0) (!1,-1) (!6,3) v84 y10 > $EE $00 f+=77
@30 (!0,0) (!1,-1) (!3,3) v110 y7 $EE $D8 c8
$EF $EA $DC $DC < $EE $DC d8 (!252,3) > $EE $D8 c8
r96 (!253,3) < $EE $DC d8 r96 $EF $5F $DC $DC @31 (!0,0) v123 y10 > $EE $00 f+8
r=26
@30 (!1,-1) (!70,3) v118 y7 $EE $DC e8 r64 @34 (!0,0) (!1,-1) (!6,3) v84 y10 $EE $00 f+=52
@30 (!0,0) (!1,-1) (!1,3) v118 y7 $EE $D5 f+96 r16...
@34 (!0,0) (!1,-1) (!1,3) v84 y10 $EE $00 f+96 r=73
@30 (!0,0) (!1,-1) (!4,3) v118 y7 < $EE $D8 a8
$EF $F6 $DC $DC (!71,3) a8 r96 (!169,3) a8
r96 @32 (!0,0) v89 y10 $EE $00 c=65
r=11 @37 v137 y7 > $EE $07 e=52
r8
@32 v89 y10 < $EE $00 c3
r16
$EF $C4 $DC $DC @31 v123 > f+=25 @34 (!1,-1) (!6,3) v84 f+=52
@30 (!0,0) (!1,-1) (!33,3) v118 y7 < $EE $DC d8
r=26 $EF $97 $DC $DC @34 (!0,0) (!1,-1) (!6,3) v84 y10 > $EE $00 f+=26
@30 (!0,0) (!1,-1) (!121,3) v118 y7 < $EE $DC d8 r=26
(!122,3) d8 r96 @31 (!0,0) v123 y10 > $EE $00 f+8
r=26 @30 (!1,-1) (!33,3) v118 y7 $EE $D8 c8
$EF $99 $DC $DC @31 (!0,0) v123 y10 $EE $00 f+=25 @37 v125 y7 $EE $07 e=52
@36 $ED $80 $7F v110 y10 $EE $00 f+=29
r16..
@30 (!1,-1) (!33,3) v125 y7 < $EE $D8 g16. r24 @36 (!0,0) v110 y10 > $EE $00 f+12...
r2^=76


@38 $ED $80 $7F v123 $EE $87 f24..
r=37 @39 $ED $80 $7F v113 $EE $00 b12
r12 $EF $FB $DC $DC @30 (!1,-1) (!33,3) v94 y7 $EE $DA f8
r16.. $EF $7B $DC $DC @32 (!0,0) (!1,-1) (!6,3) v97 y10 < $EE $00 c=51
@30 (!0,0) (!1,-1) (!163,3) v94 y7 $EE $D8 g8
r96 @35 (!0,0) (!1,-1) (!10,3) v98 y6 > $EE $C4 c16.. r12..
@40 (!0,0) (!1,-1) (!6,3) v113 y10 $EE $00 f+=26 @30 (!0,0) (!1,-1) (!33,3) v94 y7 < $EE $D8 g8
@39 (!0,0) $ED $80 $7F v113 y10 > $EE $00 b12 r=7 @33 (!1,-1) (!254,3) v96 y16 < $EE $3D g16...
r=34 @35 (!0,0) (!16,-1) (!10,3) v98 y6 > $EE $C6 d+1^=26




r=33 @40 (!0,0) (!1,-1) (!6,3) v113 y10 $EE $00 f+=27
@39 (!0,0) $ED $80 $7F b=15 r=13
@30 (!1,-1) (!6,3) v94 y7 $EE $D9 d=23 (!1,3) < $EE $D8 g96 r16..
$EF $FF $DC $DC @33 (!0,0) (!1,-1) (!33,3) v84 y15 > $EE $42 d16. r=34
@35 (!0,0) (!16,-1) (!10,3) v101 y6 < $EE $C5 a12... r=19
@39 (!0,0) $ED $80 $7F v113 y10 > $EE $00 b12 r32. @40 (!1,-1) (!6,3) f+=27
@39 (!0,0) $ED $80 $7F b=15 r32.. @32 (!1,-1) (!1,3) v97 << a+96 r=23
$EF $D9 $DC $DC @40 (!0,0) v113 >> f+3
r=13 (!1,-1) (!6,3) f+=51
@30 (!0,0) (!1,-1) (!166,3) v94 y7 < $EE $D8 a8
@32 (!0,0) (!1,-1) (!6,3) v97 y10 $EE $00 c=27
$EF $F7 $DC $DC @30 (!0,0) (!1,-1) (!255,3) v94 y7 $EE $D8 g=26 $EF $FE $DC $DC (!256,3) > $EE $D9 d8
(!33,3) d16.. r96 @39 (!0,0) $ED $80 $7F v113 y10 $EE $00 b=17 r32..
b=15 r32. @31 v123 f+=25
r=26 @30 (!1,-1) (!191,3) v94 y7 < $EE $D8 g8
r96 $EF $5F $DC $DC @34 (!0,0) (!1,-1) (!6,3) v84 y10 > $EE $00 f+=77
$EF $15 $DC $DC f+=77

@30 (!0,0) (!1,-1) (!1,3) v94 y7 < $EE $E3 c96 r16... (!154,3) c8
(!114,3) $EE $D8 a8 r96 @34 (!0,0) (!1,-1) (!6,3) v84 y10 > $EE $00 f+=78

@30 (!0,0) (!1,-1) (!1,3) v94 y7 < $EE $E3 c96 r=47
$EF $2D $DC $DC @32 (!0,0) v89 y10 $EE $00 f3
r=11
@34 (!1,-1) (!6,3) v84 > f+=103

(!1,3) f+96 r=73
@30 (!0,0) (!1,-1) (!33,3) v94 y7 < $EE $E3 c8
r=26 @34 (!0,0) (!1,-1) (!6,3) v84 y10 > $EE $00 f+=103


$EF $94 $DC $DC f+=83
@33 (!0,0) (!1,-1) (!33,3) v96 y16 < $EE $42 b=49
r=19
$EF $96 $DC $DC @31 (!0,0) $ED $80 $7F v123 y10 > $EE $00 f+8 r=26
$EF $5C $DC $DC @34 (!16,-1) (!6,3) v84 f+=103

@30 (!0,0) (!1,-1) (!33,3) v94 y7 < $EE $E3 c8 @34 (!0,0) (!1,-1) (!6,3) v84 y10 > $EE $00 f+=51
@30 (!0,0) (!1,-1) (!129,3) v94 y7 < $EE $D8 g8
r=27
(!257,3) g8 $EF $CD $DC $DC @34 (!0,0) (!1,-1) (!6,3) v84 y10 > $EE $00 f+=52
@30 (!0,0) (!1,-1) (!33,3) v94 y7 < $EE $E3 c8
$EF $B7 $DC $DC @32 (!0,0) v89 y10 $EE $00 f=65
r16 @37 v135 y7 > $EE $06 g=53
r=23
$EF $BE $DC $DC (!1,-1) (!6,3) v118 > $EE $FE c=20 v114 < $EE $03 a+=52
r48 $EF $C8 $DC $DC @36 (!0,0) $ED $80 $7F v101 y10 $EE $00 f+12...
r16.. $EF $03 $DC $DC @34 (!16,-1) (!16,3) v84 f+96
r=99

@30 (!0,0) (!1,-1) (!33,3) v94 y7 < $EE $D8 a8 $EE $D7 a+8
r96 @34 (!0,0) (!1,-1) (!6,3) v84 y10 > $EE $00 f+=27 @33 (!0,0) (!1,-1) (!258,3) v94 y15 < $EE $3D a+=70

r12... @32 (!0,0) (!1,-1) (!6,3) v89 y10 $EE $00 g+=52
$EF $D3 $DC $DC @34 (!0,0) (!1,-1) (!6,3) v84 > f+=52
@37 (!0,0) v137 y7 $EE $03 a+=52

r16. $EF $EF $DC $DC (!1,-1) (!6,3) v125 $EE $06 g=31
@30 (!0,0) (!1,-1) (!1,3) v94 $EE $D8 c96 r8.. $EF $BB $DC $DC @37 (!0,0) (!1,-1) (!6,3) v120 > $EE $FE c6
@34 (!0,0) (!16,-1) (!16,3) v84 y10 < $EE $00 f+96 r4
@30 (!0,0) (!1,-1) (!33,3) v94 y7 < $EE $D9 f8
@34 (!0,0) (!1,-1) (!6,3) v84 y10 > $EE $00 f+=51
@37 (!0,0) v125 y7 $EE $03 a+=52
$EF $EF $DC $DC @33 (!1,-1) (!259,3) v96 y16 < $EE $3D a+12.. r16..
$EF $BB $DC $DC @37 (!0,0) v137 y7 > $EE $06 g=52
r8 $EF $F7 $DC $DC @32 (!1,-1) (!6,3) v89 y10 < $EE $00 c=52
$EF $97 $DC $DC @34 (!0,0) (!1,-1) (!6,3) v84 > f+=26
@30 (!0,0) (!1,-1) (!1,3) v94 y7 < $EE $D7 a+96 r=47
(!22,3) $EE $E3 c8
$EF $97 $DC $DC @31 (!0,0) v123 y10 > $EE $00 f+=26 @30 (!1,-1) (!33,3) v94 y7 < $EE $D7 a+8
$EE $D8 a8 r64 $EE $E3 c8
r=26 (!133,3) $EE $D8 g8
r96 @36 (!0,0) v101 y10 > $EE $00 f+=29 r=17
$EF $6D $DC $DC @35 (!1,-1) (!10,3) v93 y6 $EE $C0 a+=13 r=38
v92 y7 g+=26 r12..
$EF $CB $DC $DC @31 (!0,0) v123 y10 $EE $00 f+=25 @30 (!1,-1) (!105,3) v94 y7 < $EE $E3 c8
r12.. @33 (!0,0) v96 y16 > $EE $42 c1^=105






r48 @35 (!16,-1) (!10,3) v98 y6 $EE $C6 d+=53
r=27 $EF $F7 $DC $DC @32 (!0,0) (!1,-1) (!6,3) v89 y10 < $EE $00 f=51
@34 (!0,0) (!1,-1) (!6,3) v84 > f+=26
@30 (!0,0) (!1,-1) (!1,3) v94 y7 < $EE $D9 f96 r=39
$EF $BF $DC $DC @35 (!0,0) (!1,-1) (!10,3) v98 y6 $EE $C8 a+=70
r=35
@33 (!0,0) v84 y15 $EE $3D f1^=105





r32.. $EF $E5 $DC $DC @32 v89 y10 $EE $00 f=65

r=7 @35 (!1,-1) (!10,3) y6 > $EE $C0 g+12..
r16... $EF $76 $DC $DC v92 y7 > $EE $BC c+8
r=26 v93 y6 c+=27
r=29 @31 (!0,0) v123 y10 < $EE $00 f+=25
@30 (!1,-1) (!31,3) v94 y7 < $EE $E3 c8 r64 $EF $FF $DC $DC (!260,3) c8
@37 (!0,0) (!1,-1) (!6,3) v104 > $EE $07 e=26 v106 < $EE $0C g=27
@39 (!0,0) v113 y10 > $EE $00 b=15 r32.. @37 (!1,-1) (!6,3) v106 y7 < $EE $07 a+=26
$EF $AF $DC $DC > c=26
$EF $FF $DC $DC (!1,3) e96 r16... @40 (!0,0) (!1,-1) (!6,3) v113 y10 $EE $00 f+=52
@39 (!0,0) $ED $80 $7F b24.. r32..
@37 (!1,-1) (!6,3) v106 y7 < $EE $07 a+=26 $EF $BF $DC $DC (!1,3) > e96 r=23
$EF $FF $DC $DC @32 (!0,0) (!1,-1) (!6,3) v89 y10 < $EE $00 a=26 g+=51
$EF $6F $DC $DC @37 (!0,0) (!1,-1) (!1,3) v106 y7 $EE $07 a+96 r=23
(!6,3) > $EE $08 d=26 (!1,3) d96 r=47
(!6,3) < $EE $0C g+=27
@39 (!0,0) v113 y10 > $EE $00 b=15 r32. @37 (!1,-1) (!1,3) v106 y7 < $EE $07 f96 r=23
@40 (!0,0) (!1,-1) (!6,3) v113 y10 > $EE $00 f+=27 @39 (!0,0) $ED $80 $7F b24..
r32. @37 (!1,-1) (!6,3) v106 y7 < $EE $07 f=26
@35 (!0,0) (!16,-1) (!10,3) v86 y6 > $EE $C3 f6 r16.
@37 (!0,0) (!1,-1) (!6,3) v106 y7 < $EE $07 f=27 (!1,3) $EE $0C g96 r16...
(!6,3) $EE $07 f=27 (!1,3) $EE $0C g96 r16...
(!6,3) g=27 $EF $CF $DC $DC @39 (!0,0) v113 y10 > $EE $00 b24..
r32. @37 (!1,-1) (!6,3) v106 y7 < $EE $07 f=26 $EE $0C g=27
(!1,3) $EE $07 f96 r16... $EF $DF $DC $DC @39 (!0,0) v113 y10 > $EE $00 b=15
r=11 @35 (!16,-1) (!10,3) v98 y6 $EE $C3 f2^=66


r=35
@33 (!0,0) (!1,-1) (!261,3) v102 y15 $EE $3A f+12..
r=26 @32 (!0,0) (!1,-1) (!6,3) v89 y10 << $EE $00 g=52
$EF $F6 $DC $DC > c3

r=11 $EF $8F $DC $DC @31 (!0,0) v123 > f+8 r=26
$EF $1E $DC $DC @34 (!1,-1) (!6,3) v84 f+=78
@30 (!0,0) (!1,-1) (!59,3) v110 y7 $EE $DA f8
@36 (!0,0) y10 $EE $00 f+12...
r16.. @34 (!1,-1) (!1,3) v84 f+96 r=23 @30 (!0,0) (!1,-1) (!160,3) v110 y7 $EE $D9 d8
r=27
$EF $FB $DC $DC @32 (!0,0) (!1,-1) (!6,3) v89 y10 < $EE $00 c=26 @30 (!0,0) (!1,-1) (!59,3) v110 y7 $EE $D8 g8
r=26 $EF $5A $DC $DC @34 (!0,0) (!1,-1) (!6,3) v84 y10 > $EE $00 f+=77

@30 (!0,0) (!1,-1) (!75,3) v110 y7 $EE $DA f8 r96 @34 (!0,0) (!1,-1) (!1,3) v84 y10 $EE $00 f+96 r=73

$EF $DE $DC $DC @31 (!0,0) v123 f+8 r=26
@30 (!1,-1) (!59,3) v110 y7 $EE $D9 d8 $EF $C4 $DC $DC @36 (!0,0) v101 y10 $EE $00 f+=31
r16.. $EF $EC $DC $DC @30 (!1,-1) (!204,3) v110 y7 < $EE $D8 g8
$EF $7E $DC $DC @32 (!0,0) v89 y10 $EE $00 c=65
r16
$EF $4D $DC $DC @31 v123 > f+=25 @30 (!1,-1) (!59,3) v110 y7 < $EE $D8 g8
$EF $8E $DC $DC @34 (!0,0) (!1,-1) (!6,3) v84 y10 > $EE $00 f+=27 @30 (!0,0) (!1,-1) (!59,3) v110 y7 < $EE $D8 g=23
r48 @37 (!0,0) (!1,-1) (!6,3) v127 >> $EE $FE c+=49
$EF $9D $DC $DC @34 (!0,0) (!16,-1) (!6,3) v84 y10 < $EE $00 f+=52
@30 (!0,0) (!1,-1) (!171,3) v110 y7 $EE $DC e8 $EF $CF $DC $DC @31 (!0,0) v123 y10 $EE $00 f+=25
r48 $EF $FC $DC $DC @37 (!1,-1) (!6,3) v125 y7 $EE $FF b8 $EF $7C $DC $DC v118 > $EE $FE c+=26
@30 (!0,0) (!1,-1) (!1,3) v110 << $EE $D8 g96 r16.. (!208,3) > $EE $DA f8
$EF $6F $DC $DC @32 (!0,0) (!1,-1) (!6,3) v89 y10 < $EE $00 c=27
@30 (!0,0) (!1,-1) (!125,3) v110 y7 $EE $E3 c=23 r24 $EF $36 $DC $DC @37 (!0,0) (!1,-1) (!6,3) v133 >> $EE $FE c+=47
@30 (!0,0) (!1,-1) (!1,3) v110 << $EE $D8 a96 r=25
$EF $2F $DC $DC @37 (!0,0) (!1,-1) (!1,3) v127 >> $EE $FE c+96 r=44
@30 (!0,0) (!1,-1) (!59,3) v110 << $EE $D7 a+8 r=27
@34 (!0,0) (!1,-1) (!6,3) v84 y10 > $EE $00 f+=52
@30 (!0,0) (!1,-1) (!231,3) v110 y7 < $EE $E3 c8 (!112,3) c8
r96 $EF $F6 $DC $DC @33 (!0,0) (!1,-1) (!262,3) v96 y16 $EE $3B c=33
r16. $EF $7A $DC $DC (!59,3) c8 r=26
$EF $1F $DC $DC @34 (!0,0) (!16,-1) (!6,3) v84 y10 > $EE $00 f+=51
@30 (!0,0) (!1,-1) (!113,3) v110 y7 < $EE $E3 c8
$EF $57 $DC $DC @34 (!0,0) (!1,-1) (!6,3) v84 y10 > $EE $00 f+=52
$EF $DE $DC $DC f+=52
@30 (!0,0) (!1,-1) (!1,3) v110 y7 < $EE $D8 a96 r16... @33 (!0,0) (!1,-1) (!59,3) v96 y16 $EE $3B c12...
r=20 @30 (!0,0) (!1,-1) (!191,3) v110 y7 $EE $D8 g8
@36 (!0,0) v101 y10 > $EE $00 f+12... r16..
$EF $3B $DC $DC @32 (!1,-1) (!6,3) v89 < c=27 @30 (!0,0) (!1,-1) (!59,3) v110 y7 > $EE $DA f8
r=27 $EF $36 $DC $DC @32 (!0,0) (!1,-1) (!1,3) v89 y10 < $EE $00 c96 r8
$EF $77 $DC $DC @37 (!0,0) v133 y7 > a=51
r=23 @35 (!16,-1) (!10,3) v98 y6 $EE $C1 a=33
r16...
@37 (!0,0) v127 y7 $EE $08 d=52
r=20 $EF $A1 $DC $DC @32 v89 y10 < $EE $00 c3
r=11
@37 (!1,-1) (!6,3) v147 y7 > $EE $06 f=49
$EF $EB $DC $DC v133 $EE $02 g+=52
$EF $BA $DC $DC v144 $EE $FF b=53
$EF $23 $DC $DC v147 > $EE $FE c+=52
r16... $EF $6A $DC $DC @32 (!0,0) v89 y10 << $EE $00 g=65

r16 $EF $2E $DC $DC (!1,-1) (!6,3) g=26
@30 (!0,0) (!1,-1) (!59,3) v110 y7 $EE $D8 b8 $EF $EB $DC $DC > c8
$EF $9B $DC $DC @34 (!0,0) (!1,-1) (!6,3) v84 y10 $EE $00 f+=27 @30 (!0,0) (!1,-1) (!59,3) v110 y7 < $EE $D8 g8
r=26 $EF $8B $DC $DC @34 (!0,0) (!1,-1) (!6,3) v84 y10 > $EE $00 f+=77

@30 (!0,0) (!1,-1) (!193,3) v110 y7 < $EE $D8 a8 $EF $4F $DC $DC @31 (!0,0) v123 y10 > $EE $00 f+=26
r=26 @30 (!1,-1) (!59,3) v110 y7 < $EE $E3 c8
$EF $D7 $DC $DC @34 (!0,0) (!1,-1) (!6,3) v84 y10 > $EE $00 f+=77
@31 (!0,0) v123 f+8
r=26
$EF $67 $DC $DC @33 (!1,-1) (!214,3) v96 y16 < $EE $3B c8 r=27
@34 (!0,0) (!16,-1) (!6,3) v84 y10 > $EE $00 f+=103

@30 (!0,0) (!1,-1) (!232,3) v110 y7 $EE $DA f8 @31 (!0,0) v123 y10 $EE $00 f+8
$EF $97 $DC $DC @34 (!1,-1) (!6,3) v84 f+=52
@35 (!0,0) (!1,-1) (!10,3) v98 y6 $EE $C0 g8 r=26
$EF $FF $DC $DC @30 (!0,0) (!1,-1) (!59,3) v118 y7 < $EE $D8 a8 r=27
(!118,3) a8 r=26
(!46,3) v125 $EE $DC d8 r=27
(!47,3) $EE $D8 a8
r=27 (!59,3) $EE $DC d8
r=26 @37 (!0,0) (!1,-1) (!6,3) v110 < $EE $03 f+=51
v112 < $EE $3A d=51
v118 d=51
v122 d=51
v125 d=51
v127 d=51

v137 $EE $0D e=52
r=101

$EF $5F $DC $DC @36 (!0,0) $ED $80 $7F v110 y10 >>> $EE $00 f+12.. r24 v106 f+12...
r16..
f+=29 r24 $EF $DE $DC $DC (!16,-1) (!16,3) v110 f+96 r8
@31 (!0,0) $ED $80 $7F v123 f+=25 $EF $BF $DC $DC @37 (!1,-1) (!6,3) v127 y7 << $EE $05 a=52
a=52

(!1,3) a96 r4
$EF $BF $DC $DC a96 r4
(!6,3) a=52
(!1,3) a96 r=23 @32 (!0,0) (!1,-1) (!6,3) v89 y10 > $EE $00 g=61
@33 (!0,0) (!1,-1) (!263,3) v96 y16 < $EE $3D g1^8




r=13 @30 (!0,0) (!1,-1) (!59,3) v118 y7 > $EE $DC d8
r=11 

#6 r=75
$EF $37 $00 $00 @31 v123 y10 o5 f+8
r=127

$EF $B9 $DC $DC f+=25
r=52
@30 (!1,-1) (!3,3) v94 y7 < $EE $D8 a8 r=102

(!264,3) b8
r=78

(!3,3) $EE $DC d8 r=51
$EE $D8 a8
r=78
$EF $F7 $DC $DC @32 (!0,0) v89 y10 < $EE $00 f3

r=38 @30 (!1,-1) (!3,3) v94 y7 > $EE $DC d8
r=51
(!265,3) d8 r=78

@36 (!0,0) v101 y10 > $EE $00 f+12...
r=47
@30 (!1,-1) (!3,3) v94 y7 $EE $D8 c8 r=76

(!266,3) < $EE $DC d8 r6
@33 (!0,0) v109 y15 > $EE $39 a+1^=105





r96 $EF $E3 $DC $DC @32 v89 y10 << $EE $00 g=63
r16
$EF $6D $DC $DC d=65
r16 $EF $C8 $DC $DC g3

r=13 $EF $12 $DC $DC @31 v123 >> f+8 @30 (!1,-1) (!208,3) v94 y7 < $EE $DC d8
(!164,3) $EE $D8 b8 r64 @31 (!0,0) v123 y10 > $EE $00 f+8
r=26
@34 (!1,-1) (!6,3) v84 f+=27 @31 (!0,0) v123 f+8
r=26 @30 (!1,-1) (!3,3) v94 y7 < $EE $D8 b8
@31 (!0,0) v123 y10 > $EE $00 f+=25 r=26
$EF $3E $DC $DC @34 (!1,-1) (!6,3) v84 f+=27 @30 (!0,0) (!1,-1) (!165,3) v94 y7 < $EE $D8 b8
(!231,3) > c8 r96 (!112,3) < $EE $DC d8
r96 $EF $FB $DC $DC @32 (!0,0) (!1,-1) (!6,3) v89 y10 < $EE $00 g=52
@30 (!0,0) (!1,-1) (!1,3) v94 y7 > $EE $D8 a96 r16... $EF $27 $DC $DC @36 (!0,0) v101 y10 > $EE $00 f+=29
r16.. @30 (!1,-1) (!166,3) v94 y7 < $EE $D8 b8
@34 (!0,0) (!1,-1) (!6,3) v84 y10 > $EE $00 f+2^=50


@33 (!0,0) (!1,-1) (!3,3) v96 y16 $EE $3C f=11 r16..
$EF $3C $DC $DC @34 (!0,0) (!16,-1) (!6,3) v84 y10 $EE $00 f+=51
$EF $B5 $DC $DC f+=73
$EF $E3 $DC $DC @33 (!0,0) (!1,-1) (!3,3) v96 y16 $EE $39 a+=52
r12..
$EF $35 $DC $DC @31 (!0,0) $ED $80 $7F v123 y10 $EE $00 f+8 @30 (!1,-1) (!154,3) v94 y7 < $EE $D8 g8
(!114,3) > $EE $DC e8 r64 $EF $2D $DC $DC @34 (!0,0) (!1,-1) (!6,3) v84 y10 $EE $00 f+=52

@30 (!0,0) (!1,-1) (!97,3) v94 y7 $EE $D9 d8 r96 @32 (!0,0) (!1,-1) (!1,3) v89 y10 << $EE $00 g96 r4
@30 (!0,0) (!1,-1) (!3,3) v94 y7 > $EE $D8 g8
$EF $FB $DC $DC @32 (!0,0) (!1,-1) (!6,3) v89 y10 $EE $00 c=52
@30 (!0,0) (!1,-1) (!155,3) v94 y7 > $EE $DA f8 @31 (!0,0) v123 y10 $EE $00 f+8
@30 (!1,-1) (!267,3) v94 y7 < $EE $D8 g8 r64 (!115,3) > $EE $DC e8
r96 @31 (!0,0) v123 y10 $EE $00 f+8 r=26
$EF $3D $DC $DC @34 (!1,-1) (!6,3) v84 f+=26 @30 (!0,0) (!1,-1) (!3,3) v94 y7 < $EE $D8 b8
r=26 $EF $B9 $DC $DC @34 (!0,0) (!1,-1) (!1,3) v84 y10 > $EE $00 f+96
r=73
@30 (!0,0) (!1,-1) (!99,3) v94 y7 $EE $D8 c8
r64 @31 (!0,0) v123 y10 $EE $00 f+8 @30 (!1,-1) (!3,3) v94 y7 < $EE $DC d8
r96 $EE $D8 b8 $EF $17 $DC $DC @34 (!0,0) (!1,-1) (!6,3) v84 y10 > $EE $00 f+=77

@30 (!0,0) (!1,-1) (!100,3) v94 y7 < $EE $DC d8 r=26
@34 (!0,0) (!1,-1) (!6,3) v84 y10 > $EE $00 f+=103

@30 (!0,0) (!1,-1) (!3,3) v94 y7 < $EE $D8 b8 (!174,3) $EE $DC d8
(!68,3) $EE $D8 b8 r64 $EF $3F $DC $DC @31 (!0,0) v123 y10 > $EE $00 f+8
r=26
@30 (!1,-1) (!214,3) v104 y7 < $EE $D8 a8 r64 $EF $2B $DC $DC @36 (!0,0) v101 y10 > $EE $00 f+=29
r16.. $EF $B9 $DC $DC @34 (!1,-1) (!6,3) v84 f+=77

@30 (!0,0) (!1,-1) (!232,3) v104 y7 $EE $D7 g8 @31 (!0,0) v123 y10 $EE $00 f+8
@30 (!1,-1) (!268,3) v104 y7 < $EE $D8 a8 r64 (!215,3) > $EE $D5 f+8
r96 @31 (!0,0) v123 y10 $EE $00 f+8 r=25
@33 (!1,-1) (!269,3) v109 y15 $EE $42 d=67
r=29
$EF $CE $DC $DC (!3,3) $EE $3C f4
r=34
@31 (!0,0) $ED $80 $7F v123 y10 $EE $00 f+8 @30 (!1,-1) (!3,3) v94 y7 < $EE $D8 g8
r96 g8 r96 @31 (!0,0) v123 y10 > $EE $00 f+8
r=26 @30 (!1,-1) (!270,3) v104 y7 < $EE $DC d8
r64 $EF $87 $DC $DC @36 (!0,0) v101 y10 > $EE $00 f+=29 r=20
$EF $EF $DC $DC @32 (!1,-1) (!6,3) v89 << g=27 @30 (!0,0) (!1,-1) (!3,3) v104 y7 > $EE $DC d8
r8 @35 (!0,0) (!1,-1) (!10,3) v98 y6 >> $EE $BA d6..

r16. @33 (!0,0) (!1,-1) (!271,3) v94 y15 << $EE $3D g12.. r=49
(!272,3) v109 > $EE $42 c=33
r8....
@31 (!0,0) $ED $80 $7F v120 y10 $EE $00 f+8
r2^=57


$EF $6C $DC $DC @32 v89 << g=65
r=11 (!1,-1) (!6,3) d=52
@30 (!0,0) (!1,-1) (!156,3) v110 y7 > $EE $D8 b8
@34 (!0,0) (!1,-1) (!6,3) v84 y10 > $EE $00 f+=77

@30 (!0,0) (!1,-1) (!3,3) v110 y7 < $EE $DC d8 d8
r=26 $EF $DA $DC $DC @33 (!0,0) (!1,-1) (!3,3) v96 y16 $EE $3D g=33
r16. @35 (!0,0) (!16,-1) (!10,3) v98 y6 > $EE $C4 e8
r=27 $EF $EF $DC $DC @32 (!0,0) (!1,-1) (!6,3) v89 y10 << $EE $00 f=52
@30 (!0,0) (!1,-1) (!3,3) v110 y7 > $EE $DC d8
r=26 d8
@34 (!0,0) (!1,-1) (!6,3) v84 y10 > $EE $00 f+=77
@30 (!0,0) (!1,-1) (!157,3) v110 y7 < $EE $DC d8
r=26
(!228,3) d8 r96 $EF $EB $DC $DC @32 (!0,0) v89 y10 < $EE $00 d=65
r32..
@37 v144 y7 >> $EE $FF b=52
$EF $8F $DC $DC @34 (!16,-1) (!6,3) v84 y10 $EE $00 f+=103

@32 (!0,0) (!1,-1) (!1,3) v89 << g96 r4
@30 (!0,0) (!1,-1) (!3,3) v110 y7 > $EE $D8 a8 @31 (!0,0) v123 y10 > $EE $00 f+8
r=26 @34 (!1,-1) (!6,3) v84 f+=39
$EF $6F $DC $DC @37 (!0,0) (!1,-1) (!6,3) v118 y7 a=40
a=27
$EF $DE $DC $DC (!1,3) v133 $EE $FF b96 r=44
v127 $EE $00 a96 r=25 @30 (!0,0) (!1,-1) (!3,3) v110 < $EE $D8 g8
r=26 (!249,3) > $EE $D9 d8
$EF $83 $DC $DC @36 (!0,0) v101 y10 $EE $00 f+12... r16..
$EF $E2 $DC $DC @32 v89 < c3
r=13 @34 (!1,-1) (!6,3) v84 > f+=102


$EF $9F $DC $DC @31 (!0,0) v123 f+8 r=26
$EF $6F $DC $DC @33 (!1,-1) (!177,3) v96 y16 < $EE $3D g8 r=26
@34 (!0,0) (!16,-1) (!6,3) v84 y10 > $EE $00 f+=52
@30 (!0,0) (!1,-1) (!3,3) v110 y7 < $EE $D8 g8 r=26
$EF $AB $DC $DC @34 (!0,0) (!1,-1) (!6,3) v84 y10 > $EE $00 f+=103

$EF $CD $DC $DC @33 (!0,0) (!1,-1) (!273,3) v96 y16 < $EE $3D g12... r=20
@30 (!0,0) (!1,-1) (!3,3) v110 y7 $EE $D8 a8 @34 (!0,0) (!1,-1) (!6,3) v84 y10 > $EE $00 f+=52
@30 (!0,0) (!1,-1) (!140,3) v110 y7 < $EE $D8 b8
$EF $3D $DC $DC @31 (!0,0) v123 y10 > $EE $00 f+8 r=26
@30 (!1,-1) (!274,3) v110 y7 < $EE $DC d8
r64 $EF $1E $DC $DC @36 (!0,0) y10 > $EE $00 f+=29 r=19
$EF $5F $DC $DC @37 (!1,-1) (!6,3) v127 y7 $EE $07 c=29 $EF $DE $DC $DC v133 < $EE $05 a=51
$EF $5E $DC $DC v127 a=23
@30 (!0,0) (!1,-1) (!251,3) v110 $EE $D8 b8 r=27
(!275,3) $EE $DC d8 $EF $0F $DC $DC @31 (!0,0) v123 y10 > $EE $00 f+=25
r=26 @34 (!1,-1) (!6,3) v84 f+=50
@37 (!0,0) v133 y7 $EE $07 d+=52
$EF $F3 $DC $DC @32 v89 y10 < $EE $00 d3

r16 $EF $F3 $DC $DC < a3
r16
$EF $56 $DC $DC > d=63
r16 $EF $FE $DC $DC (!1,-1) (!6,3) f=52
@30 (!0,0) (!1,-1) (!169,3) v118 y7 > $EE $D5 f+8
@31 (!0,0) v123 y10 $EE $00 f+=25 r=26
@30 (!1,-1) (!33,3) v112 y7 $EE $D9 d8 r96 @34 (!0,0) (!1,-1) (!6,3) v84 y10 $EE $00 f+=77

@30 (!0,0) (!1,-1) (!5,3) v112 y7 < $EE $D8 g8
r=26 (!207,3) > $EE $DA f8
(!33,3) < $EE $D8 g8 r96 > $EE $DA f8
r96 @34 (!0,0) (!1,-1) (!6,3) v84 y10 $EE $00 f+=27 @37 (!0,0) (!1,-1) (!1,3) v133 y7 < $EE $05 a96 r=47
@30 (!0,0) (!1,-1) (!276,3) v118 $EE $D8 a8
$EF $A5 $DC $DC @36 (!0,0) v101 y10 > $EE $00 f+12... r16..
@30 (!1,-1) (!277,3) v118 y7 < $EE $D8 b8 r64 @34 (!0,0) (!1,-1) (!1,3) v84 y10 > $EE $00 f+96 r=73

(!6,3) f+=52
@30 (!0,0) (!1,-1) (!265,3) v118 y7 < $EE $D8 b8 $EF $D5 $DC $DC (!220,3) v120 a16.
r=58
$EF $DD $DC $DC @32 (!0,0) v89 y10 $EE $00 c+3
r=63

$EF $9C $DC $DC @38 $ED $80 $7F v123 $EE $87 b=17 r=87

$EF $5F $DC $DC @30 (!1,-1) (!278,3) v94 y7 > $EE $D9 d8 r8
(!33,3) < $EE $D8 g8 r48 $EF $FE $DC $DC > $EE $D9 d8
$EF $FB $DC $DC d8 r64
$EF $7F $DC $DC (!279,3) d8 $EF $7E $DC $DC (!280,3) d8
r=25 (!281,3) < $EE $D8 g8
r64 $EF $EF $DC $DC (!282,3) > $EE $D9 d8 r96 (!33,3) d8
$EF $FE $DC $DC d8 r64 $EF $FA $DC $DC d8
r=50
$EF $7D $DC $DC (!283,3) < $EE $D8 a8 @39 (!0,0) $ED $80 $7F v113 y10 > $EE $00 b12
r32. b12 r32.. @32 v97 << g=65

r=11 (!1,-1) (!6,3) g=27 @30 (!0,0) (!1,-1) (!208,3) v94 y7 > $EE $D8 a8
(!284,3) a8 r96
@35 (!0,0) (!1,-1) (!10,3) v105 y6 $EE $C5 a12.. r=19 @33 (!0,0) (!1,-1) (!33,3) v94 y15 $EE $3D a+16
r16... @30 (!0,0) (!1,-1) (!6,3) y7 > $EE $DA f=23
$EE $D9 d=23 (!33,3) < $EE $D8 g8
$EF $DF $DC $DC @32 (!0,0) (!1,-1) (!6,3) v97 y10 $EE $00 c=57
@30 (!0,0) (!1,-1) (!33,3) v94 y7 > $EE $DA f8 r=19
@35 (!0,0) (!1,-1) (!10,3) v93 y6 $EE $C4 c=25 r=26
v98 $EE $C6 d+2^6..


r8 v101 d+=27
r8
d+=27 r8
$EE $C4 c=27 r=26
$EF $3C $DC $DC @34 (!0,0) (!1,-1) (!6,3) v84 y10 $EE $00 f+=51
@30 (!0,0) (!1,-1) (!13,3) v94 y7 < $EE $D8 a8 @34 (!0,0) (!1,-1) (!6,3) v84 y10 > $EE $00 f+=52
@30 (!0,0) (!1,-1) (!33,3) v94 y7 < $EE $D7 a+8
r=26 a+8
$EF $35 $DC $DC @36 (!0,0) v110 y10 > $EE $00 f+=31
r16.. $EF $13 $DC $DC @34 (!1,-1) (!6,3) v84 f+=103

(!1,3) f+96 r=74

$EF $9D $DC $DC (!6,3) f+=76
@30 (!0,0) (!1,-1) (!1,3) v94 y7 < $EE $D8 a96 r16...
(!17,3) $EE $D7 a+8 (!115,3) $EE $E3 c8
r96 @33 (!0,0) v111 y15 > $EE $42 c1^=105





r=7 $EF $B4 $DC $DC @31 $ED $80 $7F v123 y10 $EE $00 f+8
r=26 @34 (!16,-1) (!6,3) v84 f+=77

@30 (!0,0) (!1,-1) (!285,3) v94 y7 < $EE $E3 c8 r96 $EF $1C $DC $DC @34 (!0,0) (!1,-1) (!1,3) v84 y10 > $EE $00 f+96 r=74

@30 (!0,0) (!1,-1) (!33,3) v94 y7 < $EE $D8 a8 (!174,3) $EE $D7 a+8
r96 (!68,3) $EE $E3 c8 @33 (!0,0) (!1,-1) (!286,3) v96 y16 $EE $44 g+=55

r16... $EF $95 $DC $DC @31 (!0,0) $ED $80 $7F v123 y10 > $EE $00 f+8
r=26 $EF $6D $DC $DC @32 (!1,-1) (!6,3) v89 < f=26
@30 (!0,0) (!1,-1) (!33,3) v94 y7 $EE $D7 a+8 r=26
$EF $37 $DC $DC @34 (!0,0) (!1,-1) (!6,3) v84 y10 > $EE $00 f+=27 @30 (!0,0) (!1,-1) (!287,3) v94 y7 < $EE $E3 c8
(!268,3) c8 r96 (!215,3) $EE $D8 a8
@31 (!0,0) v123 y10 > $EE $00 f+=25 r=26
@30 (!1,-1) (!33,3) v94 y7 < $EE $E3 c8 r96 c8
r=26 (!288,3) c8
r96 $EF $22 $DC $DC @34 (!0,0) (!1,-1) (!6,3) v84 y10 > $EE $00 f+=81

$EF $DD $DC $DC @37 (!0,0) (!1,-1) (!6,3) v135 y7 $EE $06 g=49
$EF $5E $DC $DC (!1,3) v125 $EE $FF b96 r16... $EF $7F $DC $DC (!6,3) v118 > $EE $FE c=20
(!1,3) < $EE $03 a+96 r=33 $EF $6B $DC $DC (!6,3) v133 a+16..
@30 (!0,0) (!1,-1) (!1,3) v94 $EE $D9 d96 r8...
@37 (!0,0) (!1,-1) (!6,3) v125 > $EE $FE c=29 @30 (!0,0) (!1,-1) (!1,3) v94 << $EE $D9 f96 r=47
(!33,3) f8
r96 $EF $2F $DC $DC @36 (!0,0) v110 y10 > $EE $00 f+=29
r=20 @34 (!1,-1) (!6,3) v84 f+=27
@30 (!0,0) (!1,-1) (!289,3) v94 y7 < $EE $D9 f8 r=26
(!290,3) f8 r96 @31 (!0,0) v123 y10 > $EE $00 f+8
@32 (!1,-1) (!6,3) v89 < g+=27 @37 (!0,0) (!1,-1) (!6,3) v127 y7 > $EE $03 a+=25
@30 (!0,0) (!1,-1) (!33,3) v94 < $EE $D9 f8 r8
@33 (!0,0) (!1,-1) (!33,3) v87 y15 $EE $44 g+6...
r=15 @37 (!0,0) (!1,-1) (!6,3) v125 y7 > $EE $06 f=29
@34 (!0,0) (!16,-1) (!6,3) v84 y10 $EE $00 f+=52
@30 (!0,0) (!1,-1) (!1,3) v94 y7 < $EE $D8 g96 r16... $EF $B7 $DC $DC @34 (!0,0) (!1,-1) (!6,3) v84 y10 > $EE $00 f+=52

@30 (!0,0) (!1,-1) (!1,3) v94 y7 < $EE $E3 c96 r16... @31 (!0,0) v123 y10 > $EE $00 f+8
r=26 @30 (!1,-1) (!22,3) v94 y7 < $EE $D7 a+8
$EF $AF $DC $DC @36 (!0,0) v110 y10 > $EE $00 f+=31 r=19
$EF $F1 $DC $DC @35 (!1,-1) (!10,3) v89 y6 $EE $C0 a+16. r=34
@34 (!0,0) (!1,-1) (!6,3) v84 y10 $EE $00 f+=51
@30 (!0,0) (!1,-1) (!199,3) v94 y7 < $EE $D8 a8 r=26
$EF $79 $DC $DC @32 (!0,0) v89 y10 $EE $00 f=65
r32 $EF $C3 $DC $DC @35 (!1,-1) (!10,3) v92 y7 > $EE $C3 f=35
r16... $EF $2B $DC $DC @34 (!0,0) (!1,-1) (!1,3) v84 y10 $EE $00 f+96 r4
@30 (!0,0) (!1,-1) (!157,3) v94 y7 < $EE $D8 g8
r=26
$EF $3E $DC $DC @34 (!0,0) (!1,-1) (!6,3) v84 y10 > $EE $00 f+=27 @30 (!0,0) (!1,-1) (!33,3) v94 y7 $EE $DC e8
r=26 $EF $36 $DC $DC @34 (!0,0) (!1,-1) (!6,3) v84 y10 $EE $00 f+=77

@30 (!0,0) (!1,-1) (!176,3) v94 y7 < $EE $D8 g8 @31 (!0,0) v123 y10 > $EE $00 f+8
r=26 @34 (!1,-1) (!1,3) v84 f+96 r8
@30 (!0,0) (!1,-1) (!33,3) v94 y7 $EE $D8 c8 r=26
c8 r64 $EF $27 $DC $DC @36 (!0,0) v101 y10 $EE $00 f+=29
r=20 $EF $57 $DC $DC @32 (!1,-1) (!6,3) v89 < a+=26
@30 (!0,0) (!1,-1) (!291,3) v94 y7 > $EE $D8 d+8 r=26
@34 (!0,0) (!1,-1) (!6,3) v84 y10 $EE $00 f+=78

f+=27 @30 (!0,0) (!1,-1) (!1,3) v94 y7 < $EE $E3 c96 r=47
$EF $2F $DC $DC @34 (!0,0) (!1,-1) (!6,3) v84 y10 > $EE $00 f+=27
@30 (!0,0) (!1,-1) (!1,3) v94 y7 < $EE $D8 a96 r=47
$EF $35 $DC $DC @34 (!0,0) (!1,-1) (!6,3) v84 y10 > $EE $00 f+=77
@30 (!0,0) (!1,-1) (!1,3) v94 y7 < $EE $E3 c96 r16...
$EF $AF $DC $DC @36 (!0,0) v110 y10 > $EE $00 f+=29
r16.. @34 (!1,-1) (!1,3) v84 f+96 r=73

@30 (!0,0) (!1,-1) (!177,3) v94 y7 < $EE $D8 g8 r64 @31 (!0,0) v123 y10 > $EE $00 f+8
r=26 @32 (!1,-1) (!6,3) v89 < f=26
@30 (!0,0) (!1,-1) (!33,3) v94 y7 $EE $D7 a+8 r=26
(!139,3) $EE $E3 c8 $EF $2E $DC $DC @36 (!0,0) v110 y10 > $EE $00 f+12...
r16.. @32 (!1,-1) (!6,3) v89 < g+=25
@37 (!0,0) (!1,-1) (!6,3) v106 y7 $EE $0C g12.. $EE $07 a+=51
$EE $0C g=26
(!1,3) > $EE $07 e96 r16... @39 (!0,0) v113 y10 $EE $00 b=15
r32. @37 (!1,-1) (!6,3) v106 y7 < $EE $07 a+=52
$EF $5F $DC $DC (!1,3) > c96 r=23
$EF $FF $DC $DC @32 (!0,0) (!1,-1) (!6,3) v89 y10 < $EE $00 a+=52
@39 (!0,0) $ED $80 $7F v113 > b24.. r32. @37 (!1,-1) (!6,3) v106 y7 < $EE $07 f=27
$EF $EF $DC $DC (!1,3) > $EE $08 d96 r=25 $EF $FD $DC $DC @33 (!0,0) (!1,-1) (!33,3) v102 y15 $EE $39 g+1^=35




r8
@37 (!0,0) (!1,-1) (!6,3) v106 y7 < $EE $07 f=26 (!1,3) > $EE $08 d96 r16...
(!6,3) < $EE $0B b=27 (!1,3) b96 r16...
(!6,3) $EE $0C g=27 (!1,3) $EE $0B b96 r16...
(!6,3) b=52
(!1,3) $EE $0C g96 r16... (!6,3) $EE $0B b=27
(!1,3) $EE $0C g96 r16.. $EF $5F $DC $DC (!6,3) $EE $0B b=27
@33 (!0,0) (!1,-1) (!292,3) v84 y15 > $EE $42 c32. r=40
$EF $6F $DC $DC @37 (!0,0) (!1,-1) (!6,3) v106 y7 < $EE $07 e=26 > $EE $08 d=27
$EF $7F $DC $DC (!1,3) d96 r4
< $EE $0C g96 r16...
@39 (!0,0) v113 y10 > $EE $00 b=15 r32. @38 < $EE $87 b16. r6
@39 > $EE $00 b=17 r32..
$EF $2F $DC $DC @38 (!1,-1) (!6,3) < $EE $87 d+=26 @31 (!0,0) $ED $80 $7F v123 > $EE $00 f+8
r=26 @30 (!1,-1) (!72,3) v110 y7 $EE $D9 d8
@34 (!0,0) (!1,-1) (!6,3) v84 y10 $EE $00 f+=52
@30 (!0,0) (!1,-1) (!122,3) v110 y7 < $EE $D8 g8 $EF $3B $DC $DC @34 (!0,0) (!1,-1) (!6,3) v84 y10 > $EE $00 f+=54
$EF $5B $DC $DC @37 (!0,0) v140 y7 > $EE $FE c+=52

r16... $EF $7A $DC $DC @32 v89 y10 << $EE $00 c=63
r32. $EF $EA $DC $DC @37 (!1,-1) (!6,3) v140 y7 >> $EE $FB e6
$EF $D7 $DC $DC v144 $EE $FE c+=52
r16...
@32 (!0,0) v89 y10 << $EE $00 c3
r16 $EF $93 $DC $DC @31 v123 > f+8
@30 (!1,-1) (!266,3) v110 y7 $EE $DA f8 r96 (!76,3) $EE $DC e8
$EF $F4 $DC $DC @32 (!0,0) v89 y10 < $EE $00 c=65
r=11 @37 v140 y7 >> $EE $FE c+=52
@32 v89 y10 << $EE $00 c=63

r=11 @37 v147 y7 >> $EE $FE c+=52
@32 (!1,-1) (!6,3) v89 y10 <<< $EE $00 a+=52
$EF $BB $DC $DC @31 (!0,0) v123 >> f+8
r=26 @33 (!1,-1) (!9,3) v96 y16 < $EE $3B c8
r=26 @34 (!0,0) (!16,-1) (!6,3) v84 y10 > $EE $00 f+=52
@30 (!0,0) (!1,-1) (!59,3) v110 y7 < $EE $D8 g8
r=26 @32 (!0,0) (!1,-1) (!6,3) v89 y10 $EE $00 c=29
@37 (!0,0) (!1,-1) (!6,3) v133 y7 >> $EE $FB e8 $EF $EF $DC $DC @30 (!0,0) (!1,-1) (!1,3) v110 << $EE $D8 g96
r16.. $EF $2F $DC $DC @34 (!0,0) (!1,-1) (!1,3) v84 y10 > $EE $00 f+96 r=23 @30 (!0,0) (!1,-1) (!125,3) v110 y7 < $EE $D8 g8
r=26
(!78,3) $EE $E3 c8 r64 @36 (!0,0) v101 y10 > $EE $00 f+=29
r16.. $EF $AE $DC $DC @34 (!1,-1) (!6,3) v84 f+=77

@30 (!0,0) (!1,-1) (!126,3) v110 y7 < $EE $D7 a+8 r96 @36 (!0,0) y10 > $EE $00 f+=29
r=20 @32 (!1,-1) (!6,3) v89 < f12..
@37 (!0,0) (!1,-1) (!1,3) v147 y7 >> $EE $FB e96 r=47
$EF $3A $DC $DC @34 (!0,0) (!16,-1) (!6,3) v84 y10 < $EE $00 f+12...
$EF $5B $DC $DC @37 (!0,0) (!1,-1) (!1,3) v137 y7 > $EE $F8 f+96 r=44 $EF $5F $DC $DC @30 (!0,0) (!1,-1) (!166,3) v110 << $EE $D8 a8
$EF $AF $DC $DC @31 (!0,0) v123 y10 > $EE $00 f+8 r=25
@37 v144 y7 > $EE $FB e=52
@32 (!1,-1) (!6,3) v89 y10 << $EE $00 d+=52
$EF $36 $DC $DC @34 (!0,0) (!1,-1) (!1,3) v84 > f+96 r=73

@30 (!0,0) (!1,-1) (!13,3) v110 y7 < $EE $D8 g8 r=26
@34 (!0,0) (!1,-1) (!6,3) v84 y10 > $EE $00 f+=78
@30 (!0,0) (!1,-1) (!59,3) v110 y7 < $EE $D8 g8
$EF $37 $DC $DC @34 (!0,0) (!1,-1) (!6,3) v84 y10 > $EE $00 f+=52
@30 (!0,0) (!1,-1) (!114,3) v110 y7 $EE $DC e8 @32 (!0,0) (!1,-1) (!6,3) v89 y10 < $EE $00 c=52

@30 (!0,0) (!1,-1) (!97,3) v110 y7 $EE $D8 g8 r96 @31 (!0,0) v123 y10 > $EE $00 f+=23
r=26 $EF $72 $DC $DC @30 (!1,-1) (!59,3) v110 y7 $EE $DC e8
@34 (!0,0) (!1,-1) (!6,3) v84 y10 $EE $00 f+=52
@30 (!0,0) (!1,-1) (!293,3) v110 y7 $EE $DA f8 $EF $B9 $DC $DC @36 (!0,0) y10 $EE $00 f+12...
r=19 $EF $FA $DC $DC @37 v118 y7 a=52
$EF $37 $DC $DC @34 (!16,-1) (!6,3) v84 y10 f+=52
@30 (!0,0) (!1,-1) (!59,3) v110 y7 < $EE $DC d8
$EF $2B $DC $DC @34 (!0,0) (!1,-1) (!6,3) v84 y10 > $EE $00 f+=51
@30 (!0,0) (!1,-1) (!192,3) v110 y7 $EE $D8 c8 r12..
$EF $2B $DC $DC @34 (!0,0) (!1,-1) (!6,3) v84 y10 $EE $00 f+=29
$EF $FB $DC $DC @37 (!0,0) (!1,-1) (!6,3) v133 y7 > $EE $FE c+=49
@30 (!0,0) (!1,-1) (!1,3) v110 << $EE $DC d96 r16... @31 (!0,0) v123 y10 > $EE $00 f+8
r=26 @30 (!1,-1) (!294,3) v110 y7 < $EE $E3 c8
r96 (!116,3) c8 @34 (!0,0) (!1,-1) (!6,3) v84 y10 > $EE $00 f+=54
$EF $79 $DC $DC @37 (!0,0) v133 y7 $EE $06 g=52
r16...
$EF $8F $DC $DC @31 $ED $80 $7F v123 y10 $EE $00 f+8 @34 (!16,-1) (!6,3) v84 f+=52

@30 (!0,0) (!1,-1) (!129,3) v110 y7 < $EE $D8 g8 r=26
$EF $75 $DC $DC @32 (!0,0) (!1,-1) (!6,3) v89 y10 $EE $00 c=27 @30 (!0,0) (!1,-1) (!1,3) v110 y7 > $EE $DC e96 r=47
$EF $55 $DC $DC (!59,3) e8
@34 (!0,0) (!1,-1) (!6,3) v84 y10 $EE $00 f+=77
$EF $9F $DC $DC @36 (!0,0) v110 f+=29
r=19 @37 (!1,-1) (!6,3) v125 y7 $EE $FF b12...
@36 (!0,0) $ED $80 $7F v101 y10 $EE $00 f+=29 r=20
@32 v89 < g=63
r16 g3

r16 $EF $F7 $DC $DC < g3
r=13
(!1,-1) (!6,3) g=52
@37 (!0,0) (!1,-1) (!1,3) v110 y7 $EE $06 d96 r4
(!6,3) v118 d=51
v120 d=51
v125 d=51
(!1,3) v127 d96 r4
v133 d=52
r=23
v137 < $EE $0D e=52
r1^32..



@32 (!0,0) (!1,-1) (!6,3) v89 y10 >> $EE $00 g=51
@37 (!0,0) (!1,-1) (!1,3) v127 y7 << $EE $21 a96 r=23 @31 (!0,0) $ED $80 $7F v123 y10 >>> $EE $00 f+8
@37 (!1,-1) (!6,3) v127 y7 <<< $EE $21 a=51
a=51
a=27
@31 (!0,0) $ED $80 $7F v123 y10 >>> $EE $00 f+=23 @37 (!1,-1) (!6,3) v127 y7 <<< $EE $21 a=52
v135 a=52
r24 v127 >> $EE $04 c+=52

r2^=92


@30 (!0,0) (!1,-1) (!295,3) v118 > $EE $D5 f+8


#7 $F0 @31 v123 y10 o5 f+8 r=102

$EF $B7 $DC $DC $F2 $8A $DC $DC $F1 $03 $50 $01 @30 (!1,-1) (!3,3) v94 y7 < $EE $D8 b8
r=76
(!296,3) $EE $DC d8
r=104

(!3,3) d8 r=76

(!297,3) d8 r=78

(!3,3) d8
r=77
(!276,3) $EE $D8 a8
r=52
(!277,3) $EE $DC d8 r=78

@36 (!0,0) v110 y10 > $EE $00 f+12...
r8.... @30 (!1,-1) (!298,3) v94 y7 < $EE $D8 a8
r=77

$EF $F7 $DC $DC @32 (!0,0) v89 y10 < $EE $00 f3
r=38
@30 (!1,-1) (!299,3) v94 y7 > $EE $DC d8 r=51
(!300,3) $EE $D8 b8
r=53
@34 (!0,0) (!1,-1) (!6,3) v84 y10 > $EE $00 f+=77
@30 (!0,0) (!1,-1) (!301,3) v94 y7 < $EE $DC d8
@31 (!0,0) v123 y10 > $EE $00 f+=25
r=25 @30 (!1,-1) (!302,3) v94 y7 $EE $D8 c8
r96 $EF $59 $DC $DC @36 (!0,0) v110 y10 $EE $00 f+12... r16..
@34 (!1,-1) (!6,3) v84 f+=77
@30 (!0,0) (!1,-1) (!303,3) v94 y7 < $EE $D8 a8
@34 (!0,0) (!1,-1) (!1,3) v84 y10 > $EE $00 f+96 r=74
@30 (!0,0) (!1,-1) (!3,3) v94 y7 < $EE $DC d8
r=26 > $EE $D8 c8
r96 $EF $15 $DC $DC @34 (!0,0) (!1,-1) (!6,3) v84 y10 $EE $00 f+=78

$EF $9B $DC $DC @35 (!0,0) (!1,-1) (!10,3) v86 y6 $EE $C1 a16 r8.
@30 (!0,0) (!1,-1) (!304,3) v94 y7 < $EE $D8 a8 r96 @33 (!0,0) (!1,-1) (!3,3) v96 y16 >> $EE $33 d=69

r12... $EE $34 c+=26
r=27 $EF $6B $DC $DC @31 (!0,0) $ED $80 $7F v123 y10 < $EE $00 f+=25
$EF $FE $DC $DC @30 (!1,-1) (!305,3) v94 y7 < $EE $DC d8 (!306,3) $EE $D8 b8
r64 @31 (!0,0) v123 y10 > $EE $00 f+8 r=26
@30 (!1,-1) (!3,3) v94 y7 < $EE $DC d8 r96 @34 (!0,0) (!1,-1) (!6,3) v84 y10 > $EE $00 f+=77

@30 (!0,0) (!1,-1) (!307,3) v94 y7 < $EE $DC d8
r=26 (!308,3) > $EE $D8 c8
$EF $6C $DC $DC @34 (!0,0) (!1,-1) (!6,3) v84 y10 $EE $00 f+=77
@30 (!0,0) (!1,-1) (!3,3) v94 y7 < $EE $D8 g8
r=26 (!309,3) > $EE $D9 d8
@31 (!0,0) v123 y10 $EE $00 f+=26 r=27
$EF $F5 $DC $DC @30 (!1,-1) (!310,3) v94 y7 < $EE $D8 g8 @31 (!0,0) v123 y10 > $EE $00 f+=25
r=26 @30 (!1,-1) (!3,3) v94 y7 < $EE $D8 g8
r96 @34 (!0,0) (!1,-1) (!6,3) v84 y10 > $EE $00 f+=77

@30 (!0,0) (!1,-1) (!311,3) v94 y7 $EE $D9 d8 r=26
@34 (!0,0) (!1,-1) (!6,3) v84 y10 $EE $00 f+=27 $EF $7E $DC $DC @36 (!0,0) v101 f+=29
r16.. @34 (!1,-1) (!6,3) v84 f+=26
(!1,3) f+96 r4
@30 (!0,0) (!1,-1) (!293,3) v94 y7 < $EE $D8 g8 $EF $7B $DC $DC @36 (!0,0) v110 y10 > $EE $00 f+=29
r16.. @34 (!1,-1) (!1,3) v84 f+96 r8
@30 (!0,0) (!1,-1) (!3,3) v94 y7 < $EE $DC d8 r=26
d8 r96 @34 (!0,0) (!1,-1) (!6,3) v84 y10 > $EE $00 f+=52
@30 (!0,0) (!1,-1) (!312,3) v94 y7 < $EE $D8 b8
$EF $3D $DC $DC @31 (!0,0) v123 y10 > $EE $00 f+8 r=26
@30 (!1,-1) (!313,3) v94 y7 < $EE $DC d8
r96 $EF $79 $DC $DC @36 (!0,0) v110 y10 > $EE $00 f+12... r16..
$EF $2F $DC $DC @34 (!1,-1) (!6,3) v84 f+=27 @35 (!0,0) (!1,-1) (!10,3) v93 y6 $EE $C6 d+=54
r=20
@31 (!0,0) v123 y10 $EE $00 f+8 r=26
@30 (!1,-1) (!285,3) v94 y7 < $EE $DC d8 r96 @34 (!0,0) (!1,-1) (!6,3) v84 y10 > $EE $00 f+2^=57



(!1,3) f+96 r=74
(!6,3) f+=52
@30 (!0,0) (!1,-1) (!1,3) v104 y7 $EE $D5 f+96 r16..
$EF $3D $DC $DC @31 (!0,0) v123 y10 $EE $00 f+8 r=26
@30 (!1,-1) (!314,3) v104 y7 < $EE $D8 a8 r96 $EF $79 $DC $DC @36 (!0,0) v110 y10 > $EE $00 f+=29
r16.. @34 (!1,-1) (!1,3) v84 f+96 r8
@30 (!0,0) (!1,-1) (!3,3) v94 y7 $EE $D9 d8 r=26
@34 (!0,0) (!1,-1) (!6,3) v84 y10 $EE $00 f+=27 @30 (!0,0) (!1,-1) (!3,3) v94 y7 $EE $DC e8
r=25 $EF $CB $DC $DC @32 (!0,0) v89 y10 < $EE $00 c3

r=5 $EF $B2 $DC $DC @33 (!1,-1) (!3,3) v96 y16 > $EE $3A g16. r=26
$EF $C7 $DC $DC (!315,3) v84 y15 $EE $3C f=26 r6
$EF $E5 $DC $DC (!316,3) v109 f=51
r6
$EF $A7 $DC $DC @32 (!0,0) (!1,-1) (!6,3) v89 y10 << $EE $00 d=51
@34 (!0,0) (!1,-1) (!6,3) v84 >> f+=27 @30 (!0,0) (!1,-1) (!1,3) v104 y7 $EE $D8 c96 r=47
@34 (!0,0) (!1,-1) (!6,3) v84 y10 $EE $00 f+=26
@30 (!0,0) (!1,-1) (!3,3) v104 y7 < $EE $DC d8 (!317,3) > $EE $D8 c8
(!318,3) < b8 r64 @36 (!0,0) v110 y10 > $EE $00 f+=29
r=47
f+12...
r1^32



@31 v123 f+8 r=51
$EF $5B $DC $DC f+=25
r=26 @34 (!1,-1) (!6,3) v84 f+=103


(!1,3) f+96 r=73
@30 (!0,0) (!1,-1) (!3,3) v110 y7 < $EE $DC d8
r=26 $EF $F3 $DC $DC @33 (!0,0) (!1,-1) (!319,3) v96 y16 $EE $3D g8
r=27 @34 (!0,0) (!16,-1) (!6,3) v84 y10 > $EE $00 f+=52
@30 (!0,0) (!1,-1) (!3,3) v110 y7 $EE $D8 c8
r=26 c8
< $EE $DC d8 r96 (!320,3) d8
r=26 @35 (!0,0) (!1,-1) (!10,3) v98 y6 > $EE $C4 e=29
r16...
@30 (!0,0) (!1,-1) (!321,3) v110 y7 < $EE $D8 a8 r96 @31 (!0,0) v123 y10 > $EE $00 f+8
r=26 @30 (!1,-1) (!3,3) v110 y7 < $EE $DC d8
r96 $EF $6E $DC $DC @31 (!0,0) v123 y10 > $EE $00 f+=25 r=25
@30 (!1,-1) (!322,3) v110 y7 $EE $D8 c8 r96 $EF $07 $DC $DC @36 (!0,0) y10 $EE $00 f+=29
r16.. @34 (!1,-1) (!1,3) v84 f+96 r8
@30 (!0,0) (!1,-1) (!3,3) v110 y7 < $EE $DC d8 r=26
@33 (!0,0) (!1,-1) (!3,3) v96 y16 $EE $3D g8 r=27
@34 (!0,0) (!16,-1) (!6,3) v84 y10 > $EE $00 f+=52
@30 (!0,0) (!1,-1) (!323,3) v110 y7 < $EE $DC d8
r=25 @34 (!0,0) (!1,-1) (!6,3) v84 y10 > $EE $00 f+=40
$EF $FA $DC $DC @37 (!0,0) (!1,-1) (!6,3) v118 y7 a=50
(!1,3) v125 $EE $06 g96 r24.. $EF $E6 $DC $DC v144 $EE $FF b=52
$EF $87 $DC $DC (!6,3) v140 b=26
v144 b=50
$EF $E6 $DC $DC (!1,3) v137 b96 r16... $EF $BA $DC $DC v140 > $EE $FE c+=52
r16...
$EF $17 $DC $DC @31 (!0,0) $ED $80 $7F v123 y10 < $EE $00 f+8 @30 (!1,-1) (!324,3) v110 y7 < $EE $D8 g8
(!325,3) > $EE $DC e8 r96 @32 (!0,0) (!1,-1) (!6,3) v89 y10 < $EE $00 c=52

@30 (!0,0) (!1,-1) (!326,3) v110 y7 > $EE $D9 d8 @31 (!0,0) v123 y10 $EE $00 f+8
r=26 @34 (!1,-1) (!6,3) v84 f+8.
$EF $BE $DC $DC @37 (!0,0) v114 y7 > $EE $FE d=52
r16 v127 < $EE $00 a=53
@34 (!16,-1) (!16,3) v84 y10 f+96 r8
@30 (!0,0) (!1,-1) (!3,3) v110 y7 < $EE $D8 a8 r=51
$EF $1F $DC $DC @31 (!0,0) v123 y10 > $EE $00 f+8
r=26 @34 (!1,-1) (!6,3) v84 f+=77

@30 (!0,0) (!1,-1) (!327,3) v110 y7 $EE $D8 c8
@34 (!0,0) (!1,-1) (!6,3) v84 y10 $EE $00 f+=77
f+=52
@30 (!0,0) (!1,-1) (!328,3) v110 y7 < $EE $DC d8
$EF $66 $DC $DC @36 (!0,0) v101 y10 > $EE $00 f+=29 r16...
@30 (!1,-1) (!329,3) v110 y7 < $EE $D8 b8 @34 (!0,0) (!1,-1) (!6,3) v84 y10 > $EE $00 f+=78

@30 (!0,0) (!1,-1) (!3,3) v110 y7 < $EE $D8 b8 (!330,3) $EE $DC d8
(!331,3) $EE $D8 b8 r64 @34 (!0,0) (!1,-1) (!6,3) v84 y10 > $EE $00 f+=52

@37 (!0,0) v147 y7 a=52
r=23 $EF $C6 $DC $DC @32 v89 y10 < d=63
r16
$EF $63 $DC $DC @34 (!1,-1) (!6,3) v84 > f+=29 @37 (!0,0) v133 y7 a=52
@35 (!16,-1) (!10,3) v98 y6 $EE $C4 d16.
r12.. @34 (!0,0) (!16,-1) (!6,3) v84 y10 $EE $00 f+=52
@30 (!0,0) (!1,-1) (!33,3) v112 y7 $EE $DC e8
r=26 @34 (!0,0) (!1,-1) (!1,3) v84 y10 $EE $00 f+96
r=99

@30 (!0,0) (!1,-1) (!33,3) v112 y7 $EE $DC e8 < $EE $D8 g8
r96 g8 r96 $EF $D7 $DC $DC @32 (!0,0) v89 y10 < $EE $00 g3
r=11
$EF $E3 $DC $DC d3
r=13 $EF $B8 $DC $DC g3

r16 @37 v125 y7 >> $EE $08 d=52
r=23 @32 v89 y10 << $EE $00 g3

r=11 @37 v122 y7 >> a=52
$EF $DC $DC $DC @32 v89 y10 < d3
r=114


$EF $7E $DC $DC @40 v113 > f+=65
r16 @32 (!1,-1) (!6,3) v97 < c=51
@30 (!0,0) (!1,-1) (!301,3) v94 y7 $EE $D8 g8
$EF $6F $DC $DC @40 (!0,0) v113 y10 > $EE $00 f+3
r16
@32 (!1,-1) (!6,3) v97 < c=52
@30 (!0,0) (!1,-1) (!33,3) v94 y7 $EE $D8 g+8 $EF $F8 $DC $DC @32 (!0,0) v97 y10 < $EE $00 g=63
r=13
@40 (!1,-1) (!6,3) v113 >> f+=51
@30 (!0,0) (!1,-1) (!332,3) v94 y7 < $EE $D8 a8 $EF $7C $DC $DC @40 (!0,0) v113 y10 > $EE $00 f+=65

r16 f+=63
r16 $EF $FB $DC $DC @32 (!1,-1) (!6,3) v97 < c=58

@30 (!0,0) (!1,-1) (!333,3) v94 y7 > $EE $DA f8 r=20
@35 (!0,0) (!1,-1) (!10,3) v86 y6 $EE $C4 c16. r=34
@33 (!0,0) (!1,-1) (!33,3) v109 y15 $EE $42 c12... r=19
@30 (!0,0) (!1,-1) (!334,3) v94 y7 < $EE $D8 g8 (!335,3) g8
r96 @33 (!0,0) (!1,-1) (!336,3) v96 y16 > $EE $42 d8 r=26
(!337,3) $EE $3A g1^=99





r=13 $EF $9D $DC $DC @35 (!0,0) (!16,-1) (!10,3) v101 y6 $EE $C4 d8.
r8..
$EF $56 $DC $DC @31 (!0,0) $ED $80 $7F v123 y10 $EE $00 f+8 r=26
@34 (!16,-1) (!6,3) v84 f+=103

(!16,3) f+96 r=73
@30 (!0,0) (!1,-1) (!311,3) v94 y7 < $EE $D8 g8
r=26
(!338,3) $EE $E3 c8 r96 $EF $33 $DC $DC @36 (!0,0) v101 y10 > $EE $00 f+12...
r16.. @34 (!1,-1) (!6,3) v84 f+=102

@30 (!0,0) (!1,-1) (!339,3) v94 y7 < $EE $E3 c8
(!267,3) c8 (!340,3) $EE $D8 a8
r64 $EF $D8 $DC $DC @32 (!0,0) v89 y10 $EE $00 f3
r16 $EF $D7 $DC $DC c=63

r16 $EF $CA $DC $DC f3
r=13
g+3
r16 $EF $B9 $DC $DC f=63
r16
$EF $DB $DC $DC c3
r=13 $EF $9C $DC $DC f3

r=13 $EF $70 $DC $DC @31 v123 > f+8 @30 (!1,-1) (!341,3) v94 y7 < $EE $E3 c8
(!342,3) $EE $D8 a8 r96 $EF $EC $DC $DC @32 (!0,0) v89 y10 $EE $00 f3

r=13 $EF $8D $DC $DC (!1,-1) (!6,3) c=52
@30 (!0,0) (!1,-1) (!33,3) v94 y7 $EE $D8 a8
@31 (!0,0) v123 y10 > $EE $00 f+8 r=26
@30 (!1,-1) (!314,3) v94 y7 < $EE $E3 c8 r96 $EF $7E $DC $DC @36 (!0,0) v110 y10 > $EE $00 f+12...
r=20 @34 (!1,-1) (!6,3) v84 f+=38
$EF $F9 $DC $DC @37 (!0,0) v125 y7 $EE $FF b=52
r16 $EF $DC $DC $DC @32 v89 y10 < $EE $00 c=63

r16 $EF $83 $DC $DC f3
r=13
$EF $6A $DC $DC @31 v123 > f+8 @30 (!1,-1) (!33,3) v94 y7 < $EE $E3 c8
r96 c8 r96 $EF $7B $DC $DC @34 (!0,0) (!1,-1) (!6,3) v84 y10 > $EE $00 f+=52
@30 (!0,0) (!1,-1) (!270,3) v94 y7 < $EE $D9 f8
@31 (!0,0) v123 y10 > $EE $00 f+8 r=26
@32 (!1,-1) (!6,3) v89 < a+=27 @30 (!0,0) (!1,-1) (!33,3) v94 y7 > $EE $D8 d+8
r=26 d+8
@34 (!0,0) (!1,-1) (!6,3) v84 y10 $EE $00 f+=73
@37 (!0,0) v137 y7 $EE $03 a+=53

@34 (!16,-1) (!6,3) v84 y10 $EE $00 f+=27 @30 (!0,0) (!1,-1) (!33,3) v94 y7 < $EE $D9 f8
@34 (!0,0) (!1,-1) (!6,3) v84 y10 > $EE $00 f+=29 $EF $DE $DC $DC @33 (!0,0) (!1,-1) (!33,3) v96 y16 < $EE $44 g+=20
r=27 @37 (!0,0) v120 y7 > $EE $FF b=52
$EF $FC $DC $DC v125 $EE $06 g=52
r16...
@33 v102 y15 < $EE $3D f=31^2 $DD $00 $1E $A6 ^=31 $DD $00 $11 $A9 ^2^=43





r32. $EF $B1 $DC $DC @32 v89 y10 $EE $00 f=63
r16
(!1,-1) (!6,3) c=52
@30 (!0,0) (!1,-1) (!343,3) v94 y7 $EE $D8 a8 @34 (!0,0) (!1,-1) (!6,3) v84 y10 > $EE $00 f+=77

@30 (!0,0) (!1,-1) (!33,3) v94 y7 < $EE $E3 c8 r=26
(!344,3) c8 @31 (!0,0) v123 y10 > $EE $00 f+=26
r=26
@30 (!1,-1) (!321,3) v94 y7 < $EE $D8 g8 r96 @34 (!0,0) (!1,-1) (!6,3) v84 y10 > $EE $00 f+=52
@30 (!0,0) (!1,-1) (!33,3) v94 y7 $EE $DC e8
$EF $3E $DC $DC @31 (!0,0) v123 y10 $EE $00 f+8 r=26
@34 (!1,-1) (!6,3) v84 f+=26 (!1,3) f+96 r=74

(!6,3) f+=78
$EF $37 $DC $DC f+=51

@30 (!0,0) (!1,-1) (!1,3) v94 y7 < $EE $D9 f96 r16.. @31 (!0,0) v123 y10 > $EE $00 f+8 r=26
@30 (!1,-1) (!345,3) v94 y7 < $EE $D9 f8
r96 (!33,3) f8 $EF $B3 $DC $DC f8
r96 @32 (!0,0) (!1,-1) (!6,3) v89 y10 > $EE $00 c+=27 @30 (!0,0) (!1,-1) (!33,3) v94 y7 < $EE $D8 g8
r=25 (!346,3) $EE $E3 c8
r96 @34 (!0,0) (!1,-1) (!6,3) v84 y10 > $EE $00 f+=51
@30 (!0,0) (!1,-1) (!347,3) v94 y7 < $EE $D8 a8 $EF $3D $DC $DC @31 (!0,0) v123 y10 > $EE $00 f+=25
r=26 @34 (!1,-1) (!6,3) v84 f+=26
@30 (!0,0) (!1,-1) (!33,3) v94 y7 < $EE $E3 c8 (!324,3) $EE $D7 a+8
r96 (!325,3) $EE $D8 a8 (!348,3) $EE $E3 c8
r12..
(!326,3) c8 r96 $EF $27 $DC $DC @36 (!0,0) v101 y10 > $EE $00 f+12...
r16.. @34 (!1,-1) (!6,3) v84 f+=77

@30 (!0,0) (!1,-1) (!349,3) v94 y7 < $EE $D7 a+8 @34 (!0,0) (!1,-1) (!6,3) v84 y10 > $EE $00 f+=73

@35 (!0,0) (!1,-1) (!10,3) v89 y6 $EE $C0 a+=34 r=17
@33 (!0,0) (!1,-1) (!33,3) v87 y15 $EE $42 c=25 r12..
(!350,3) v84 $EE $3C f=20 r12...
@37 (!0,0) (!1,-1) (!6,3) v106 y7 < $EE $0C g=52
> $EE $07 e=27
@40 (!0,0) (!1,-1) (!1,3) v113 y10 $EE $00 f+96 r16... @39 (!0,0) $ED $80 $7F b=15 r32..
@37 (!1,-1) (!6,3) v106 y7 < $EE $0C g=26 @35 (!0,0) (!16,-1) (!10,3) v101 > $EE $C3 f=31
r=19 @37 (!0,0) (!1,-1) (!6,3) v106 < $EE $07 f=27
@40 (!0,0) (!1,-1) (!1,3) v113 y10 > $EE $00 f+96 r16... @39 (!0,0) $ED $80 $7F b=15
r32. @37 v106 y7 < $EE $0C g+=52
(!1,-1) (!6,3) $EE $07 f=51
$EE $0C g+=27 (!1,3) > $EE $08 d96
r16... @33 (!0,0) (!1,-1) (!351,3) v96 y16 $EE $39 g+=19 r=31
@37 (!0,0) (!1,-1) (!6,3) v106 y7 < $EE $0C g=26
(!1,3) > $EE $08 d96 r=23 (!6,3) d=26
(!1,3) < $EE $0B b96 r=23 (!6,3) > $EE $08 d=26
(!1,3) d96 r4
(!6,3) < $EE $0B b=26 (!1,3) > $EE $08 d96 r16...
(!6,3) < $EE $0B b=26 > $EE $08 d=27
@40 (!0,0) (!1,-1) (!1,3) v113 y10 $EE $00 f+96 r16.. @39 (!0,0) $ED $80 $7F b=15
r32.. @37 (!1,-1) (!6,3) v106 y7 < $EE $0C g=26 @40 (!0,0) (!1,-1) (!6,3) v113 y10 > $EE $00 f+=27
@39 (!0,0) $ED $80 $7F b24.. r32. @37 (!1,-1) (!6,3) v106 y7 < $EE $0C g=27
$EF $36 $DC $DC @40 (!0,0) v113 y10 > $EE $00 f+=63
r32.
@33 (!1,-1) (!59,3) v96 y16 $EE $3C f8 r=29
$EF $AF $DC $DC @32 (!0,0) (!1,-1) (!1,3) v89 y10 << $EE $00 g96 r=23 $EF $76 $DC $DC @34 (!0,0) (!1,-1) (!1,3) v84 >> f+96 r=50
$EF $8B $DC $DC @37 (!0,0) v135 y7 > $EE $FE c+=52
r16..
v144 c+=52
@34 (!16,-1) (!6,3) v84 y10 < $EE $00 f+=52
f+=77

$EF $7E $DC $DC @31 (!0,0) $ED $80 $7F v123 f+=23 r=27
@34 (!16,-1) (!6,3) v84 f+=26 @30 (!0,0) (!1,-1) (!1,3) v110 y7 $EE $DC e96 r=47
(!59,3) < $EE $D8 g8
$EF $7A $DC $DC @34 (!0,0) (!1,-1) (!6,3) v84 y10 > $EE $00 f+=52
@37 (!0,0) v147 y7 > $EE $FE c+=52
r=23 $EF $DC $DC $DC @32 v89 y10 << $EE $00 c3

r16 @37 v144 y7 >> $EE $FB e=52
@32 (!1,-1) (!6,3) v89 y10 << $EE $00 c=51
@30 (!0,0) (!1,-1) (!352,3) v110 y7 $EE $D8 g8
r=26 $EF $6E $DC $DC @34 (!0,0) (!1,-1) (!1,3) v84 y10 > $EE $00 f+96 r=74

@30 (!0,0) (!1,-1) (!59,3) v110 y7 < $EE $D8 g8 @35 (!0,0) (!1,-1) (!10,3) v98 y6 > $EE $C1 a=33
r=20 $EF $DC $DC $DC @37 (!0,0) (!1,-1) (!6,3) v118 y7 $EE $FF b=27
$EF $BB $DC $DC v147 > $EE $FB e=52
$EF $CE $DC $DC v133 < $EE $FF b=52
r=11 v127 > $EE $FB e=37
$EF $6F $DC $DC @34 (!0,0) (!16,-1) (!16,3) v84 y10 < $EE $00 f+96 r=44
@37 (!0,0) (!1,-1) (!6,3) v127 y7 > $EE $FE c+=29
@34 (!0,0) (!16,-1) (!16,3) v84 y10 < $EE $00 f+96 r=47
@30 (!0,0) (!1,-1) (!304,3) v110 y7 < $EE $D8 g8 @34 (!0,0) (!1,-1) (!6,3) v84 y10 > $EE $00 f+=52
@30 (!0,0) (!1,-1) (!59,3) v110 y7 < $EE $D8 a8
@31 (!0,0) v123 y10 > $EE $00 f+=25 r=26
@30 (!1,-1) (!334,3) v110 y7 < $EE $E3 c8 r96 @34 (!0,0) (!1,-1) (!6,3) v84 y10 > $EE $00 f+=77

@32 (!0,0) (!1,-1) (!1,3) v89 < f96 r4
$EF $BF $DC $DC @30 (!0,0) (!1,-1) (!59,3) v110 y7 $EE $E3 c8 $EF $5A $DC $DC @36 (!0,0) v101 y10 > $EE $00 f+=31
r16.. @34 (!1,-1) (!6,3) v84 f+=37
$EF $CF $DC $DC @37 (!0,0) (!1,-1) (!6,3) v114 y7 > $EE $F7 g=40
@30 (!0,0) (!1,-1) (!308,3) v110 << $EE $D7 a+8
@36 (!0,0) y10 > $EE $00 f+12... r=20
@37 (!1,-1) (!1,3) v144 y7 > $EE $FE c+96 r8 $EF $BE $DC $DC @30 (!0,0) (!1,-1) (!59,3) v110 << $EE $D8 g8
r=26 (!309,3) > $EE $D9 d8
r96 @34 (!0,0) (!1,-1) (!6,3) v84 y10 $EE $00 f+=52
@30 (!0,0) (!1,-1) (!353,3) v110 y7 $EE $DC e8 $EF $3E $DC $DC @31 (!0,0) v123 y10 $EE $00 f+8
r=26 @34 (!1,-1) (!6,3) v84 f+=52
@30 (!0,0) (!1,-1) (!354,3) v110 y7 < $EE $D8 g8
@34 (!0,0) (!1,-1) (!6,3) v84 y10 > $EE $00 f+=27
@37 (!0,0) (!1,-1) (!1,3) v133 y7 $EE $08 d96 r=47
$EF $F6 $DC $DC @30 (!0,0) (!1,-1) (!338,3) v110 $EE $D9 d8 r96 $EF $3A $DC $DC @36 (!0,0) v101 y10 $EE $00 f+12...
r8....
@32 v89 < c=63
r16 (!1,-1) (!6,3) < g=52
@30 (!0,0) (!1,-1) (!340,3) v110 y7 >> $EE $DC e8
$EF $B7 $DC $DC @32 (!0,0) v89 y10 < $EE $00 g=65
r16 @31 v123 > f+8
r=26 $EF $AB $DC $DC @30 (!1,-1) (!312,3) v110 y7 < $EE $DC d8
@31 (!0,0) v123 y10 > $EE $00 f+=26 r=27
@30 (!1,-1) (!355,3) v110 y7 < $EE $DC d8
@36 (!0,0) y10 > $EE $00 f+=31 r=7 @35 (!1,-1) (!10,3) v98 y6 $EE $C0 g+16.
r=20 $EF $DD $DC $DC $EE $C3 f8...
r6
$EF $4B $DC $DC @31 (!0,0) v123 y10 $EE $00 f+=25 r=25
@30 (!1,-1) (!285,3) v110 y7 < $EE $E3 c8 r96 @34 (!0,0) (!1,-1) (!6,3) v84 y10 > $EE $00 f+=77

@30 (!0,0) (!1,-1) (!59,3) v110 y7 < $EE $E3 c8 (!341,3) $EE $D7 a+8
(!342,3) $EE $E3 c8 r64 @32 (!0,0) (!1,-1) (!1,3) v89 y10 $EE $00 c96
r4
@30 (!0,0) (!1,-1) (!356,3) v110 y7 > $EE $D9 d8 r96 $EF $47 $DC $DC @36 (!0,0) v101 y10 $EE $00 f+12...
r8....
$EF $B6 $DC $DC @32 v89 < c=63
r16 @37 (!1,-1) (!6,3) v125 y7 > $EE $06 g=52
$EF $D7 $DC $DC @30 (!0,0) (!1,-1) (!357,3) v110 $EE $DC e8
r96 @37 (!0,0) v127 $EE $07 e=52
r=23 @32 v89 y10 < $EE $00 g3

r=11 < g3
r=13
$EF $EF $DC $DC g3
r16 @37 (!1,-1) (!6,3) v110 y7 < $EE $3A d=52
(!1,3) v112 > $EE $06 d96 r4
(!6,3) v118 d=52
(!1,3) v122 d96 r4
(!6,3) v125 d=52
(!1,3) v127 d96
r=47
v137 $EE $07 e=52
r3.....

$EF $5E $DC $DC @36 (!0,0) $ED $80 $7F v106 y10 >> $EE $00 f+=29
r=20 v110 f+=29
r24 v106 f+=31
r24 $EF $FF $DC $DC @37 (!1,-1) (!6,3) v127 y7 <<< $EE $21 a=52
> $EE $05 a=52
(!1,3) a96 r=47
a96 r4
(!6,3) a=52
a=52
v135 a=51
r=7 v127 > $EE $0C g=52

r2^=95


@30 (!0,0) (!1,-1) (!358,3) v118 >> $EE $D0 c8


