#am4 ; by carol
;#アーウィン
#0	w200 t45

#0	@13	q7F v220 y10;
#1	@6	q7F v220 y10
#2	@6	q7F v180 y6;
#3	@6	q7F v180 y14;
#4	@14	q7F v180 y10;
#5	@17	q7F v200 y10;



#0
$F0
r2..
o2e16e16;#2
r2..e16e16;#3
[e16e32e32e16e16e16e16e16e32e32]3
e16e32e32e16e16e16e16e32e16e32
/
o2
[e16.e32e32e16e32e16.e32e32e16e32e16.e32e32e16e32e32e16e32e32e16e32
f+16.f+32f+32f+16f+32f+16.f+32f+32f+16f+32f+16.f+32f+32f+16f+32f+32f+16f+32f+32f+16f+32
g16.g32g32g16g32g16.g32g32g16g32g16.g32g32g16g32g32g16g32g32g16g32
a16.a32a32a16a32a16.a32a32a16a32a16.a32a32a16a32a32a16a32a32a16a32]2

d+16.d+32d+32d+16d+32d+16.d+32d+32d+16d+32d+16.d+32d+32d+16d+32d+32d+16d+32d+32d+16d+32
e16.e32e32e16e32e16.e32e32e16e32e16.e32e32e16e32e32e16e32e32e16e32
c16.c32c32c16c32c16.c32c32c16c32c16.c32c32c16c32c32c16c32c32c16c32
d4d32d16d32d4.d32d16d32d32d16d32
*2
[e16.e32r2^8..e8^32]4
[d+16.d+32r2^8..d+8^32]2
[e16.e32e32e16e32e16.e32e32e16e32e16.e32e32e16e32e32e16e32e32e16e32]4



#1
;r1
o3
b8a16b16>c8<b16a16b8a16g16a8e16e16
b8a16b16>c8d16c16<b8a16g16f+8e16e16
>b8a16b16>c8<b16a16b8a16g16a8e16e16
b8a16b16>c8d16c16<b8a16g16f+4
/
o3@6
[b2.a4>c2.c4d2.c16.d32c8<b2a2]2
>c4g8.f+32g32f+4c4
f+4e4<b2
>c4g4a4f+4
b2a2<
*2
r1^1
@1
[b8a32r32b32r32>c8<b32r32a32r32b8a32r32g32r32a8e32r32e32r32]1
b8a32r32b32r32>c8d32r32c32r32<b8a32r32g32r32f+8e32r32e32r32
b8a32r32b32r32>c8<b32r32a32r32b8a32r32g32r32a8d+32r32d+32r32
b8a32r32b32r32>c8d32r32c32r32<b8a32r32g32r32f+8d+32r32d+32r32
r1^1
*1
b8a32r32b32r32>c8d32r32c32r32<b8a32r32g32r32f+4



#2
[r2]8
/
@6
[r2]16
o4
g1^1
e1
f+1
[r2]16
@13
[>g32e16<b32>g32e16<b32>a32e16<b32>f+32d16<a32>g32e16<b32>g32e16<b32>a32e16<b32>f+32d16<a32
>g32e16<b32>g32e16<b32>a32e16<b32>b32e16<b32>a32e16<b32>g32e16<b32>f+32d16<b32>g32e16<b32]2
>f+32d+16<a32>f+32d+16<a32>a32d+16<a32>f+32d+16<a32>f+32d+16<a32>f+32d+16<a32>a32d+16<a32>f+32d+16<a32
>f+32d+16<a32>f+32d+16<a32>a32d+16<a32>b32d+16<a32>a32d+16<a32>g32d+16<a32>f+32d+16<a32>f+32d+16<a32
*2



#3
[r2]8
/
@6
[r2]18
o4e1
g1
a1
[r2]16
@13
>
[b32g16e32b32g16e32>c32<g16e32a32f+16e32b32g16e32b32g16e32>c32<g16e32a32f+16e32
b32g16e32b32g16e32>c32<g16e32>d32<g16e32>c32<g16e32b32g16e32a32f+16e32b32g16e32]2
b32f+16d+32b32f+16d+32>c32<f+16d+32a32f+16d+32b32f+16d+32b32f+16d+32>c32<f+16d+32a32f+16d+32
b32f+16d+32b32f+16d+32>c32<f+16d+32>d32<f+16d+32>c32<f+16d+32b32f+16d+32a32f+16d+32b32f+16d+32
*2



#4
r2..
o3
a16a2^4..
a16a16;#3
<c32c32c32c32>f32
[<c32c32c32>f32]14
a16a32
/
<c16.c32>f32
[<c16c32>f16.<c32>f32]2
<c16c32>f32<c16c32>f32
*11
<c16c32>f32<d16c32>f32
<c16b32>a16.<c32>f32
*2
<c16c32>f32<c16c32>f32
*11
<c16c32>f32<c16c32>f32
a16<c32c16.c32>f32
*2
<c16c32>f32<c16c32>f32
*8
<c16c32>a32<c16c32>f8f32<c16c32>f8a32
*1
<c16c32>f32<e16e32>f16.<c32>f32
*2
<c16c32>f32<c16c32>f32
*11
<c16c32>f32d32d32c32f32
<b16a32c16.c32>f32
*2
<c16c32>f32<c16c32>f32
*11
<c16c32>f32<c16c32>f32a16
<c32>a16.<c8^32>f4f4f16.
<c8^32>f16.<c8^32>f4f4f32c32c32c32<b32a16.
>a16.<c8^32>f4f4f16.<c8^32
>f16.<c8^32>f4f4f16.<c8^32
>a16.<c32>d8f8d8f16.d16c16.f16.d16d16.
f16.<c8^32>f4f16.<c32e32c16c32>f32d32d32c32<e32b16a32
>f16.<c32>f32
*2
<c16c32>f32<c16c32>f32
*7
<c16c32>f32<c16c32>f32
*3
<c16c32>f32<c16>c32f32<b16a32

#5
r1^2..
o2e16e16;#3
b8a16b16>c8<b16a16b8a16g16a8e16e16
b8a16b16>c8d16c16<b8a16g16f+4
/
[e1
f+1
g1
a1]2

d+1
e1
>c1
d1
<

*2

b1^1
b1^1
a+1^1
e1^1
e1^1
