#spc
{
	#title	"Apoplexy Tanks"
	#game	"Mario Forever"
	#author "bee hunter of jazz"
	#comment "Ported by AntiDuck."
}

#amk 2
#path "apoplexy"
#samples
{
#optimized
"1.brr"
"2.brr" 
"3.brr" 
"4.brr" 
"5.brr" 
"6.brr" 
"7.brr" 
"8.brr" 
"9.brr"
"10.brr"
"11.brr"
"12.brr"
"13.brr"
"14.brr"
"15.brr"
"16.brr"
"17.brr"
"18.brr"
"19.brr"
}

#instruments
{
"1.brr" 			$00 $00 $5F $01 $EA ;@30
"2.brr" 			$00 $00 $5F $01 $EA ;@31
"3.brr" 			$00 $00 $5F $01 $EA ;@32
"4.brr" 			$00 $00 $5F $03 $DA ;@33
"5.brr" 			$00 $00 $5F $01 $EA ;@34
"6.brr" 			$00 $00 $5F $03 $DA ;@35
"7.brr"				$00 $00 $5F $03 $97 ;@36
"8.brr" 			$00 $00 $6F $03 $DA ;@37
"9.brr" 			$00 $00 $6F $03 $DA ;@38
"10.brr" 			$00 $00 $6F $03 $DA ;@39
"11.brr" 			$00 $00 $6F $01 $EA ;@40
"12.brr" 			$00 $00 $6F $01 $EA ;@41

"13.brr" 			$00 $00 $7F $03 $DA ;@42
"14.brr" 			$00 $00 $7F $03 $DA ;@43

"15.brr"			$EF $D1 $00 $03 $DA ;@44
"16.brr" 			$00 $00 $5F $01 $EA ;@45
"17.brr" 			$00 $00 $5F $01 $EA ;@46
"18.brr" 			$00 $00 $5F $01 $EA ;@47
"19.brr" 			$00 $00 $5F $01 $EA ;@48
}

#option TempoImmunity
w116




#0 $F0 $F4 $02 t51
@38 $FA $03 $60 v186
  o2
  y10 f1^1
  y8  f1^32 $DC $18 $0A ^2....
  
/
@39 $FA $03 $80 y10 v255 
(2)[
   c8>c16<c8>c16<c8>c+16.v0 ^32 v116 c+16v255 c+16.v0 ^32 v116 c+16v255 c+8<c8>c16<c8>c16<c16.v0 ^32@38v255 f8@39 c8>c8c+8
  <c8>c16<c8>c16<c8>c+16.v0 ^32 v116 c+16v255 f16.v0 ^32 v116 f16<v255 a+8c8>c16<c8>c16<c16. v116 ^32@38v255 f32f+32f16@39 c8>c8c+8
  ]2
  

@37 
[
v116 $E8 $C0 $FF c1 $E8 $60 $BA ^2 v186 c+2
v116 $E8 $C0 $FF c1 $E8 $60 $BA ^2 v186 <a+2
 ]2

 
@39   v255 
[
   a+8>a+16<a+8>a+16<a+8>b16.v0 ^32 v116 b16v255 b16.v0 ^32 v116 b16v255 b8<a+8>a+16<a+8>a+16<a+16.v0 ^32@38>v255 d+8@39 <a+8>a+8b8
  <a+8>a+16<a+8>a+16<a+8>b16.v0 ^32 v116 b16>v255 d+16.v0 ^32 v116 d+16<v255 g+8<a+8>a+16<a+8>a+16<a+16. v116 ^32@38>v255 d+32e32d+16@39 <a+8>a+8b8
]2
(2)2

@37  l8 "G=v255 $E8 $18 $40" "H=v255 $E8 $0C $40"
[v255 $FA $03 $20 ;c1^2^4 
Gc
H^16
G^
H^16
G^
G^
G^
G^
H^16
H^16
G^
H^16
G^
H^16
G^
H^16
H^16
G^
v186 $E8 $30 $FF <a+4 ]4 ;8^8

$FA $03 $80 
@39   v255 (2)2
@38 v255  f1^1 d+1.d2 $FA $03 $A0
[  
@44   o4v255 y12 c8@31<y11b16a32 v116 b32v255 f+32 v116 a16.@32>v255 y10 a+16o2a+32 v116 o4a+32<v255 g+32 v116 <a+32>v255 a+32 v116 g+16a+16.@35y13>c16 v162 c16 v209 c16v255 c16@33y9d+32y11f32y9d+16y11c16<y9g16y11a+16>y9c16 v116 y11 <a+16>y9c16		@36<v156 y7 f8 v104 f8 v82 f8 v70 f8
@34  v255 y8 d+16f8 v116 d+16f8@30>v255 y6 b8 y14 a16 v116 y6 b16v255 y14 f+16 v116 y6 a16v255 y14 e16 v116 y6 f+16v255 y14 d16 v116 y6 e16<v255 y14 b16 v116 y6 >d16< y14 b16@35y13>c32 v162 c32v255 c8. v116 c16											@36<v156 y7 f8 v104 f8 v82 f8 v70 f8
]2 ;4






#1
v0 $FA $03 $60 r1^1

@38 v186 y12 o3c1^32 $E8 $5A $00 ^4... ;c1^2 ;1

$FA $03 $FF
@42 >v255 y10 f16
@43 f16f8f16f16f16f16


/
[[
(1)[@42 f4@43 f4]7
@42 f4@43 f8f16f16
]]3
(1)7
@42 f16@43 f16f8f8f16f16

[[
(1)7
@42 f4@43 f8f16f16
]]4

@42 [f4]30 f16 @43 f16f8f8f16f16

[[
(1)7
@42 f4@43 f8f16f16
]]2


@42 [f4]14f8^16f16@43 f16@42 f16@43 f16f16

[[
(1)7
@42 f4@43 f8f16f16
]]2 ;4









#2
@40 $FA $03 $C0 o3v255 y10
   [c16@41 f16>f16@40 <c16>c16@41 f16@40 <c+16@41 f16d+16@40 <a+16@41 o4f16f16@40 <c+16<a+16o4c+16<c+16c16@41 >g+16f16@40 <c16@41 f16>f16@40 <c+16@41 >d+16c16@40 o2a+16>c+16@41 a+16@40 <a+16@41 >a+16g+16@40 c+16]2
/
(3)[c16@41 f16>f16@40 <c16>c16@41 f16@40 <c+16@41 f16d+16@40 <a+16@41 o4f16f16@40 <c+16<a+16o4c+16<c+16c16@41 >g+16f16@40 <c16@41 f16>f16@40 <c+16@41 >d+16c16@40 o2a+16>c+16@41 a+16@40 <a+16@41 >a+16g+16@40 c+16
    c16@41 f16>f16@40 <c16>c16@41 f16@40 <c+16@41 f16d+16@40 <a+16@41 o4f16f16@40 <c+16<a+16o4c+16<c+16c16@41 >g+16f16@40 <d+16@41 f16>f16@40 <f16@41 >d+16c16@40 <g32a+32g16f16d+16c16@41 g+16@40 <a+16]4
[a+16@41 >d+16>d+16@40 o2a+16>a+16@41 >d+16@40 o2b16@41 >d+16c+16@40 <g+16@41 o4d+16d+16@40 o2b16g+16>b16<b16a+16@41 o4f+16d+16@40 o2a+16@41 >d+16>d+16@40 o2b16@41 o4c+16<a+16@40 <g+16b16@41 >g+16@40 <g+16@41 >g+16f+16@40 <b16
a+16@41 >d+16>d+16@40 o2a+16>a+16@41 >d+16@40 o2b16@41 >d+16c+16@40 <g+16@41 o4d+16d+16@40 o2b16g+16>b16<b16a+16@41 o4f+16d+16@40 <c+16@41 d+16>d+16@40 <d+16@41 >c+16<a+16@40 f32g+32f16d+16c+16<a+16@41 >f+16@40 <g+16]2
(3)6
[>c16@41 f16>f16@40 <c16>c16@41 f16@40 <c16@41 f16d+16@40 <a+16@41 o4f16f16@40 <c16<a+16>d+16d+16c16@41 >g+16f16@40 <c16@41 f16>f16@40 <c16@41 >d+16c16@40 o2a+16>c16@41 a+16@40 <a+16@41 >a+16g+16@40 d+16
c16@41 f16>f16@40 <c16>c16@41 f16@40 <c16@41 f16d+16@40 <a+16@41 o4f16f16@40 <c16<a+16>d+16d+16c16@41 >g+16f16@40 <d+16@41 f16>f16@40 <f16@41 >d+16c16@40 <g32a+32g16f16d+16c16@41 g+16@40 <a+16]3











#3

$FA $03 $C0
r2@35o4v255 y13 c8. v116 c8. v79 c2^16 v116 c16v255 c8. v116 c8. v79 c4. 
@36<v162 y7 f8 v79 f8@35>v255 y13 c8. v116 c8. v79 c4@36<v162 y7 f16f+32 v116 f32v134 c32 v116 f+32v134 c+32 v116 c32<v134 g32 v116 >c+32<v134 g+32 v116 g32v134 c32 v116 g+32 v79 c8.@35o4v255 y13 c16c16 y10c16 y9c32c32
/

y10 $FA $03 $FF
(4)[
@30<v255 y6 b16 v116 y14 b16 @31>v255 y11 f+32g32f+16e16 @32o2y10g+16a+16 v116 g+16@33o4v255y9 c16@30y14b16@32 v162 y10 g+16@33y11c16 @30v255y6 f+16@32 v162 y10 g+16@33 v116 y9 c16@34v255 y8 f32f+32f16@31y11<f+16e16@34 v116 y8 >f16@31<v255y11 g16f+16@34 v79 y8 >f16@31<v255y11 a16@33y11a+16@32 v116 y10 f32 v162 f32v255 f16@33 v162 y9 >c16@30v255 y14 b32y6a32y14b16@33 v116 y11 c16o2v255 $E8 $0C $74 a+16
@30>v255 y6 f+16 v116 y14 f+16@32>v255 y10 f16@33y9g16 v116 y11 <g16@31v255 y11 f+16<f+16o4f+16@33y9c8@35y13c16@33 v162 y11 c16@35 v116 y13 c16@32 v162 y10 <a+16@33 v116 y9 >c8 @36<v162 y7 f16f+16 $EA $24 $DE $00 $06 $30 f4. $DF @33>v255 y11 d+16@35y13c16c16@33 v162 y9 c16@35 v116 y13 c16c16@33y11f8
]2




[@44 v255 y12 c2..@38o2v209y10 f16f+16f16d+16f4.f+32g+32f+4..]


>$E8 $1E $BA c2..


v209
c16c+16c16<a+16>c32c+32

c4^16 $E8 $60 $BA ^2< ;8^8^16



*

>v209 $E8 $24 $BA c1^4. $E8 $24 $86 ^8 $DD $00 $60 $97 ^2     ;12 8th notes = 1. ;4. ^8



[@44 >v255 y12 c4^16 @32o2y10f+16g+16 v116 f+16@33>v255 y9 a+16@30y6>a16@32 v162 y10 f+16@33y11<a+16@30>v255 y14 e16@32 v162 y10 f+16@33 v116 y9 <a+16@34>v255 y8 d+32e32d+16@31y11<e16d16@34 v116 y8 >d+16@31<v255 y11 f16e16@34 v79 y8 >d+16@31<v255 y11 g16@33y11g+16@32 v116 y10 d+32 v162 d+32v255 d+16@33 v162 y9 a+16@30>v255 y6 a32 y14 g32 y6 a16@33 v116 y11 <a+16<v255 $E8 $0C $74 y9 g+16
@30>y14 e16 v116 y6 e16@32>v255y10 d+16@33y9f16 v116 y11 <f16@31v255 y11 e16<e16o4e16@33y9<a+8@35y13a+16@33 v162 y11 a+16@35 v116 y13 a+16@32 v162 y10 g+16@33 v116 y9 a+8@36v162 y7 d+16e16  $EA $24 $DE $00 $06 $30 d+4. $DF @33>v255 y11 c+16@35y13<a+16a+16@33 v162 y9 a+16@35 v116 y13 a+16a+16@33y11>d+8]2

(4)2


[@44 v255 y12 c4.@34y8f8d+16 v162 f16v255 f16 v162 d+16v255 c16 v162 f16v255 d+16 v162 c16<v255 a+16 v162 >d+16v255 c16 v162 <a+16v255 g+16 v162 >c16<v255 a+16 v162 g+16v255 f16 v162 a+8f8. v116 f8
@32<v255 y10 a+16>a+16g+16a+16 v116 a+16g+16@34>v255 y8 f8d+16 v162 f16v255 f16 v162 d+16v255 c16 v162 f16v255 d+16 v162 c16v255 f16 v162 d+16v255 g+16 v162 f16v255 f16 v162 g+16v255 d+16 v162 f16v255 f16 v162 d+8f16@35v255 y13 c16c16@34 v116 y8 f16@35v255 y13 c16]2


(4)2



[@30<v255 y6 b16@45 >v209 y10 f+16@46 f+8f+16@45 f+16f+16@46 f+8 v116 f+16v209 f+8@45 e16@46 f+8 v116 f+8@45 v209 g+16@47 f+8f+16@45 g+16g+16@47 f+8 v116 f+16v209 f+8@45 g+16@47 f+8 v116 f+16
@30<v255 y14 b16@45 >v209 y10 a16@48 f+8f+16@45 a16a16@48 f+8 v116 f+16v209 f+8@45 a16@48 f+8 v116 f+8@45 v209 b16@47 a8a16@45 b16b16@47 a8 v116 a16@48 v209 g+8@45 b16@48 g+16@45 b16a16]3 ;5

;
