#amk 2
#spc
{
	#author "Pinci AKA el weon qliao"
	#game	"Crayon Shin-chan 2"
	#comment "hi"
	#title	"Park"
}
#instruments 
{ 
		@4 $FF $F2 $B8 $03 $00
		@13 $8C $AB $B8 $03 $00
		@3 $CF $36 $B8 $01 $80
		@1 $7F $E0 $5A $03 $00
		@0 $FC $E0 $B8 $03 $00
		@13 $FF $E0 $B8 $03 $00
		@2 $CF $90 $B8 $03 $00
		@10 $FF $E0 $B8 $06 $90
}
t42
$EF $FF $45 $45
$F1 $04 $46 $00
$F5 $34 $33 $00 $D9 $E5 $01 $FC $EB
#5 $F4 $02 / y10 v180 w160 @30 
o2
[g4d4f+8.d8.f+8
e4<b8.>e8e8e16f+8g8
c4g4<b4>g4
<a16r16b16r16>c16r16d16r8.e12e24f12f24f+12f+24]2
[c16.c32c16r16c16r4>e8.f+16r16g16r16]1
<<b8.>a8.f+8e8.f+8.g8
a8.e8.a8>d8.c8.<a8
g16^96d8^96g24g16^96d8^96g24g16^96d8^96g24g24r24g24g24a24b24
*1 
<b8.>a8.f+8g+8.f+8.g+8
a8.e8.a8d8.e8.f+8
g4d4g8.g16r4
[>d16r16d16r16c16r8<a16r16a16 t48 r16a16 t42 f+8d8]3
>d16^96<d8^96d24>d16^96<d8^96d24>d16^96<d8^96d24>d24c24<a24f+24e24d24

#1/ v240 @31  $DE $18 $10 $26 y09 $FA $00 $00 
o5
(1)[a+32b16.a+16r16b8b32>c8..<b8a8f+8
g+32a16.g16r16f+8g2^8
e8f+8g16r16d4f+8g8g12g24
g8f+8g16r16a+32b16.r8]1a4.
(1)1a4. $DF
 y10 v240 [b12b24b12b24b12 q7a b24 q78 b12 q76 b24 q74 b16]1 q7f @33 y09 v230 $FA $00 $02 b8.a16r16g16r16a8.f+8.a8g2
e8.f+8.g8f+16r16f+16r16g16r16a16r16
>d4c4<b16r16a16r16g16r16a16r16
 $FA $00 $00 v240 @31 y10 *1 q7f $FA $00 $02 v230 @33 y09 b8.a16r16g16r16
a8.f+8.a8g+2
e8.f+8.g8f+16r16f+16r16g16r16a16r16
g4d4g8.g16r4 
r1
r1 y10 
d16r16d16r16e16r8f+16r16f+16r16f+16g8a8
d16r16d16r16e16r8f+16r16f+16 t48 r16f+16 t42 g8a8

#2/ y07 v200 @32
o4
[b8>d8g8c16<b8b8> t46 d16 t42 g8d8]3
g8f+8e8f+8r8f+16 t46 ^16 t42 g8a8
*3
g8f+8e8f+8r8f+16 t46 ^16 t42 g8a8
r1
[d8r16e8r16f+8f+8r16g8r16a8
r16g8r16f+8g8r16a8r16g8f+8]1
d16^96d8r96d24e16^96e8r96e24f+16^96f+8r96f+24g8a8
r1
*1
d8r8<b8r8>d8r16d16r4 @36 v180 y09 <
r96
[d16r16d16r16e16r8f+16r16f+16r16f+16g8a8]4

#3/ y13 v200 @32
o4
[g8b8>d8<b16g8g8b16>d8<b8]3
>d8d8d8d8r8d8d8d8
*3 <
>d8d8d8d8r8d8d8d8
r1
<b8r16b8r16>d8d8r16d8r16d8
r16c8r16c8c8r16c8r16c8c8
<g16^96g8r96g24g16^96g8r96b24b16^96b8r96b24b8b8
r1
b8r16b8r16>d8d8r16d8r16d8
r16c8r16c8c8r16c8r16c8c8<
b8r8g8r8b8r16b16r4 @34 v150 y12  
[d12<d24d12d24>d12r2r6]3
d16^96<d8^96d24>d16^96<d8^96d24>d16^96<d8^96d24>d24c24<a24f+24e24d24

#4/ @31  $DE $18 $10 $26 y10 v140 $EE $12 
r8o5
(1)1 a4.
(1)1 a4
 $EE $00 $DF 
[ y07 @31 v240 g12g24g12g24g12 y03 q7a g24 q78 g12 q76 y00 g24 q74 g16 q7f @33 v230 y11 e8.e16r16e16r16
d8.d8.d8d2
c8.d8.e8d16r16d16r16d16r16d16r16]1
b4a4g16r16f+16r16e16r16f+16r16
*1
d4<g4>d8.d16r4 @36 v190 y11 < 
[<a16r16a16r16a16r8>d16r16d16r16d16d8d8]4

#6/ v100 y10 @36
o5
[b8a+8b8>c4<b8a8f+8
a8g8f+8g2^8
e8f+8g8d4f+8g8g12g24
g8f+8g8b8r8a4.]2
 [@31 y13 v240 e12e24e12e24e12 y17 q7a e24 q78 e12 q76 y20 e24 q74 e16 q7f y10 @33 v230 c8.c16r16c16r1]1
r1
r1
r16
*1
r1
r1r16 v180 y13
[@23g+8@23g+12@23g+24@23g+8@23g+12@23g+24@23g+8@23g+12@23g+24@23g+8@23g+12@23g+24]3
r1
#0/ $DE $18 $10 $26 v150 y07 @34
r1
r1
r1
r1
o5d4<d4g4>d4
<b32>c16.<b16r16a+8b2^8
<b8>d8e16r16<b4>d8d8d12d24
d8d8d8f+32g16.r8f+4.
r2r16> $DF v0 y10 
[b8.a16r16g16r16
a8.f+8.a8]1 g2
e8.f+8.g8f+16r16f+16r16g16r16a16r16
>d4c4<b16r16a16r16g16r16a16r8r2
*1 g+2
e8.f+8.g8f+16r16f+16r16g16r16a16r16
g4d4g8.g16r4
[d16r16d16r16e16r8f+16r16f+16r16f+16g8a8]4

#7/ v250
o3
(2)[@21c8@37d8@21c8@37d8@21c8@37d8@21c8@37d8]3
(3)[@21c8@37d8@37d8@21c12@37d24@37d16.@37d16.r48@21c24@37d16.@37d24@37d16^96@37d24]1
(2)3
(3)1
@37d12@37d24@37d12@37d24@37d12@21c8r24@21c8r12@21c24@37d8@37d8
(2)2
@21c16^96@21c12r24r96@21c24@37d16^96@21c12r24r96@21c24@37d16^96@21c12r24r96@21c24@37d12@37d24@37d24@37d24@37d24
@37d12@37d24@37d12@37d24@37d12@21c8r24@21c8r12@21c24@37d8@37d8
(2)2
@21c8@37d8@21c8@37d8@37d16@21c24@21c12@37d8r8.
[@21c8r8@21c8r8@21c8r8@21c8r8]3
@21c8@37d8@37d8@21c8@21c16@37d8@21c16@37d24@37d24@37d24@37d24@37d24@37d24
