#amk 2
#spc
{
#title "Athletic Remix (Hills&Mountains)"; Piano Remix
#length "1:42"
#comment "Remix by Giftshaven"
}
#instruments
{
@21 $00 $00 $77 $06 $B2 ;@30
@6 $EF $31 $00 $03 $01 ;@31
@8 $EE $AE $00 $1E $01 ;@32
@14 $8B $A8 $00 $07 $02 ;@33
@10 $FE $71 $00 $02 $A0 ;@34
n1F $BF $76 $00 $00 $00 ;@35
n1F $EF $1E $00 $00 $00 ;@36
n1D $AE $50 $00 $00 $00 ;@37
}

$EF $2F $1E $1F
$F1 $05 $05 $04

#0 t48 w234 v247 $F4$02
@32 
o1f8r16f4r16e4r4
/
[a8.r16e8.r16a8.r16>e8<a8
>d8.r16<a8.r16d8.r16>d8c8
<b8.r16g8.r16d8.r16b8g8]
>c8.r16<g8.r16>c8c8<b8a+8
*
>c8.r16<g8.r16>c8<g8>c4
[c8.r16<e8.r16f8.r16f+8.r16
g8.r16]
d+8.r16d8.r16g8.r16
*
g8.r16>c8.r16<g8.r16
*
d+8.r16d8.r16g8.r16
*
g8.r16>c8.r16<g8.r16
[f8.r16f8.r16e8.r16e8.r16
d+8.r16d+8.r16d8.r16]
d8.r16
*
g8.r16
>c3r24c8<a+3r24a+8
a3r24a8g+3r24g+8
g2r4g16^64a32.b16.r32
>c4<g4>c4c16^64c8r32.
c8.r16<g8.r16>c8c8<b8a+8

#1 @31 v217 $DE$00$07$04
q7Do4b12a24f12r192b16..^96a24f12r96e4^32r4
/
q7Fr12g24a12e24g12a24e12g24a12e24g12a24e12g24a8
r8a12d24f12a24d12f24a12d24f12a24d12f24a8
r12f24g12d24f12g24d12f24g12d24f12g24d12f24g8
r8g12c24e12g24c12e24g12r24g12r24f+12r24f12r24
e12g24a12e24g12a24e12g24a12e24g12a24e12g24a8
r8a12d24f12a24d12f24a12d24f12a24d12f24a8
r12f24b12d24f12b24d12f24b12d24f12b24d12f24b8
r8>c12r8c24<g12b24>c12r24<b12r24>c4r8
[q7Bc12c24r8c12r6c12c24r8c12r6
c12c24r8c12r6c12c24r8<b12r6
>c12c24r8c12r6c12c24r8c12r6
c12c24r8<b12r6>c12c24r8c12r6]2
c12c24r8c12r6c12c24r8c12r6
c12c24r8c12r6c12c24r8<b12r6
>c12c24r8c12r6c12c24r8c12r6
c12c24r8c12r6c12c24r8<b12r24
q7F>c4.r8<a+4.r8
a4.r8g+4.r8
g1
r1
r8
c12r8c24c24<e24g24>c24r48c16.r24r96c12r24r96<g32>c16.r32


#2 @31 v217 y11 $DE$00$07$04
q7Do4f12r8r192f8r8r192<b4^32r4
/
q7Fr8>e12r8e24r8e12r8e24r8e8
[r8d12r8d24r8d12r8d24r8d8]2
r8c12r8c24r8c12r24c12r24c12r24c12r24
r8e12r8e24r8e12r8e24r8e8
*2
r8g12r8g24r12g24g12r24g12r24g4r8
[q7Bg12g24r8g12r6a12a24r8g+12r6
g12g24r8g12r6g12g24r8g12r6
g12g24r8g12r6a12a24r8g+12r6
g12g24r8g12r6g12g24r8g12r6]2
[g12g24r8g12r6]7
g12g24r8g12r24
q7Fg4.r8f4.r8
e4.r8d+4.r8
d1
r1
r8
<g12r8g24r8g16.r12r32g24r8g16.r32

#3 @33 v185 $DE$09$0D$0F
q7Eo4b12a24f12r192b16..^96a24f12r96e16.r32 $EC$03$01$01 b8  b8r8r32 $EC$00$00$00
/
[r2]16
q7F>d+4$DD$03$0B$B4c8.r64<g32.a16r64>c16r32.c8..r32.<a32.
g8>c16r16c8g8e8.d4r16
d+4$DD$03$0B$B4c8.r64<g32.a16r64>c16r32.c8..r32.<a32.
g8>c16r16f16^64e32.d16^64c3r6r32.
d+4$DD$03$0B$B4c8.r64<g32.a16r64>c16r32.c8..r32.<a32.
g8>c16r16c8g8e16^64f32.e16d4r16
d+4$DD$03$0B$B4c8.r64<g32.a16r64>c16r32.c8..r32.<a32.
g8>c16r16f16^64e32.d16^64c3r6r32.
d+8.$DD$03$0A$B4c8.<g8>d+8.$DD$03$0A$B4c4r16
d16$DD$00$05$B3^64c32.<g8>d8.$DD$03$0A$B3d4.r8.
q6Fd+8$DD$03$0A$B4q7Fe16c8.<g8>q6Fd+8$DD$03$0A$B4q7Fe16c4r16
d16$DD$00$05$B3^64c32.<g8>g2^6r12
d+4$DD$03$0B$B4c8.r64<g32.a16r64>c16r32.c8..r32.d32.
e16^64c32.<g16r16a8>c4..r8r64<g32.
q6F>g8a8g8a8q7Fg8.r64<g32.>f16^64e32.d16.r32
c1
r1

#4 @10 v228
r2.o3q49f32^32.q4Af32^64q5Bf32^32.q5Cf32^64
/
[q7E@30c8q4F@10f16^64q68@30c32.]30
q7E@30c8q4F@10f8q7E@30c4
*48
q7Ec2@34d2
@30c2@34d2
d1
@30c4q4F@10e4q7E@30c4q4F@10e16^64q6Be8^32^64
q7C@34d16^64q6A@34d64^32q7F@10f32^32.q6A@34d32^64q7F@10f16^64q6C@10f32.q7C@34d16^64q6A@34d64^32q7F@10f32^32.q6D@10f32^64q7C@34d16^64q6A@34d64^32q7F@10f32^32.q6D@10f32^64q7E@34d32^16.

#5 @33 v184 $DE$09$0D$0F
q7Er2r16.o5 $EC$03$01$01 e8  e8r8r32 $F4$03 $EC$00$00$00
/
[v135 y9 q73@35c8 q54@36c16^64q55c32.]30
q73@35c4 y12 q77@37c4
*48
q73@35c2r2
r1
y12 q77@37c2r2
y9 q73@35c4c4c4y12 q77@37c2
r2.