#amk=1
;*******************************************************************
; version 0.2 (added $F4$01 and $F4$02)
; Insert size: 0x9CE bytes
; Number of channels: 8
; Total song length: 0:55
; Version: AddmusicK 1.0.8
; Samples: 9
; tags: #abstract #athletic #carnival #credits #grassland #ship #sky #town #urban
;*******************************************************************
; SPC Generator Info
#SPC
{
	#author "Compile"
	#title "Arle Area 1"
	#game "Super Nazo Puyo - Ruru No Ruu"
	#comment "Ported by qantuum"
}
;*******************************************************************
#path "Super Nazo Puyo - Arle Area 1"
#samples
{
 #optimized
 "snp_saw.brr"
 "snp_celesta.brr"
 "snp_flute.brr"
 "snp_bass.brr"
 "snp_strings.brr"
 "snp_hats.brr"
 "snp_crash.brr"
 "snp_snare.brr"
 "snp_kick.brr"
}
#instruments
{
 "snp_saw.brr" $8F $E0 $E0 $04 $00 ;@30
 "snp_celesta.brr" $8F $E0 $E0 $02 $80 ;@31
 "snp_flute.brr" $8F $E0 $E0 $01 $B8 ;@32
 "snp_bass.brr" $8F $E0 $E0 $02 $40	;@33
 "snp_strings.brr" $8F $E0 $E0 $03 $C8 ;@34
 "snp_hats.brr"	$00 $7F $7F $02 $05	;@35
 "snp_crash.brr" $DF $EF $EF $15 $C7 ;@36
 "snp_snare.brr" $DF $F1 $F1 $01 $84 ;@37
 "snp_kick.brr"	$00 $7F $7F $01 $03	;@38
 "snp_hats.brr"	$9F $3F $7F $02 $05	;@39
}
;*******************************************************************
"SEMIT=$FA$02"
"OPEN=@39 v94 y11 o6 c+"
"CLOSED=@35 v78 y9 o6 c+"
"CRASHLO=@36 v120 y6 o2 c"
"CRASHI=@36 v120 y14 o2 d+"
"KICK=@38 v113 o5 a+"
"SNARE=@37 v165 o5 a+"
$F4$02
#louder
#0 w255 t59 $F0
@30 $F4$01 v110 l16 y10 r12 (0)[ o2 c+ b f+ > d+ < b > f+ d+ b f+ > d+ < b > f+ d+ b f+ > d+ < b > c+ d+ f+ d+ e f+ a f+ g+ a b > c+ d+32 $F4$01 ^32 ] $F4$01 e f+32 $F4$01 ^32 /
@31 v127 l8 
(1)[ o5 $DF g+ f+ e $DE$02$0B$18 f+4 g+4 $DF f+ e d+ c+ $DE$02$0B$23 < b2^ $DF > c+ d+ e $DE$02$0B$11 b4 g+4. $DF f+ e f+ ] o5 $DE$02$0B$15 g+4 f+4. (1) o5 $DE$02$0B$15 g+4. v110 f+4 $DF
[ o5 [[ v98 y14 e16 v97 y7 c16 ]]8 [[ v98 y14 f+16 v97 y7 d16 ]]8 [[ v98 y14 f+16 < v97 y7 b16 ]]8 > [[ v98 y14 g16 < v97 y7 b16 ]]4 v147 y13 b16  v140 > f+16 y12 b16 v138 y11 < f+16 y9 > d16 v137 y8 < b16  v145 f+16 v147 y7 d16 ]3
(2)[ o5 [[ v98 y14 e16 v97 y7 c16 ]]8 ] SEMIT$02 (2) SEMIT$00
o5 [ v98 y14 f+16 < v97 y7 b16 ]8 > v93 y14 g16 > y6 c16 < v86 y14 g16 > y6  c16 < v81 y13 g16  > y7 c16 < v79 y14 g16 > v76 y7 c16 < y14 a16 y6 > d16
@32 v78 y9 o6 < a48 a+48 b16^48 a+ g+ g2^16^48 g48 g+48 a8.^24 a48 a+48 b16^24 b4..^48 > c24 c+24 d4..^48 d4..^48 d48 d+48 e4 < b4 a4. g+4. a b > c2^ < b4 a b4..^48 g+48 g48 f+2 f+4 f4 g f4. e4 f f+4 g4.

#1 @30 $F4$01 v79 l16 y10,1,0 r6^24 (0) /
@31 v97 l8 r8
(10)[ o5 $DF g+ f+ e $DE$02$0B$14 f+4 g+4 $DF f+ e d+ c+ $DE$02$0B$23 < b2^ $DF > c+ d+ e $DE$02$0B$0A b4 $DE$02$0B$10 g+4. $DF f+ e f+ ] o5 $DE$02$0B$10 g+4 f+4. (10) o5 $DE$02$0B$10 g+4. v79 f+4 $DF
[ o5 v76 [[ y14,1,0 e16 y6,1,0 c16 ]]8 [[ y14,1,0 f+16 y6,1,0 d16 ]]8 [[ y14,1,0 f+16 < y6,1,0 b16 ]]8 > [[ y14,1,0 g16 < y6,1,0 b16 ]]4 v120 y14,1,0 b16  v110 y12,1,0 > f+16 v113 b16 v109 y11,1,0 < f+16 y9,1,0 > d16 v107 y8,1,0 < b16  v110 f+16 y6,1,0 d16 ]3
(11)[ o5 v76 [[ y14,1,0 e16 y6,1,0 c16 ]]8 ] SEMIT$02 (11) SEMIT$00
o5 v76 [ y14,1,0 f+16 < y6,1,0 b16 ]8 > v68 y13,1,0 g16 > y7,1,0 c16 < v66 y15,1,0 g16 > y5,1,0 c16 < v57 y14,1,0 g16 > y6,1,0 c16 < v52 y13,1,0 g16 > y7,1,0 c16 < v49 y20,1,0 a16 > v47 y8,1,0 d16
@32 v52 y10,1,0 o6 < a48 a+48 b16^48 a+ g+ g2^16^48 g48 g+48 a8.^24 a48 a+48 b16^24 b4..^48 > c24 c+24 d4..^48 d4..^48 d48 d+48 e4 < b4 a4. g+4. a b > c2^ < b4 a b4..^48 g+48 g48 f+2 f+4 f4 g f4. e4 f f+4 g4.

#2 @33 v113 y12 l8
o4 r12 b1 b b b b b > b c+ d+ / l8
(20)[ o5 e e b d+4 d+ f+ b ] (21)[ o5 c+ c+ g+ < b4 b > e g+ ] SEMIT$F9 (20) SEMIT$00
(22)[ o4 f+ a+ > c+ < b4 b > c+ d+ ]
(20) (21) SEMIT$F9 (20) SEMIT$00 (22)
(23)[ o5 [[ c16 c16 > c16 c16 ]]4 ] SEMIT$02 (23) SEMIT$FF (23) SEMIT$00
(24)[ o5 [[ e16 e16 > e16 e16 ]]2 < [[ d16 d16 > d16 d16 ]]2 ]
(23) SEMIT$02 (23) SEMIT$FF (23) SEMIT$00 (25)[ o5 [[ e16 e16 > e16 e16 ]]2 < d16 d16 > d16 d16 < d16 > d16 < d16 > d16 ]
(23) SEMIT$02 (23) SEMIT$FF (23) SEMIT$00 (24) (23) SEMIT$02 (23) SEMIT$FF (23) SEMIT$00
o5 c > c < c d4 > d o4 e f+
l16 g > g < g g b g g > g < g g b g g > g < g g f+ > f+ < f+ f+ b f+ f+ > f+ < f+ f+ b f+ f+ > f+ < f+ f+ f > f < f f b f f > f < f f b f f > f < f f e e > e < e e b e e > e < e e b e e > e < e >
c > c < c c g c c > c < c c g c c > c < c c < b > b < b b > f+ < b b > b < b b > f+ < b b > b < b b a+ > a+ < a+ a+ > f+ < a+ a+ > a+ < a+ a+ > f+ < a+ a+ > a+ < a+ a+ a8 > a8 < a+8 b4 > b8 < b8 > b8

#3 @34 y11
v78 l16 r12 $F4$01 (30)[ o2 c+ b f+ > d+ < b > f+ d+ b f+ > d+ < b > f+ d+ b f+ > d+  f+ e d+ c+ e d+ c+ < b > d+ c+ < b a g+ f+32 $F4$01 ^32 ] o4 $F4$01 e d+32 $F4$01 ^32 / l4 $F4$01
(31)[ o4 e. d+2^8 c+. d2^8 c+. < b2^8 ] o3 f+8 g+8 a+8 b > c+8 d+
(31) o3 f+8 g+8 a+8 b b8 > v90 a8.^48 a+24
(32)[ o4 b2^8 > c d16^48 c+48 c48 < b2^8 a g16^48 g+24 a. g a8 a+24 b8.^48 b2 b16 > f+16 b16 f+16 d16 < b16 f+16 d16 ]
(33)[ o4 a48 a+48 b2^16^48 > c d16^48 c+48 c48 < b2^8 a g16^48 g+24 a. g a8 a+24 b8.^48 b2 b16 > f+16 b16 f+16 d16 < b16 ] o4 f+16 d16
(32) (34)[ o4 b2^8 > c8. c48 c+48 d8^48 < b2^8 a8.^48 a48 g+48 g8 g48 g+48 a^16^48 b. g g8 f+8 e8 d c8 d16 e16 f+8 ]
v78 (35)[ o4 g2^8 d g8 f+2^8 d f+8 f2^8 < b > f8 e. < b. > d c2^8 < g > c8 d2^8 < b > d8 c+ < a+ g f e f8 f+ g8. $F4$01 ^8. ]

#4 @34 y9
v68 l16 o3 r12  $F4$01 e8 (30) / l4 $F4$01
(40)[ o3 b. b2^8 g+. f+2^8 f+. e2^8 c+8 d+8 e8 f+ g+8 ] o3 a (40) r8 v78 o4 a8.^48 a+24 (32) (33)
o4 g2^8 a b16^48 g+48 g48 f+2^8 e d16^48 f24 f+. d f+8 f+24 g8.^48 g2 g8 b16 > f+16 b16 f+16 d16 < b16
g2^8 a8. a48 a+48 b8^48 > d2 f+2 f+2 a2 b8 g8 e8 d < e8 d16 c16 < b8
v68 b2^8 g b8 b2^8 f+ b8 b2^8 f b8 a. g+. b a2^8 e a8 a2^8 d a8 a+ f a+ > d c+ d8 d+ < b8. $F4$01 ^8.

#5 l8 o6
r12 [ CLOSED OPEN ]7 CRASHI4 / CRASHLO4 CLOSED c+ c+ OPEN4
(50)[ CLOSED OPEN CLOSED c+ c+ c+ OPEN4 ]3 CLOSED CRASHI4 CLOSED c+ c+ OPEN4 (50)2 CLOSED OPEN CLOSED c+ c+ CRASHI4 CRASHLO4 CRASHI4
(51)[ CLOSED16 c+16 OPEN ]15 CRASHLO4 (51)15 CRASHI4 (51)15 CRASHLO4 (51)11 CRASHI4. CRASHLO4. CRASHI4 CRASHLO4
[ CLOSED16 OPEN16 CLOSED16 c+16 OPEN16 CLOSED16 c+16 c+16 ]13 CLOSED16 OPEN16 CLOSED16 c+16 CRASHI4. CRASHLO4 CRASHI4.

#6 l8 o5
SNARE24 a+24 a+4 a+4 a+4 a+4 a+ a+16 a+16 a+ a+16 a+16 a+16 a+16 a+16 a+16 a+16 a+16 a+16 a+16 /
[ [[ KICK a+ SNARE KICK4 a+ SNARE4 ]]3 KICK a+ SNARE KICK4 a+ SNARE16 a+16 a+16 a+16 ]2
(60)[ [[ KICK4 SNARE4 ]]7 KICK4 SNARE a+16 a+16 ]
(61)[ KICK4 SNARE4 ]7 KICK16 SNARE16 a+16 a+16 a+16 a+16 a+16 a+16
(61)7 KICK4 SNARE16 a+16 a+16 a+16 (61)6 SNARE a+ KICK SNARE KICK SNARE a+16 a+16 a+16 a+16
[ KICK a+ SNARE KICK4 a+ SNARE KICK ]7
SNARE KICK SNARE a+ KICK SNARE a+24 a+24 a+24 a+16 a+16

#7 @34 y11,0,1
v55 l16 r12^16. $F4$01 (30) o4 e32 /
l4 r16. $F4$01 (31) o3 f+8 g+8 a+8 b > c+8 d+ (31) o3 f+8 g+8 a+8 b b8 > v66 a8.^48 a+24 (32) (33) o4 f+16 d16 (32) (34) v55 (35)
