#amk 2

#path "spaf-05"

#samples
{
	#optimized
	"sample_00.brr"
	"sample_01.brr"
	"sample_02.brr"
	"sample_03.brr"
	"sample_05.brr"
	"sample_04.brr"
	"sample_06.brr"
	"sample_07.brr"
}

#instruments
{
	"sample_00.brr"	$8F $E0 $B8 $01 $42	; @30
	"sample_01.brr"	$8F $F8 $B8 $01 $D1	; @31
	"sample_02.brr"	$8F $E0 $B8 $01 $05	; @32
	"sample_03.brr"	$8F $ED $B8 $0E $F0	; @33
	"sample_05.brr"	$8F $E0 $B8 $11 $E0	; @34
	"sample_04.brr"	$8F $E0 $B8 $04 $00	; @35
	"sample_06.brr"	$8F $E0 $B8 $04 $00	; @36
	"sample_07.brr"	$8F $EE $B8 $06 $F0	; @37
}

#0 w255 t51 $EF $3C $35 $28 $F1 $02 $00 $01 @30 v29 y0 o5 g+=5 @31 v120 y10 b16 v147 b16 @32 v190 a16 a16
@31 b16 @32 a8 a16
a8 a16 a16
@31 b16 @32 a8 a16
a8 a16 a16
@31 b16 @32 a8 a16
a8 a16 @31 v97 b16
v190 b8 @32 a=13 a=13
a8 a16 a16
@31 b16 @32 a8 a16
a8 a16 a16
@31 b16 @32 a8 a16
a8 a16 a16
@31 b16 @32 a8 a16
a16 a16 @31 v174 b8
v190 b16 b8 b16
@32 a8 a16 a16
@31 b16 @32 a8 a16
a8 a16 a16
@31 b16 @32 a8 a16
a8 a16 a16
@31 b16 @32 a8 a16
a8 a16 @31 v97 b16
v190 b8 @32 a=13 a=13
a8 a16 a16
@31 b16 @32 a8 a16
a8 a16 a16
@31 b16 @32 a8 a16
a8 a16 a16
@31 b16 @32 a8 a16
a=25 a16 @31 v137 b16
v165 b16 v147 b16 v174 b=13 v184 b16
@32 v190 a=25 a16
a=11 @31 b16 @32 a=23 a=11
a8 a16 a16
@31 b16 @32 a8 a16
a=23 a=11 a16
@31 b=11 @32 a8 a16
a=23 a16 @31 v147 b=11
v190 b8 @32 a=13 a=11
a=23 a16 a16
@31 b=11 @32 a=23 a=13
a=23 a=11 a16
@31 b16 @32 a8 a16
a=23 a16 a=11 @31 b16
@32 a=23 a16 a8
a16 @31 v147 b16 v190 b=25
@32 a=11 a16 a=25
a=11 a16 @31 b=11
@32 a=23 a16 a=23
a16 a=11 @31 b=13
@32 a8 a=11 a=23
a16 a=11 @31 b16
@32 a=23 a=13 a=23
a=11 @31 v147 b16 v190 b8
@32 a16 a16 a=23
a=11 a16 @31 b16 @32 a=23
a16 a=23
a16 a=11 @31 b=13 @32 a8
a=11 a8
a=11 a16 @31 b=11 @32 a=23
a=13 a=25
a=11 @31 v137 b=13 v165 b=11 v147 b=13
v174 b16 v184 b16 @32 v190 a8
r96 a16 a16 @31 b16 @32 a8
a16 a8
a32.. 

#1 r12... @33 v97 y10 o2 c32. r96 c32..
r64 @34 a+=11 > c16 @33 < c=11 c=25
c=11 c=25
c16 < a16 a+16 b16
> c8 c32.. r96 c32..
r64 @34 a+=11 > c16 @33 < c16 c8
@34 a+16 > c16 < f16
g16 d+16 f=13 < a+=13
@33 > c8 c32.. r96 c32..
r64 @34 a+=11 > c16 @33 < c=11 c=25
c=11 c=25
c16 < a16 a+16 b16
> c8 c32.. r96 c32..
r64 @34 a+=11 > c16 @33 < c16 c8
@34 a+16 > c16 < f16
g16 d+16 f16 < a+16
@33 > c8 c32.. r96 c32..
r64 @34 a+=11 > c16 @33 < c=11 c=25
c=11 c=25
c16 < a16 a+16 b16
> c8 c32.. r96 c32..
r64 @34 a+=11 > c16 @33 < c16 c8
@34 a+16 > c16 < f16
g16 d+16 f=13 < a+=13
@33 > c8 c32.. r96 c32..
r64 @34 a+=11 > c16 @33 < c=11 c=25
c=11 c=25
c16 < a16 a+16 b16
> c8 c32.. r96 c32..
r64 @34 a+=11 > c16 @33 < c16 c=25
@34 a+16 > c16 < f16
g16 d+16 f=13 < a+16
@33 > c=25 c32. r64
c32 r=5 c32. r64 c=23 c24
r64 c8 c32. r64 c=7
r=5 c32. r64 c8 c32.
r64 c=23 c32. r64 c32
r=5 c24 r64 c8 c32.
r64 c=23 c32. r64 c32 r=5
c24 r=5 c8 c32.
r64 c16... c32. r64 c=7 r=5
c24 r64 c=23 c32.. r64
c=23 c24 r64 c=7 r=5
c32.. r64 c=23 c32. r64
c=23 c32. r64 c32 r=5 c32.
r64 c=23 c32. r64 c8
c32. r64 c24 r=5 c32.
r64 @34 a+16 > c=11 @33 < c32.. r48 c=23
c24 r64 c=7 r=5 c24
r64 c=23 c32. r64 c=23
c32. r64 c32 r=5 c32..
r64 c8 c24 r64 c=23
c32. r64 c=7 r=5 c24
r64 c=23 c32.. r64 c=23
c24 r64 c=7 r=5 c32. r64
c16 f=47
f32. r64 f32 r=5 f32. r64 f=23
f32. r64 f=23
f32. r64 f32 r=5 f32.. r64 f=11
g4
g24 r64 g=7 r=5 g24 r64 g=23
g32.. r64 g16 @34 a+=13
> c=11 < f=13 g=11 d+=13
f16 < a+16 @33 > c8
r96 c32.. r96 c32.. r64 @34 a+=11 > c16
@33 < c=11 c=25 c=11
c=11 

#2 r12... @35 v113 y12 o4 d32. r=15
v90 y11 d32. r96 v113 y12 d32.. r=15 v90 y11 d32.
r96 v113 y12 d32.. r24.. v90 y11 d32.. r96 v113 y12 d32..
r24.. v90 y11 d32.. r96 v113 y12 d32.. r64 d32.
r=26 e32.. r=15
v90 y11 e32. r96 v113 y12 e32.. r24.. v90 y11 e32..
r96 v113 y12 e32.. r24.. v90 y11 e32.. r64 v113 y12 e32.
r24.. v90 y11 e32.. r64 v113 y12 e32.. r64 e32..
r=26 d32.. r=15
v90 y11 d32. r96 v113 y12 d32.. r24.. v90 y11 d32..
r96 v113 y12 d32.. r24.. v90 y11 d32.. r96 v113 y12 d32..
r=15 v90 y11 d32. r96 v113 y12 d32.. r96 d32..
r=27 e32. r=15
v90 y11 e32. r64 v113 y12 e32. r24.. v90 y11 e32..
r96 v113 y12 e32.. r64 e32. r24.. e32..
r=15 v90 y11 e32. r96 v113 y12 e32.. r64 e32.
r=27 d32. r=15
v90 y11 d32. r96 v113 y12 d32.. r=15 v90 y11 d32.
r96 v113 y12 d32.. r24.. v90 y11 d32.. r96 v113 y12 d32..
r24.. v90 y11 d32.. r96 v113 y12 d32.. r96 d32..
r=26 e32.. r=15
v90 y11 e32. r96 v113 y12 e32.. r=15 v90 y11 e32.
r96 v113 y12 e32.. r24.. v90 y11 e32.. r64 v113 y12 e32.
r=15 v90 y11 e32. r64 v113 y12 e32.. r64 e32..
r=26 d32.. r=15
v90 y11 d32. r96 v113 y12 d32.. r24.. v90 y11 d32..
r64 v113 y12 d32. r24.. v90 y11 d32.. r96 v113 y12 d32..
r=15 v90 y11 d32. r96 v113 y12 d32.. r96 d32..
r=27 e32. r=15
v90 y11 e32. r96 v113 y12 e32.. r24.. v90 y11 e32..
r64 v113 y12 e32.. r96 e32.. r24.. e32..
r=15 v90 y11 e32. r64 v113 y12 e32.. r96 e32..
r64 v101 $DE $60 $11 $24 d2^=68
e2^=88
r48 $DE $60 $14 $30 d+2^=88
r48 $DE $60 $09 $31 f1^16..
r96 $DE $60 $11 $24 d2^=65
e2^=89
r=5 $DE $60 $14 $30 d+2^=87
r48 $DE $60 $09 $31 f1^16..

#3 r12... @35 v110 y14 o3 a+32. r24..
v92 y13 a+32.. r96 v110 y14 a+32.. r=15 v92 y13 a+32.
r96 v110 y14 a+32.. r24.. v92 y13 a+32.. r96 v110 y14 a+32..
r24.. v92 y13 a+32.. r96 v110 y14 a+32.. r64 a+32.
r=26 > c32.. r=15
v92 y13 c32. r96 v110 y14 c32.. r24.. v92 y13 c32..
r96 v110 y14 c32.. r24.. v92 y13 c32.. r96 v110 y14 c32..
r24.. v92 y13 c32.. r64 v110 y14 c32.. r64 c32..
r=26 < a+32.. r=15
v92 y13 a+32. r96 v110 y14 a+32.. r24.. v92 y13 a+32..
r96 v110 y14 a+32.. r24.. v92 y13 a+32.. r96 v110 y14 a+32..
r=15 v92 y13 a+32. r96 v110 y14 a+32.. r96 a+32..
r=26 > c32.. r24..
v92 y13 c32.. r64 v110 y14 c32. r24.. v92 y13 c32..
r96 v110 y14 c32.. r96 c32.. r24.. c32..
r24.. v92 y13 c32.. r96 v110 y14 c32.. r96 c32..
r=26 < a+32.. r24..
v92 y13 a+32.. r96 v110 y14 a+32.. r=15 v92 y13 a+32.
r96 v110 y14 a+32.. r24.. v92 y13 a+32.. r96 v110 y14 a+32..
r24.. v92 y13 a+32.. r96 v110 y14 a+32.. r96 a+32..
r=26 > c32.. r24..
v92 y13 c32.. r96 v110 y14 c32.. r=15 v92 y13 c32.
r96 v110 y14 c32.. r24.. v92 y13 c32.. r96 v110 y14 c32..
r24.. v92 y13 c32.. r64 v110 y14 c32.. r64 c32..
r=26 < a+32.. r=15
v92 y13 a+32. r96 v110 y14 a+32.. r24.. v92 y13 a+32..
r96 v110 y14 a+32.. r24.. v92 y13 a+32.. r96 v110 y14 a+32..
r=15 v92 y13 a+32. r96 v110 y14 a+32.. r96 a+32..
r=26 > c32.. r24..
v92 y13 c32.. r96 v110 y14 c32.. r24.. v92 y13 c32..
r96 v110 y14 c=11 r96 c32.. r24.. c32..
r=15 v92 y13 c32. r64 v110 y14 c32.. r96 c32..
r64 v98 $DE $60 $14 $23 < a+2^=68
$DE $60 $12 $2B > c2^=89
r48 $DE $60 $14 $23 < a+2^=87
r48 $DE $60 $12 $2B > c1^16..
$DE $60 $14 $23 < a+2^=67
$DE $60 $12 $2B > c2^=89
r48 $DE $60 $14 $23 < a+2^=88
r48 $DE $60 $11 $2B > c1^16..

#4 r12... @33 v47 y8 o4 d32. r24..
v37 y0 d32.. r96 v47 y8 d32.. r=15 v37 y0 d32.
r96 v47 y8 d32.. r24.. v37 y0 d32.. r96 v47 y8 d32..
r24.. v37 y0 d32.. r96 v47 y8 d32.. r64 d32.
r=26 e32.. r=15
v37 y0 e32. r96 v47 y8 e32.. r24.. v37 y0 e32..
r96 v47 y8 e32.. r24.. v37 y0 e32.. r96 v47 y8 e32..
r24.. v37 y0 e32.. r64 v47 y8 e32.. r64 e32..
r=26 d32.. r=15
v37 y0 d32. r96 v47 y8 d32.. r24.. v37 y0 d32..
r96 v47 y8 d32.. r24.. v37 y0 d32.. r96 v47 y8 d32..
r=15 v37 y0 d32. r96 v47 y8 d32.. r96 d32..
r=26 e32.. r24..
v37 y0 e32.. r64 v47 y8 e32. r24.. v37 y0 e32..
r96 v47 y8 e32.. r96 e32.. r24.. e32..
r24.. v37 y0 e32.. r96 v47 y8 e32.. r96 e32..
r=26 d32.. r24..
v37 y0 d32.. r96 v47 y8 d32.. r=15 v37 y0 d32.
r96 v47 y8 d32.. r24.. v37 y0 d32.. r96 v47 y8 d32..
r24.. v37 y0 d32.. r96 v47 y8 d32.. r96 d32..
r=26 e32.. r24..
v37 y0 e32.. r96 v47 y8 e32.. r=15 v37 y0 e32.
r96 v47 y8 e32.. r24.. v37 y0 e32.. r96 v47 y8 e32..
r24.. v37 y0 e32.. r64 v47 y8 e32.. r64 e32..
r=26 d32.. r=15
v37 y0 d32. r96 v47 y8 d32.. r24.. v37 y0 d32..
r96 v47 y8 d32.. r24.. v37 y0 d32.. r96 v47 y8 d32..
r=15 v37 y0 d32. r96 v47 y8 d32.. r96 d32..
r=26 e32.. r24..
v37 y0 e32.. r96 v47 y8 e32.. r24.. v37 y0 e32..
r96 v47 y8 e=11 r96 e32.. r24.. e32..
r=15 v37 y0 e32. r64 v47 y8 e32.. r96 e32..
r64 y12 $DE $60 $10 $25 $EE $14 d2^=68
$DE $60 $0B $27 e2^=89
r48 $DE $60 $10 $2F $EE $15 d+2^=87
r48 $DE $60 $09 $30 $EE $19 f1^16..
$DE $60 $10 $25 $EE $14 d2^=67
$DE $60 $0B $27 e2^=89
r48 $DE $60 $10 $2F $EE $15 d+2^=88
r48 $DE $60 $09 $30 $EE $19 f1^16..

#5 r1^2^=78
@36 v118 y9 o3 a+16 > c=13
r1^=108
v133 g16 f16 e16
d16 e16 r16 c16
r1^2^4
v124 < a+32. r64 g32. r48 a+16 > c=13
r1^2
a+32. > c24 < a+24 g24 f24
d+24 f24 g24 f24 d+32. c24
< a+24 @37 v90 y11 $EE $19 a+24.. > $EE $1B c=11 r16
c=11 r16 c=11 r16 c16
r16 c=11 < $EE $19 a+16 r=11
@36 v124 > $EE $1B c=17 r24 @37 v90 < $EE $13 f16 $EE $1D g16
$EE $19 a+=11 > $EE $1B c16 r16 c=11
r16 c=11 r16 c16
r=11 @36 v138 c=13 < $EE $19 a+=11 r16
> $EE $1B c12 r24 @37 v90 < $EE $13 f16 $EE $1D g=11
$EE $19 a+16 > $EE $1B c16 r16 c=11
r16 c=11 r16 c16
r=11 c16 < $EE $19 a+16 r16
@36 v124 > $EE $1B c12 r24 @37 v90 < $EE $13 f16 $EE $1D g=11
$EE $19 a+16 > $EE $1B c=11 r16 c=11 r16
c=11 r16 c=13 @36 v154 $EE $1D g32.
r64 $EE $19 f32. r64 $EE $1B d+24 r64 $EE $19 f32.. r64 $EE $1B d+32.
r64 c32. r64 < $EE $19 a+24 r64 $EE $1D g32.. r=27
@37 v90 $EE $19 a+=11 > $EE $1B c16 r16
c=11 r16 c=11 r16
c=11 r16 c=11 @36 v124 c=17
r24 @37 v90 < $EE $13 f16 $EE $1D g=11 $EE $19 a+16
> $EE $1B c=11 r16 c=11 r16
c16 r16 c16 r16
@36 v138 c=11 < $EE $19 a+16 r16 > $EE $1B c12
r24 @37 v90 < $EE $13 f=11 $EE $1D g16 r=23
$EE $19 a+16 > $EE $1B c=11 r16 c=11
r16 c=13 r=11 c16
r=11 c16 @36 v133 c12
r24 @37 v90 < $EE $13 f16 $EE $1D g16 $EE $19 a+=11 > $EE $1B c16
r16 c=11 r16 c=11
r16 c16 @36 v138 c32.. r64 < $EE $13 f32.
r64 $EE $1A f+32. r64 $EE $1D g8 $EE $19 a+32.
r64 $EE $1D g32. r64 > $EE $1B c=25^=11 $DD $00 $08 $9B

#6 r1^2^=78
@36 v118 y11 o4 a+16 > c=13
r1^1^1^2^4
< a+32. r64 g32. r48 a+16 > c=13
r1^2
<< a+32. > c24 < a+24 g24 f24
d+24 f24 g24 f24 d+32. c24
< a+24 @37 v74 y9 >> a+24.. > c=11 r16
c=11 r16 c=11 r16 c16
r16 c=11 < a+16 r=11
@36 v94 > c=17 r24 @37 v74 < f16 g16
a+=11 > c16 r16 c=11
r16 c=11 r16 c16
r=11 c=13 < a+=11 r16
> c8 < f16 g16
a+=11 > c16 r16 c=11
r16 c=11 r16 c16
r=11 c16 < a+16 r16
@36 v94 > c12 r24 @37 v74 < f16 g=11
a+16 > c=11 r=11 c16 r=11
c=13 r16 c16 r=13
c=11 < a+=11 r=13 > c8
< f=11 g=13 a+16
> c16 r16 c=11 r16
c=11 r16 c=11 r16
c=11 < a+16 r16 @36 v94 > c12
r24 @37 v74 < f16 g=11 a+16
> c=11 r16 c16 r16
c=11 r16 c16 r16
c=11 < a+16 r16 > c=23
< f16 g16 a+=11
> c16 r16 c=11 r16 c=11
r16 c=13 r=11 c16
< a+=11 r16 @36 v94 > c12
r24 @37 v74 < f16 g16 a+=11 > c16
r16 c=11 r16 c=11
r16 c16 @36 v124 c32.. r64 < f32.
r64 f+32. r64 g8 a+32.
r64 g32. r64 > c=25^16 $DD $00 $08 $A7

#7 r12... @35 v110 y6 o3 f32. r24..
v92 y7 f32.. r96 v110 y6 f32.. r24.. v92 y7 f32..
r96 v110 y6 f32.. r24.. v92 y7 f32.. r96 v110 y6 f32..
r24.. v92 y7 f32.. r96 v110 y6 f32.. r96 f32..
r=26 g32.. r=15
v92 y7 g32. r96 v110 y6 g32.. r24.. v92 y7 g32..
r96 v110 y6 g32.. r24.. v92 y7 g32.. r96 v110 y6 g32..
r24.. v92 y7 g32.. r64 v110 y6 g32.. r96 g=11
r=26 f32.. r=15
v92 y7 f32. r96 v110 y6 f32.. r24.. v92 y7 f32..
r96 v110 y6 f32.. r24.. v92 y7 f32.. r96 v110 y6 f32..
r24.. v92 y7 f32.. r96 v110 y6 f32.. r96 f32..
r=26 g32.. r24..
v92 y7 g32.. r96 v110 y6 g32.. r24.. v92 y7 g32..
r96 v110 y6 g32.. r96 g32.. r24.. g32..
r24.. v92 y7 g32.. r96 v110 y6 g32.. r96 g32..
r=26 f32.. r24..
v92 y7 f32.. r96 v110 y6 f32.. r24.. v92 y7 f32..
r96 v110 y6 f32.. r24.. v92 y7 f32.. r96 v110 y6 f32..
r24.. v92 y7 f32.. r96 v110 y6 f32.. r96 f32..
r=26 g32.. r24..
v92 y7 g32.. r96 v110 y6 g32.. r24.. v92 y7 g32..
r96 v110 y6 g32.. r24.. v92 y7 g32.. r96 v110 y6 g32..
r24.. v92 y7 g32.. r64 v110 y6 g32.. r96 g=11
r=26 f32.. r=15
v92 y7 f32. r96 v110 y6 f32.. r24.. v92 y7 f32..
r96 v110 y6 f32.. r24.. v92 y7 f32.. r96 v110 y6 f32..
r24.. v92 y7 f32.. r96 v110 y6 f32.. r96 f32..
r=26 g32.. r24..
v92 y7 g32.. r96 v110 y6 g32.. r24.. v92 y7 g32..
r96 v110 y6 g=11 r96 g32.. r24.. g32..
r24.. v92 y7 g32.. r96 v110 y6 g=11 r96 g32..
r64 v98 $DE $60 $12 $20 f2^=68
$DE $60 $0B $32 g2^=89
r48 g2^=88
r48 $DE $60 $10 $23 a1^=20
v92 y7 f2^=68
$DE $60 $0B $32 g2^=88
r48 g2^=88
r48 $DE $60 $10 $23 a1^16...

